<svg width="53" height="30" viewBox="0 0 53 30" fill="none" xmlns="http://www.w3.org/2000/svg">
<g clip-path="url(#clip0_339_591)">
<path d="M46.8691 27.0649C46.8691 28.6149 48.1291 29.8749 49.6791 29.8749C51.2291 29.8749 52.4891 28.6149 52.4891 27.0649C52.4891 25.5149 51.2291 24.2549 49.6791 24.2549C48.1291 24.2549 46.8691 25.5149 46.8691 27.0649ZM47.1991 27.0649C47.1991 25.6949 48.3191 24.5749 49.6891 24.5749C51.0591 24.5749 52.1791 25.6949 52.1791 27.0649C52.1791 28.4349 51.0591 29.5549 49.6891 29.5549C48.3191 29.5549 47.1991 28.4349 47.1991 27.0649Z" fill="#1C1C1C"/>
<path d="M51.0498 28.885H50.5098L49.4198 27.195H48.9398V28.885H48.5098V25.165H49.5598C49.9098 25.165 50.1898 25.245 50.3998 25.425C50.5998 25.595 50.7098 25.835 50.7098 26.145C50.7098 26.375 50.6398 26.575 50.4898 26.755C50.3398 26.925 50.1298 27.045 49.8698 27.115L51.0598 28.895M48.9498 26.835H49.4998C49.7298 26.835 49.9098 26.775 50.0598 26.645C50.1998 26.515 50.2698 26.365 50.2698 26.175C50.2698 25.765 50.0198 25.555 49.5098 25.555H48.9498V26.835Z" fill="#1C1C1C"/>
<path d="M28.7812 17.0651C28.7812 20.9551 31.8413 22.8451 34.3113 22.8451C36.7813 22.8451 39.8412 20.9551 39.8412 17.0651C39.8412 14.0451 36.8513 11.6251 34.3113 10.1851C31.7713 11.6251 28.7812 14.0451 28.7812 17.0651Z" fill="#1C1C1C"/>
<path d="M6.28125 17.1349C6.28125 21.0349 9.35125 22.9149 11.8212 22.9149C14.2912 22.9149 17.3512 21.0249 17.3512 17.1349C17.3512 14.1149 14.3612 11.6949 11.8212 10.2549C9.28125 11.6949 6.28125 14.1149 6.28125 17.1349Z" fill="#1C1C1C"/>
<path d="M0.5 0.125V29.505H45.52V0.125H0.5ZM45.52 7.275C42.82 7.275 39.53 7.785 36.95 8.895C39.73 10.755 42.42 13.575 42.42 17.135C42.42 21.835 38.48 25.435 34.13 25.435C29.78 25.435 25.98 21.845 25.98 17.135C25.98 13.575 28.54 10.755 31.32 8.895C28.75 7.775 25.71 7.275 23 7.275C20.29 7.275 17.26 7.785 14.68 8.895C17.46 10.755 20.02 13.575 20.02 17.135C20.02 21.835 16.21 25.435 11.87 25.435C7.53 25.435 3.53 21.835 3.53 17.135C3.53 13.575 6.28 10.755 9.06 8.895C6.49 7.775 3.2 7.275 0.5 7.275V4.705C5.07 4.705 9.12 5.845 11.87 7.275C14.62 5.845 18.42 4.705 23 4.705C27.58 4.705 31.38 5.845 34.13 7.275C36.88 5.845 40.94 4.705 45.51 4.705V7.275H45.52Z" fill="#1C1C1C"/>
</g>
<defs>
<clipPath id="clip0_339_591">
<rect width="52" height="29.75" fill="white" transform="translate(0.5 0.125)"/>
</clipPath>
</defs>
</svg>
