<svg width="214" height="40" viewBox="0 0 214 40" fill="none" xmlns="http://www.w3.org/2000/svg">
<path d="M52.5076 31.3261C52.4861 31.6237 52.3785 32.9524 52.3463 33.2288C52.002 36.0032 50.3238 37.4807 49.2051 37.9272L49.1405 37.8528C51.561 35.6099 51.561 32.8142 51.561 31.73C51.561 30.6458 51.5502 30.6564 50.5497 30.4013C50.7541 30.2631 51.0446 30.0611 51.4103 30.0611C51.7546 30.0611 52.6367 30.3481 52.6367 30.7095C52.6367 30.8158 52.5076 31.241 52.4969 31.3261H52.5076ZM55.6811 36.6622C55.24 36.9705 55.197 37.0237 54.8528 37.3851C54.7882 37.4488 54.6699 37.5764 54.5946 37.5764C54.3472 37.5764 53.7555 36.5134 53.7555 36.354C53.7555 36.2689 53.9169 35.8756 53.9276 35.7906C54.0459 35.2485 54.0459 33.569 54.0459 33.2182C54.0459 32.7398 54.0352 30.3481 53.9706 30.0399C53.9169 29.806 53.6587 29.6359 53.0347 29.434C53.2069 29.3277 53.465 29.1682 53.7663 29.1682C54.1535 29.1682 55.1755 29.5509 55.1755 29.9442C55.1755 30.0611 55.0141 30.582 54.9926 30.6777C54.8635 31.3367 54.799 34.9508 54.799 35.7374C54.799 35.7906 54.799 35.9607 54.885 35.9607C55.197 35.9607 57.5637 34.4725 59.6184 31.8894L59.7259 31.9639C58.8331 34.0792 56.9505 35.7693 55.6919 36.6622H55.6811Z" fill="white"/>
<path d="M67.31 31.3367C66.9443 31.4536 66.8582 31.5174 66.5785 31.8363C66.288 32.1977 65.8685 32.6867 65.2446 33.3883C65.6534 33.6221 65.6856 33.6434 65.6856 33.7603C65.6856 33.8241 65.6211 34.0792 65.6103 34.143C65.5888 34.313 65.535 34.9083 65.535 35.7056C65.535 36.1095 65.5996 37.9166 65.5996 38.2886C65.5996 38.3736 65.5996 38.9689 65.1908 38.9689C64.868 38.9689 64.5991 38.4268 64.5991 38.1292C64.5991 38.0016 64.6744 37.4488 64.6959 37.3319C64.7497 36.7154 64.7497 35.5355 64.7497 35.2378C64.7497 34.9402 64.7497 34.1323 64.6744 33.9729C63.5771 35.0465 62.3077 36.0989 60.4252 36.7579L60.3714 36.6303C63.2759 34.8764 65.7824 31.4749 65.7824 31.1985C65.7824 31.1879 65.7717 31.1454 65.7071 31.1454C65.6318 31.1454 63.8353 31.6343 63.1899 31.9107C63.0823 31.9532 62.6843 32.2083 62.5767 32.2083C62.2109 32.2083 61.587 31.3898 61.587 30.9009C61.587 30.6458 61.63 30.5395 61.6623 30.4332C62.1464 31.0391 62.4153 31.1028 62.7058 31.1028C63.3082 31.1028 65.6749 30.8158 66.288 30.3375C66.5139 30.1674 66.5355 30.1462 66.6108 30.1462C66.8044 30.1462 67.6973 30.7627 67.6973 31.0284C67.6973 31.156 67.622 31.2304 67.3208 31.3261L67.31 31.3367ZM65.9223 29.604C65.7394 29.604 65.7286 29.604 64.9971 28.9556C64.2118 28.2541 63.5556 28.0415 63.1576 27.8926C63.3835 27.8501 63.5126 27.8289 63.8353 27.8289C64.8465 27.8289 65.8255 28.2328 66.1374 28.5304C66.3096 28.7005 66.3633 28.9981 66.3633 29.1257C66.3633 29.3702 66.245 29.604 65.933 29.604H65.9223ZM69.4185 36.152C69.1173 36.152 68.9667 35.9288 68.8268 35.7481C67.9232 34.4831 66.7076 33.7071 65.8255 33.165C67.9985 33.3883 69.8273 34.717 69.8273 35.6737C69.8273 35.7374 69.8165 36.152 69.4185 36.152Z" fill="white"/>
<path d="M71.1074 38.65C73.9152 37.0981 76.583 34.2705 77.7986 31.2304C77.2715 31.2835 76.3894 31.4217 75.8408 31.4855C75.7762 31.4961 75.4858 31.5387 75.4212 31.5387C75.1953 31.5387 74.8941 31.4005 74.7542 31.3154C73.9151 32.3572 73.1298 33.3564 71.2903 34.313L71.2258 34.2067C73.3665 32.2721 74.6359 29.9548 74.6359 29.5296C74.6359 29.4021 74.6144 29.2958 73.9151 28.8812C74.2271 28.7749 74.5176 28.7749 74.5606 28.7749C75.0877 28.7749 76.0344 29.3702 76.0344 29.6997C76.0344 29.8379 75.9806 29.8804 75.7332 30.1143C75.5503 30.2843 75.475 30.3906 75.0877 30.8796C75.6579 30.9434 77.3038 30.7627 77.648 30.6458C77.7663 30.6032 78.2182 30.2631 78.3365 30.2631C78.4548 30.2631 79.423 31.0284 79.423 31.2836C79.423 31.3898 79.38 31.4111 79.0142 31.5812C78.713 31.7194 78.5947 31.8257 78.3042 32.3784C77.1424 34.6 76.0451 35.8225 74.9479 36.726C74.41 37.1618 72.8824 38.3417 71.1182 38.7244L71.0967 38.6394L71.1074 38.65ZM80.3051 30.178C80.3051 30.3588 80.2191 30.5501 79.9609 30.5501C79.7995 30.5501 79.7135 30.4863 79.5414 30.295C79.068 29.7529 78.7561 29.3702 78.0245 28.8706C79.2079 28.9769 80.2944 29.4765 80.2944 30.178H80.3051ZM81.5638 29.5721C81.5638 29.9123 81.3379 29.9123 81.2518 29.9123C81.112 29.9123 81.0797 29.891 80.5203 29.3596C80.4127 29.2533 79.8963 28.7537 79.1863 28.4454C80.1976 28.4666 81.5638 28.7005 81.5638 29.5828V29.5721Z" fill="white"/>
<path d="M90.2881 32.5804C90.0407 32.7079 90.0084 32.7611 89.8471 33.1438C87.7278 38.1504 84.2209 38.7988 83.5001 38.8626L83.4786 38.7776C84.2854 38.4374 87.943 36.4071 89.0188 32.304C88.6422 32.3253 84.8771 32.6654 84.038 33.0268C83.9627 33.0694 83.6507 33.2607 83.5647 33.2607C83.242 33.2607 82.2845 32.4953 82.2845 31.7194C82.2845 31.6024 82.2953 31.4961 82.3706 31.2836C82.5965 31.6237 83.0376 32.1233 83.726 32.1233C84.35 32.1233 88.7713 31.7832 88.965 31.6981C89.0833 31.645 89.4491 31.2304 89.5566 31.2304C89.6965 31.2304 90.6647 31.9107 90.6647 32.2083C90.6647 32.3784 90.4925 32.4635 90.2881 32.5698V32.5804ZM88.7175 30.0718C87.7063 30.1249 85.5978 30.3056 85.2966 30.3588C84.6512 30.4438 84.5866 30.4651 84.3822 30.4651C83.9627 30.4651 83.3388 29.8804 83.3388 29.0725C83.9089 29.604 84.3177 29.6784 85.0385 29.6784C85.9098 29.6784 87.5988 29.4977 88.1474 29.2533C88.4056 29.1363 88.4486 29.1151 88.5669 29.1151C88.8036 29.1151 89.6427 29.2958 89.6427 29.6997C89.6427 29.9548 89.4706 30.0505 88.7283 30.0824L88.7175 30.0718Z" fill="white"/>
<path d="M95.3765 31.4324C95.1506 31.4324 95 31.2729 94.5804 30.869C93.666 29.9548 92.9345 29.6147 92.4397 29.4021C94.0103 29.2958 95.8606 29.8485 95.8606 30.9221C95.8606 31.2091 95.6347 31.443 95.3765 31.443V31.4324ZM96.5168 35.865C96.2478 36.067 95.0107 36.9492 94.7956 37.1725C94.731 37.2362 94.4406 37.5551 94.376 37.6296C94.3222 37.6827 94.2146 37.704 94.1501 37.704C93.6875 37.704 92.8269 36.6197 92.8269 36.0138C92.8269 35.78 92.9022 35.5886 92.956 35.4504C93.2572 36.0351 93.6338 36.3008 93.9134 36.3008C94.3438 36.3008 96.3662 34.8126 96.9363 34.3875C99.0448 32.8036 100.045 31.6875 101.099 30.4863L101.164 30.5288C100.852 31.4749 99.389 33.6965 96.5168 35.8756V35.865Z" fill="white"/>
<path d="M113.664 38.4162H103.907C103.584 38.4162 102.95 38.4268 102.369 38.5331L102.111 38.0122C103.004 38.0866 103.929 38.0973 104.122 38.0973H106.919C106.93 35.6843 106.941 30.0718 106.855 28.8174C106.833 28.3497 106.747 28.1371 106.672 27.9245L108.135 28.3497C108.21 28.371 108.329 28.4135 108.329 28.5411C108.329 28.6155 108.329 28.7111 107.898 28.9769C107.898 29.2958 107.855 30.6989 107.855 30.9965V32.2402H110.329L110.9 31.4961C110.964 31.4111 111.039 31.3261 111.093 31.3261C111.158 31.3261 111.222 31.3898 111.33 31.4643L112.234 32.2296C112.298 32.2828 112.363 32.3359 112.363 32.4209C112.363 32.5379 112.255 32.5485 112.169 32.5485H107.855V35.8118C107.855 35.9713 107.866 37.4807 107.866 38.0973H111.782L112.395 37.3319C112.481 37.2256 112.524 37.1725 112.599 37.1725C112.653 37.1725 112.739 37.2256 112.836 37.3L113.729 38.0654C113.804 38.1292 113.858 38.1823 113.858 38.2567C113.858 38.3736 113.75 38.3949 113.664 38.3949V38.4162Z" fill="white"/>
<path d="M126.627 29.2639H120.743C120.183 30.6989 119.721 31.7513 119.075 32.8674L119.247 32.9843H123.981L124.304 32.5804C124.379 32.4953 124.433 32.4422 124.497 32.4422C124.572 32.4422 124.659 32.4847 124.745 32.5591L125.347 33.0375C125.412 33.0906 125.487 33.165 125.487 33.2607C125.487 33.3776 125.325 33.5158 125.014 33.7284C125.014 34.8658 125.024 36.0138 125.067 37.2681C125.078 37.4595 125.132 38.4055 125.132 38.6075C125.132 39.2028 124.605 39.2559 124.486 39.2559C124.035 39.2559 124.045 39.0114 124.067 38.3311H119.151C119.161 38.8945 119.172 39.3728 118.505 39.3728C118.129 39.3728 118.118 39.1284 118.118 38.9476C118.118 38.2673 118.258 34.9083 118.236 34.143C116.978 35.9075 115.966 36.726 114.901 37.2044L114.858 37.1299C117.236 34.9402 118.796 31.7831 119.592 29.2851H117.031C116.676 29.2851 116.063 29.2958 115.493 29.4021L115.246 28.9025C115.913 28.9556 116.58 28.9769 117.247 28.9769H124.82L125.379 28.2647C125.455 28.1584 125.519 28.1052 125.584 28.1052C125.659 28.1052 125.745 28.169 125.82 28.2328L126.67 28.945C126.735 29.0088 126.799 29.1044 126.799 29.147C126.799 29.2533 126.713 29.2745 126.606 29.2745L126.627 29.2639ZM124.078 33.2926H119.161V38.0016H124.078V33.2926Z" fill="white"/>
<path d="M132.985 30.7202C132.673 31.1454 132.2 31.7938 131.404 32.7186V32.7824C132.253 32.9737 133.286 33.5477 133.286 34.1749C133.286 34.3449 133.178 34.7276 132.813 34.7276C132.469 34.7276 132.372 34.4831 132.264 34.2386C132.092 33.8241 131.726 33.165 131.404 32.9205V35.7693C131.404 36.0563 131.468 38.6819 131.468 38.7776C131.468 39.3303 130.93 39.3941 130.844 39.3941C130.661 39.3941 130.468 39.3197 130.468 39.0114C130.468 38.8732 130.521 38.2461 130.521 38.1292C130.575 37.0237 130.575 36.6091 130.607 33.569C129.284 34.8339 128.273 35.3229 127.821 35.5355L127.8 35.4823C129.747 33.7922 130.704 32.4741 132.07 30.3694H130.016C129.693 30.3694 129.058 30.3694 128.477 30.4863L128.23 29.9655C129.123 30.0399 130.059 30.0505 130.231 30.0505H130.607C130.607 29.2107 130.597 28.1052 130.382 27.5737L131.737 28.0202C131.855 28.0627 131.866 28.1584 131.866 28.1903C131.866 28.3072 131.629 28.4454 131.457 28.5517C131.436 28.743 131.436 28.7855 131.436 29.1044V30.0505H132.081L132.458 29.6997C132.533 29.6253 132.576 29.5934 132.619 29.5934C132.673 29.5934 132.705 29.6147 132.78 29.6784L133.447 30.2631C133.447 30.2631 133.534 30.38 133.534 30.4438C133.534 30.5501 133.534 30.5607 132.985 30.6883V30.7202ZM139.203 30.7414C139.181 30.9965 139.16 31.2304 139.16 31.4855C139.16 32.5591 139.203 33.8134 139.214 34.5469C139.224 34.7914 139.267 35.8331 139.267 36.0563C139.267 36.5985 138.826 36.641 138.697 36.641C138.342 36.641 138.342 36.3752 138.353 36.0351H136.89C136.901 36.5559 136.954 38.4374 136.954 38.8626C136.954 39.4473 136.384 39.4473 136.341 39.4473C135.997 39.4473 135.954 39.2559 135.954 39.0965C135.954 38.9158 135.975 38.1292 135.975 37.9591C135.975 36.7473 135.975 36.7366 135.986 36.0351H134.652C134.663 36.152 134.674 36.2689 134.599 36.4071C134.491 36.5878 134.243 36.6622 134.093 36.6622C133.953 36.6622 133.738 36.5985 133.738 36.3221C133.738 36.237 133.749 36.1839 133.749 36.0989C133.824 35.0997 133.824 33.5796 133.824 33.0375C133.824 32.2402 133.824 30.1036 133.695 29.4871L134.814 30.1036H135.965C135.965 29.8592 135.965 28.7749 135.954 28.5411C135.932 28.2009 135.868 27.8714 135.728 27.5419L137.073 27.8926C137.18 27.9139 137.245 27.967 137.245 28.0627C137.245 28.169 137.008 28.3603 136.858 28.4985C136.847 28.7218 136.847 28.7537 136.847 29.1788V30.093H138.116L138.536 29.721C138.622 29.6466 138.654 29.6147 138.708 29.6147C138.762 29.6147 138.805 29.6253 138.869 29.6891L139.482 30.2099C139.482 30.2099 139.547 30.2843 139.547 30.3375C139.547 30.4225 139.525 30.4544 139.203 30.7095V30.7414ZM134.642 30.4332V32.8887H136.019L135.997 30.4332H134.642ZM134.642 33.1969V35.7268H135.997C135.997 35.3654 136.019 33.6008 136.019 33.1969H134.631H134.642ZM138.353 30.4332H136.847V32.8887H138.353V30.4332ZM138.353 33.1969H136.836C136.836 33.4308 136.879 35.3229 136.89 35.7268H138.353V33.1969Z" fill="white"/>
<path d="M148.616 30.9115C148.616 29.8804 148.616 28.7962 148.422 27.8289L149.713 28.1265C149.853 28.169 149.95 28.2009 149.95 28.3285C149.95 28.4135 149.82 28.5517 149.562 28.743C149.541 29.1257 149.541 29.1788 149.541 29.519V30.9115H150.552L151.111 30.2418C151.165 30.178 151.24 30.0824 151.316 30.0824C151.402 30.0824 151.488 30.1462 151.552 30.2099L152.262 30.8796C152.262 30.8796 152.391 30.9965 152.391 31.071C152.391 31.1985 152.273 31.2091 152.187 31.2091H149.552C149.552 31.5706 149.541 33.1544 149.541 33.4839C149.541 33.6115 149.551 34.2493 149.562 34.6213H151.197L151.821 33.9197C151.897 33.8241 151.94 33.7603 152.026 33.7603C152.112 33.7603 152.198 33.8241 152.262 33.8879L152.994 34.5894C152.994 34.5894 153.123 34.717 153.123 34.7914C153.123 34.9083 153.005 34.9189 152.929 34.9189H149.562C149.584 35.8331 149.638 38.0335 149.638 38.9051C149.638 39.3197 149.143 39.4473 148.949 39.4473C148.508 39.4473 148.508 39.1921 148.508 38.9689C148.508 38.6288 148.583 35.5567 148.594 34.9189H145.797C145.453 36.5878 144.216 38.4268 141.634 39.0858V38.9795C143.409 38.3205 144.56 36.6941 144.883 34.9083H143.14C142.903 34.9083 142.236 34.9083 141.602 35.0252L141.343 34.5044C142.15 34.5682 142.968 34.5894 143.355 34.5894H144.937C144.958 34.3343 145.076 33.2182 145.044 31.1773H143.85C143.527 31.1773 142.893 31.1879 142.312 31.2942L142.064 30.7733C142.957 30.8477 143.882 30.8584 144.065 30.8584H145.044C145.033 30.1887 144.98 28.3922 144.807 27.8607L146.131 28.2009C146.206 28.2222 146.324 28.2434 146.324 28.371C146.324 28.4454 146.249 28.5092 146.195 28.5623C146.12 28.6367 146.066 28.6792 145.937 28.7962C145.958 30.3375 145.98 30.4969 145.98 30.8584H148.648L148.616 30.9115ZM145.948 31.2198C145.948 32.0702 145.948 33.8453 145.829 34.6319H148.573C148.616 33.1225 148.626 32.7505 148.626 31.2198H145.948Z" fill="white"/>
<path d="M61.1782 16.6994L55.6166 9.09912C55.2078 9.12038 54.8635 9.12038 54.6053 9.12038C54.4978 9.12038 54.3902 9.12038 54.2611 9.12038C54.1428 9.12038 54.0137 9.12038 53.8846 9.09912V13.8188C53.8846 14.8392 53.9922 15.477 54.2288 15.7215C54.5408 16.0723 54.9926 16.253 55.6166 16.253H56.262V16.6994H49.2158V16.253H49.829C50.5282 16.253 51.0231 16.0298 51.3243 15.5833C51.4964 15.3388 51.5825 14.7436 51.5825 13.8188V3.32713C51.5825 2.30667 51.4641 1.66888 51.2382 1.4244C50.9263 1.07361 50.4529 0.892905 49.829 0.892905H49.2158V0.446452H55.2078C56.9505 0.446452 58.2414 0.57401 59.0697 0.818496C59.8981 1.07361 60.5973 1.53069 61.1782 2.211C61.7591 2.89131 62.0496 3.68855 62.0496 4.62397C62.0496 5.62317 61.7161 6.48419 61.0599 7.22827C60.4037 7.96173 59.3817 8.48259 57.994 8.79086L61.3934 13.4467C62.1679 14.5203 62.8349 15.2325 63.3943 15.5833C63.9537 15.9341 64.6744 16.1573 65.578 16.253V16.6994H61.1782ZM53.8953 8.34441C54.0459 8.34441 54.1858 8.34441 54.2934 8.34441C54.4009 8.34441 54.4978 8.34441 54.5731 8.34441C56.1437 8.34441 57.327 8.00425 58.1231 7.33457C58.9191 6.6649 59.3171 5.80388 59.3171 4.77279C59.3171 3.74169 58.9944 2.93383 58.349 2.29604C57.7035 1.65825 56.8537 1.33936 55.7994 1.33936C55.3261 1.33936 54.6914 1.41377 53.8953 1.56258V8.34441Z" fill="white"/>
<path d="M70.1608 1.33936V7.75977H73.7753C74.7112 7.75977 75.3352 7.62158 75.6579 7.3452C76.0774 6.97316 76.3141 6.33537 76.3571 5.39995H76.8089V11.055H76.3571C76.2388 10.2684 76.1312 9.75817 76.0129 9.53495C75.8623 9.25857 75.6256 9.03534 75.2921 8.8759C74.9586 8.71645 74.453 8.63141 73.7645 8.63141H70.15V13.9888C70.15 14.7117 70.1823 15.1475 70.2468 15.2963C70.3114 15.4558 70.4297 15.5727 70.5911 15.6683C70.7524 15.764 71.0644 15.8065 71.5162 15.8065H74.3024C75.2276 15.8065 75.9053 15.7428 76.3248 15.6152C76.7444 15.4876 77.1532 15.2325 77.5404 14.8605C78.0461 14.3609 78.5517 13.6168 79.0788 12.6176H79.5629L78.1429 16.6888H65.4705V16.2424H66.0514C66.4387 16.2424 66.8044 16.1467 67.1594 15.966C67.4176 15.8384 67.5897 15.6471 67.6865 15.392C67.7833 15.1369 67.8264 14.616 67.8264 13.8188V3.27398C67.8264 2.24289 67.7188 1.6051 67.5144 1.37125C67.224 1.05235 66.7399 0.892905 66.0621 0.892905H65.4812V0.446452H78.1536L78.3365 4.00744H77.8632C77.691 3.15706 77.5082 2.56179 77.3038 2.24289C77.0994 1.924 76.7874 1.67951 76.3894 1.50943C76.0667 1.39251 75.4965 1.32873 74.6789 1.32873H70.1715L70.1608 1.33936Z" fill="white"/>
<path d="M84.2854 0.446452L94.333 12.6282V3.26335C94.333 2.26415 94.2147 1.63699 93.9887 1.39251C93.6875 1.05235 93.2142 0.892905 92.5687 0.892905H91.9986V0.446452H97.7216V0.892905H97.1407C96.4415 0.892905 95.9574 1.1055 95.6562 1.52006C95.4733 1.77518 95.3872 2.35982 95.3872 3.27398V16.9652H94.9462L84.1026 3.87988V13.8825C84.1026 14.8817 84.2101 15.5089 84.4253 15.7534C84.7373 16.0935 85.2106 16.253 85.8453 16.253H86.4262V16.6994H80.7032V16.253H81.2733C81.9726 16.253 82.4782 16.0404 82.7686 15.6258C82.9515 15.3707 83.0376 14.7861 83.0376 13.8719V2.58305C82.5642 2.03029 82.1985 1.66888 81.951 1.48817C81.7036 1.30747 81.3379 1.14802 80.8645 0.999203C80.6279 0.924794 80.2729 0.892905 79.7995 0.892905V0.446452H84.2854Z" fill="white"/>
<path d="M108.329 11.257H101.96L100.841 13.8188C100.562 14.4459 100.433 14.9243 100.433 15.2325C100.433 15.477 100.551 15.7002 100.788 15.8809C101.024 16.0617 101.541 16.1892 102.337 16.2424V16.6888H97.1622V16.2424C97.8507 16.1254 98.2918 15.966 98.4962 15.7746C98.9049 15.392 99.3675 14.616 99.8624 13.4361L105.65 0.0744087H106.069L111.792 13.5955C112.255 14.6798 112.675 15.392 113.051 15.7109C113.428 16.0298 113.955 16.2211 114.622 16.253V16.6994H108.135V16.253C108.791 16.2211 109.232 16.1148 109.458 15.9341C109.684 15.7534 109.802 15.5302 109.802 15.2644C109.802 14.9136 109.641 14.3609 109.318 13.5955L108.329 11.257ZM107.984 10.3747L105.198 3.80547L102.337 10.3747H107.984Z" fill="white"/>
<path d="M121.689 16.253V16.6994H114.643V16.253H115.224C115.902 16.253 116.397 16.0617 116.709 15.6683C116.902 15.4132 116.999 14.7967 116.999 13.8188V3.32713C116.999 2.50864 116.945 1.95589 116.838 1.70077C116.752 1.4988 116.59 1.32873 116.343 1.19054C115.988 0.999203 115.611 0.903534 115.224 0.903534H114.643V0.457082H121.689V0.903534H121.098C120.431 0.903534 119.936 1.09487 119.635 1.48817C119.43 1.74329 119.334 2.35982 119.334 3.33776V13.8294C119.334 14.6479 119.387 15.2006 119.495 15.4558C119.581 15.6577 119.742 15.8278 120.001 15.966C120.345 16.1573 120.721 16.253 121.109 16.253H121.7H121.689Z" fill="white"/>
<path d="M143.753 0.0744087L144.173 5.19798H143.753C143.323 3.9224 142.774 2.95509 142.097 2.30667C141.118 1.37125 139.859 0.903534 138.321 0.903534C136.223 0.903534 134.631 1.72203 133.544 3.35902C132.63 4.7409 132.178 6.38852 132.178 8.29126C132.178 9.84321 132.479 11.257 133.092 12.5326C133.695 13.8081 134.491 14.7436 135.47 15.3388C136.449 15.9341 137.46 16.2317 138.493 16.2317C139.095 16.2317 139.687 16.1573 140.246 16.0085C140.816 15.8597 141.354 15.6365 141.881 15.3388V10.6404C141.881 9.82195 141.817 9.29046 141.698 9.04597C141.58 8.80149 141.376 8.59952 141.118 8.47196C140.859 8.34441 140.397 8.27 139.73 8.27V7.81291H146.098V8.27H145.797C145.162 8.27 144.732 8.48259 144.495 8.89716C144.334 9.19479 144.248 9.77943 144.248 10.6511V15.6258C143.323 16.1254 142.398 16.4868 141.494 16.7207C140.59 16.9546 139.579 17.0715 138.471 17.0715C135.298 17.0715 132.877 16.0617 131.231 14.0526C129.994 12.5432 129.381 10.7999 129.381 8.83338C129.381 7.39835 129.725 6.03774 130.425 4.71964C131.253 3.15706 132.382 1.96652 133.824 1.12676C135.029 0.435822 136.449 0.0850385 138.095 0.0850385C138.697 0.0850385 139.235 0.138188 139.73 0.233856C140.214 0.329524 140.913 0.542121 141.806 0.871645C142.258 1.04172 142.559 1.12676 142.72 1.12676C142.882 1.12676 143 1.05235 143.118 0.914164C143.237 0.775977 143.291 0.499601 143.323 0.0956684H143.775L143.753 0.0744087Z" fill="white"/>
<path d="M158.835 16.6994L153.274 9.09912C152.865 9.12038 152.521 9.12038 152.262 9.12038C152.155 9.12038 152.047 9.12038 151.918 9.12038C151.8 9.12038 151.671 9.12038 151.542 9.09912V13.8188C151.542 14.8392 151.649 15.477 151.886 15.7215C152.198 16.0723 152.65 16.253 153.274 16.253H153.919V16.6994H146.873V16.253H147.486C148.185 16.253 148.68 16.0298 148.981 15.5833C149.153 15.3388 149.24 14.7436 149.24 13.8188V3.32713C149.24 2.30667 149.121 1.66888 148.895 1.4244C148.583 1.07361 148.11 0.892905 147.486 0.892905H146.873V0.446452H152.865C154.608 0.446452 155.898 0.57401 156.727 0.818496C157.555 1.07361 158.254 1.53069 158.835 2.211C159.416 2.89131 159.707 3.68855 159.707 4.62397C159.707 5.62317 159.373 6.48419 158.717 7.22827C158.061 7.96173 157.039 8.48259 155.651 8.79086L159.05 13.4467C159.825 14.5203 160.492 15.2325 161.051 15.5833C161.611 15.9341 162.331 16.1573 163.235 16.253V16.6994H158.835ZM151.552 8.34441C151.703 8.34441 151.843 8.34441 151.95 8.34441C152.058 8.34441 152.155 8.34441 152.23 8.34441C153.801 8.34441 154.984 8.00425 155.78 7.33457C156.576 6.6649 156.974 5.80388 156.974 4.77279C156.974 3.74169 156.651 2.93383 156.006 2.29604C155.361 1.65825 154.511 1.33936 153.456 1.33936C152.983 1.33936 152.348 1.41377 151.552 1.56258V8.34441Z" fill="white"/>
<path d="M173.25 11.257H166.882L165.763 13.8188C165.483 14.4459 165.354 14.9243 165.354 15.2325C165.354 15.477 165.473 15.7002 165.709 15.8809C165.946 16.0617 166.462 16.1892 167.258 16.2424V16.6888H162.084V16.2424C162.773 16.1254 163.214 15.966 163.418 15.7746C163.827 15.392 164.289 14.616 164.784 13.4361L170.572 0.0744087H170.991L176.714 13.5955C177.177 14.6798 177.596 15.392 177.973 15.7109C178.349 16.0298 178.877 16.2211 179.544 16.253V16.6994H173.057V16.253C173.713 16.2211 174.154 16.1148 174.38 15.9341C174.606 15.7534 174.724 15.5302 174.724 15.2644C174.724 14.9136 174.563 14.3609 174.24 13.5955L173.25 11.257ZM172.906 10.3747L170.12 3.80547L167.258 10.3747H172.906Z" fill="white"/>
<path d="M183.212 0.446452L193.259 12.6282V3.26335C193.259 2.26415 193.141 1.63699 192.915 1.39251C192.614 1.05235 192.141 0.892905 191.495 0.892905H190.925V0.446452H196.648V0.892905H196.067C195.368 0.892905 194.884 1.1055 194.583 1.52006C194.4 1.77518 194.314 2.35982 194.314 3.27398V16.9652H193.873L183.029 3.87988V13.8825C183.029 14.8817 183.137 15.5089 183.352 15.7534C183.664 16.0935 184.137 16.253 184.772 16.253H185.353V16.6994H179.63V16.253H180.2C180.899 16.253 181.405 16.0404 181.695 15.6258C181.878 15.3707 181.964 14.7861 181.964 13.8719V2.58305C181.491 2.03029 181.125 1.66888 180.877 1.48817C180.63 1.30747 180.264 1.14802 179.791 0.999203C179.554 0.924794 179.199 0.892905 178.726 0.892905V0.446452H183.212Z" fill="white"/>
<path d="M197.433 16.6994V16.253H198.047C198.746 16.253 199.23 16.0298 199.531 15.5939C199.714 15.3282 199.8 14.7436 199.8 13.8188V3.32713C199.8 2.3173 199.682 1.67951 199.456 1.4244C199.144 1.07361 198.671 0.892905 198.047 0.892905H197.433V0.446452H204.125C206.577 0.446452 208.449 0.722828 209.729 1.27558C211.009 1.82833 212.042 2.74249 212.817 4.0287C213.602 5.31491 213.989 6.80308 213.989 8.48259C213.989 10.7467 213.29 12.6282 211.902 14.1483C210.342 15.8384 207.965 16.6888 204.77 16.6888H197.423L197.433 16.6994ZM202.124 15.5302C203.146 15.7534 204.006 15.8703 204.705 15.8703C206.577 15.8703 208.137 15.2219 209.374 13.9144C210.611 12.6176 211.225 10.8424 211.225 8.62078C211.225 6.39915 210.611 4.60271 209.374 3.3165C208.137 2.01966 206.545 1.37125 204.609 1.37125C203.877 1.37125 203.049 1.48817 202.124 1.72203V15.5408V15.5302Z" fill="white"/>
<path d="M41.0723 40H0V0H41.0723V40ZM1.00045 39.0114H40.0719V0.988573H1.00045V39.0114Z" fill="white"/>
<path d="M1.91484 24.7356C1.62439 24.1084 1.91484 23.3643 2.54954 23.0773C2.54954 23.0773 2.58181 23.0561 2.60333 23.0454C2.65712 23.0242 2.73242 22.9817 2.82924 22.9391C3.02287 22.8435 3.30257 22.6947 3.6253 22.514C4.27075 22.1419 5.10984 21.6104 5.84135 21.0045C6.19635 20.6963 6.6159 20.3561 6.98165 20.0159C7.34741 19.6758 7.64862 19.325 7.77771 19.1124C8.13271 18.5278 8.39089 17.6774 8.51998 16.9546C8.65983 16.253 8.70286 15.679 8.70286 15.5514V9.33298C8.70286 8.64204 9.27301 8.07866 9.97225 8.07866C10.6715 8.07866 11.2416 8.64204 11.2416 9.33298V15.6365C11.2416 15.6365 11.2094 16.3487 11.0373 17.2522C10.8651 18.1664 10.5747 19.325 9.9615 20.3774C9.61725 20.9514 9.16544 21.4085 8.72438 21.823C8.27256 22.2376 7.82074 22.6096 7.48726 22.8966C5.67999 24.4273 3.63605 25.3309 3.58227 25.3521C3.41014 25.4265 3.23802 25.469 3.0659 25.469C2.58181 25.469 2.11924 25.1927 1.90409 24.725" fill="white"/>
<path d="M13.7697 17.2203C13.4254 16.9864 13.221 16.6038 13.221 16.1892V9.27983C13.221 8.58889 13.7912 8.02551 14.4904 8.02551C15.1897 8.02551 15.7598 8.58889 15.7598 9.27983V13.9144C16.2869 13.4892 16.9216 12.9152 17.6101 12.1499C18.8257 10.7999 19.4927 9.18416 19.5142 9.10975C19.7616 8.46133 20.4931 8.14244 21.1493 8.38692C21.8056 8.63141 22.1283 9.35424 21.8809 10.0027C21.8486 10.0771 21.1171 12.0011 19.5034 13.8081C17.0615 16.54 15.0928 17.3053 14.9207 17.3691C14.7809 17.4223 14.6303 17.4435 14.4797 17.4435C14.2215 17.4435 13.9741 17.3691 13.7589 17.2203" fill="white"/>
<path d="M38.8133 20.9195C38.8133 20.9195 38.6196 20.8344 38.2861 20.6856C37.2857 20.2604 35.0804 19.2825 33.5313 18.5065C32.6492 18.0601 31.0786 17.2735 29.7446 16.5931C29.1422 16.2849 28.5828 16.0085 28.1418 15.7853C28.9486 14.616 29.6586 13.3936 30.2287 12.3412C31.0571 10.8318 31.5734 9.69439 31.5734 9.67313C31.7455 9.29046 31.7133 8.83338 31.4766 8.48259C31.2399 8.12118 30.8419 7.90858 30.4116 7.90858H28.3139V6.2397C28.3139 5.54876 27.7437 4.98538 27.0445 4.98538C26.3452 4.98538 25.7751 5.54876 25.7751 6.2397V7.90858H23.9678C23.2686 7.90858 22.6984 8.47196 22.6984 9.1629C22.6984 9.85384 23.2686 10.4172 23.9678 10.4172H28.3784C28.2171 10.7361 28.0342 11.0763 27.8298 11.4271C27.066 12.8089 26.0548 14.4566 25.0221 15.7215C23.1933 17.9431 21.1063 19.612 19.4819 20.6963C18.6751 21.2384 17.9759 21.6423 17.4918 21.9081C17.2444 22.0462 17.0615 22.1419 16.9324 22.2057C16.8678 22.2376 16.8248 22.2588 16.7925 22.2695C16.7818 22.2695 16.771 22.2801 16.7603 22.2801C16.1256 22.5777 15.8459 23.3218 16.1363 23.949C16.3515 24.4061 16.8141 24.6824 17.2874 24.6824C17.4595 24.6824 17.6424 24.6399 17.8145 24.5655C17.9006 24.523 22.053 22.6415 25.8719 18.5703V24.9269C25.8719 25.6179 26.4421 26.1812 27.1413 26.1812C27.8405 26.1812 28.4107 25.6179 28.4107 24.9269V18.7297C29.7877 19.4207 31.4443 20.2604 32.3587 20.7175C34.5533 21.823 37.7805 23.1943 37.7913 23.2049C37.9526 23.2793 38.1248 23.3006 38.2969 23.3006C38.7917 23.3006 39.2543 23.0242 39.4587 22.5458C39.7384 21.9081 39.4372 21.164 38.7917 20.8982" fill="white"/>
<path d="M28.4322 28.456C28.4322 28.7855 28.1633 29.0619 27.819 29.0619C27.4748 29.0619 27.2059 28.7855 27.2059 28.456C27.2059 28.1265 27.4855 27.8501 27.819 27.8501C28.1525 27.8501 28.4322 28.1265 28.4322 28.456Z" fill="white"/>
<path d="M36.608 28.5623C36.5972 28.6686 35.7904 29.3489 35.3601 29.5722C34.8867 29.8166 34.4134 29.9548 33.8755 29.9867C33.9724 30.7308 33.8648 31.4324 33.6496 31.9745C33.1763 33.165 31.8531 34.2386 30.8204 34.6426C29.3896 35.1953 28.1418 35.1315 27.2059 34.7595C26.2699 34.3875 25.7106 33.5158 25.5922 33.1863C25.5169 32.9843 25.5062 32.5379 25.5062 32.5379C25.5062 32.5379 24.9037 32.7505 24.2798 32.7398C23.6559 32.7292 23.6021 32.4103 23.6021 32.4103C23.6021 32.4103 23.1072 32.8993 22.3434 32.6761C21.9669 32.5698 21.9669 32.1339 21.9669 32.1339C21.9669 32.1339 21.6657 32.3997 21.3968 32.5591C21.2031 32.6761 20.7513 32.7717 20.4286 32.6442C20.1919 32.5591 20.3318 32.1765 20.3318 32.1765C20.3318 32.1765 20.9557 30.4119 20.9772 30.3056C20.9987 30.2312 21.0418 30.1143 20.8159 30.0292C20.59 29.9442 20.1166 30.008 20.1166 30.008C20.1166 30.008 20.1489 30.0824 20.0951 30.2206C20.0413 30.3694 19.923 30.6777 19.923 30.6777L19.2453 32.3997C19.2453 32.3997 19.0839 32.6442 18.6106 32.6017C18.2986 32.5804 18.4169 32.2615 18.4169 32.2615C18.4169 32.2615 19.1484 30.4438 19.2022 30.2843C19.2668 30.1143 19.1377 29.8698 19.0194 29.8379C18.901 29.806 18.7612 29.8379 18.546 30.0718C18.3309 30.3056 17.3089 31.7513 16.9431 32.1127C16.5774 32.4741 15.8566 32.7398 15.3618 32.4422C14.7378 32.0702 15.3403 30.5926 15.9642 29.9229C15.9642 29.9229 16.2116 29.6678 16.5021 29.4446C16.728 29.2745 17.1153 29.1044 17.4488 29.0832C17.7177 29.0725 18.0619 29.2001 18.0619 29.6891C18.0619 30.1462 17.6101 30.5182 17.1045 30.7308C16.6742 30.9115 16.1148 31.0603 16.1148 31.0603C16.1148 31.0603 15.7921 31.5493 15.8997 31.73C15.9857 31.8788 16.3192 31.7832 16.5236 31.6556C16.6957 31.5599 17.2766 31.156 17.5241 30.9009C17.7607 30.6458 18.148 30.178 18.3309 29.9973C18.5138 29.8166 18.9441 29.4127 19.4174 29.4552C19.8047 29.4871 20.0521 29.8592 20.0521 29.8592C20.0521 29.8592 20.4286 29.7103 20.6868 29.5722C20.945 29.434 21.343 29.3596 21.6334 29.4871C21.9454 29.6359 21.8056 30.2206 21.741 30.3906C21.6657 30.6032 21.2462 31.7938 21.2031 31.9639C21.1601 32.1339 21.1386 32.1977 21.386 32.1871C21.6334 32.1765 21.9669 31.8682 21.9669 31.8682C21.9669 31.8682 22.096 31.2942 22.3327 30.8902C22.4725 30.6458 22.763 30.178 22.9674 29.9973C23.3331 29.6784 23.7096 29.604 23.9463 29.5828C24.3228 29.5403 24.9037 29.8166 24.9037 29.8166C24.9037 29.8166 25.2157 29.519 25.4739 29.6678C25.7321 29.8166 25.5384 30.1036 25.5384 30.1036C25.5384 30.1036 24.624 31.8788 24.6133 32.017C24.6025 32.1552 24.7209 32.2828 25.0543 32.2934C25.3878 32.3146 25.4739 32.2083 25.4739 32.2083C25.4739 32.2083 25.5599 32.1552 25.646 31.9851C25.689 31.9001 25.7859 31.6981 25.7859 31.6981L26.8724 29.721C26.8724 29.721 27.0875 29.2745 27.3887 29.434C27.6039 29.5509 27.4855 29.9017 27.4855 29.9017C27.4855 29.9017 26.6787 31.3367 26.5927 31.5599C26.5066 31.7832 26.2269 32.1871 26.2592 32.7824C26.2807 33.165 26.4959 33.8453 27.0445 34.2812C27.3457 34.5256 27.7975 34.6532 28.2171 34.717C28.9808 34.8552 30.0566 34.6319 30.8204 34.2812C31.2507 34.0898 31.8961 33.6434 32.1651 33.3776C32.8428 32.7079 33.0257 32.5166 33.3054 31.3473C33.413 30.8902 33.413 30.4438 33.3484 30.0186C33.3054 30.0186 33.2516 30.0186 33.2086 30.0186C32.7998 29.9867 31.3475 29.5934 30.4439 29.5722C29.9813 29.5615 29.0346 29.9123 28.9378 29.9229C28.841 29.9442 28.841 29.891 28.8625 29.806C28.884 29.7316 30.1104 29.0832 31.2722 29.1151C31.7348 29.1257 32.4663 29.3596 33.2193 29.4233C33.0902 29.0088 32.9074 28.6367 32.6922 28.3391C32.1974 27.6375 31.1969 26.9147 30.0458 26.4576C28.7119 25.9261 27.4963 26.2344 26.754 26.2982C26.0118 26.3619 23.8387 26.8403 22.4295 27.1804C21.0525 27.4993 19.0624 27.8395 18.0512 27.9139C17.04 27.9883 15.5769 27.7226 15.2219 27.68C14.8562 27.6375 14.8024 27.5525 14.8024 27.5525C14.8024 27.5525 14.7594 27.3824 14.8239 27.2974C14.8885 27.2017 15.0391 27.2974 15.2542 27.2974C15.4694 27.308 16.9754 27.5206 17.7284 27.4462C18.4815 27.3718 19.4066 27.308 20.6653 26.936C21.6872 26.6277 22.2789 26.4789 23.516 26.1281C24.7101 25.7986 27.7975 25.384 29.4004 25.7879C30.4761 26.0537 31.8101 26.6277 32.9611 27.967C33.3699 28.4348 33.6174 28.9556 33.768 29.4552C33.8648 29.4552 33.9508 29.4552 34.0584 29.4552C34.4672 29.4446 34.8975 29.3064 35.2202 29.1682C35.5322 29.03 36.3498 28.5411 36.4573 28.4985C36.5649 28.456 36.6295 28.4985 36.6187 28.5942M16.6957 30.6245C16.8678 30.5501 17.2121 30.3906 17.3842 30.1993C17.481 30.0718 17.5563 29.891 17.4165 29.7529C17.2766 29.6147 16.9431 29.7954 16.7172 30.0718C16.4591 30.3906 16.2331 30.7946 16.2331 30.7946C16.2331 30.7946 16.4268 30.7414 16.7065 30.6245H16.6957ZM24.5057 30.2418C24.4304 30.093 24.1722 29.9655 23.8925 30.0186C23.43 30.093 23.0642 30.6458 22.8921 30.9434C22.7522 31.1879 22.6124 31.6024 22.5909 31.7513C22.5586 31.9958 22.6447 32.2296 22.9028 32.2615C23.3762 32.3359 23.6128 32.1552 23.6128 32.1552L24.5272 30.4225C24.5272 30.4225 24.538 30.3375 24.4949 30.2418H24.5057Z" fill="white"/>
<path d="M23.7634 30.667C23.2471 29.7847 22.72 29.3702 21.4936 28.9662C20.7943 28.7324 19.4066 28.5942 18.2986 28.9556C17.7069 29.147 17.0615 29.5403 17.0615 29.5403L17.3304 29.5721C17.3304 29.5721 18.1265 28.9025 20.0844 29.0194C21.2031 29.0832 21.8486 29.3489 22.5478 29.8273C23.43 30.4438 23.6236 31.4005 23.7312 32.2934C23.7742 32.7186 23.6989 34.2386 22.3434 35.1741C21.4398 35.8012 20.1704 36.0457 18.9441 35.9819C17.6424 35.9181 16.5021 35.2591 15.7598 34.6319C15.0068 33.9942 14.4259 32.8993 14.4151 31.6131C14.4151 30.9221 14.641 29.434 14.6625 29.4233C15.4048 29.2214 16.1148 28.8706 17.04 28.3178C17.9006 27.7863 18.6321 26.8403 18.7504 25.9474C18.9118 24.7568 18.4277 24.1403 18.0081 23.8746C16.9862 23.2049 14.9638 22.6521 12.7369 22.9073C11.7365 23.0242 10.381 23.3324 9.36983 23.9702C6.13181 26.0112 6.25014 28.0096 6.50832 28.7005C5.6262 29.9229 4.95923 31.5174 5.47559 33.2501C6.06726 35.2272 7.53029 36.067 8.38013 36.3646C9.45589 36.7473 10.1013 36.8004 11.0372 36.7792C12.0269 36.7579 12.9413 36.5241 13.5868 36.237C14.1569 35.9926 14.4904 35.78 15.3725 35.1847C16.018 35.6843 17.2013 36.3008 18.8903 36.3646C21.0525 36.4496 22.2789 35.7481 22.8921 35.2166C23.7204 34.5044 23.9893 33.5796 24.0862 32.9524C24.2045 32.1765 24.0001 31.1135 23.7527 30.6776M18.2878 26.245C18.1588 26.8615 17.793 27.3718 17.4165 27.68C16.8356 28.1584 16.3838 28.3816 16.0825 28.5304C15.265 28.9344 14.6518 29.1044 14.6518 29.1044C14.6518 29.1044 14.7056 28.7749 14.3721 28.4773C14.5335 28.2328 14.7056 27.9989 14.8885 27.7757C15.351 27.2336 15.9212 26.734 16.5451 26.2344C17.083 25.8092 18.2341 25.2033 18.3416 25.671C18.3416 25.873 18.3416 26.0643 18.2878 26.2556V26.245ZM10.9189 36.4496C9.38059 36.3965 8.53074 36.1201 7.67014 35.6099C7.32589 35.3973 6.90635 35.0359 6.55135 34.5256C6.14256 33.9304 5.80908 33.1544 5.72302 32.4316C5.57241 31.1666 5.94893 30.1993 6.64817 29.0194C7.00317 29.5084 7.92832 30.1355 9.34831 30.008C10.8006 29.8698 12.3604 29.1151 12.8553 27.9777C13.3824 26.7871 12.3389 25.8623 11.1233 25.9899C9.6818 26.1387 8.05741 26.9466 6.97089 28.1265C6.88483 27.8607 6.8418 27.2974 7.01392 26.8934C7.28286 26.245 7.74544 25.6816 8.13271 25.3096C9.07938 24.4273 9.77862 23.9596 11.3385 23.4919C13.6513 22.7903 16.2439 23.1411 17.5133 24.0446C17.9221 24.3316 18.1587 24.7356 18.2663 25.1608C17.7069 25.2139 16.7388 25.6391 15.5985 26.5533C15.1789 26.8934 14.7271 27.3399 14.5227 27.5844C14.3613 27.7863 14.1892 28.0096 14.0171 28.2541C13.5653 28.0627 13.0274 28.0946 12.8122 28.3603C12.6616 28.5517 12.6616 28.9981 13.1995 29.317C12.3282 30.3269 11.2309 31.1454 10.1659 31.6343C8.96104 32.1977 7.5518 32.2828 7.23983 32.2828C6.92786 32.2828 6.54059 32.3784 6.58362 32.6654C6.62665 33.0481 8.13271 33.0162 8.90725 32.8993C9.8324 32.7505 10.9404 32.2402 11.5213 31.7513C11.9947 31.358 12.8338 30.6351 13.6836 29.4977C13.8557 29.5296 14.0601 29.519 14.2645 29.4977C14.2645 29.5084 14.2645 29.5296 14.2645 29.5403C14.2968 29.9017 14.0278 30.2525 13.845 31.2091C13.4577 33.1544 14.4259 34.3449 15.0175 34.9189C14.4044 35.4717 12.9521 36.5347 10.9082 36.4709L10.9189 36.4496ZM7.07847 28.3603C7.80998 27.4356 9.06862 26.936 9.7571 26.6702C10.9082 26.2238 11.6935 26.2025 12.1022 26.5214C12.4357 26.7871 13.1135 27.882 10.8436 28.8812C9.30528 29.5615 8.13271 29.2958 7.56256 28.8493C7.25059 28.6048 7.11074 28.4029 7.07847 28.3497V28.3603Z" fill="white"/>
<path d="M50.7004 21.1852L52.1849 22.6415C52.4323 22.886 52.6367 23.0454 52.8088 23.1305C52.9809 23.2155 53.1531 23.2687 53.3252 23.2793V23.3856H51.4103V23.2793C51.5287 23.2793 51.604 23.258 51.6578 23.2261C51.7116 23.1836 51.7331 23.1411 51.7331 23.0986C51.7331 23.0561 51.7331 23.0136 51.7008 22.971C51.6793 22.9391 51.6255 22.8647 51.5179 22.7584L50.1302 21.3978V22.6734C50.1302 22.8754 50.141 23.0029 50.1732 23.0667C50.1947 23.1199 50.2378 23.1624 50.3023 23.1943C50.3884 23.2368 50.4744 23.2687 50.5713 23.2687H50.7111V23.375H49.0007V23.2687H49.1405C49.3019 23.2687 49.431 23.2261 49.5063 23.1305C49.5493 23.0667 49.5816 22.9179 49.5816 22.684V20.1222C49.5816 19.9203 49.5708 19.7927 49.5385 19.7183C49.517 19.6758 49.474 19.6333 49.4202 19.5908C49.3341 19.5482 49.2373 19.5163 49.1513 19.5163H49.0114V19.41H50.7219V19.5163H50.582C50.4852 19.5163 50.3991 19.5376 50.3131 19.5801C50.2485 19.612 50.2055 19.6545 50.184 19.7183C50.1625 19.7821 50.1517 19.9096 50.1517 20.101V21.3128C50.1517 21.3128 50.3238 21.1533 50.5605 20.9407C51.1522 20.4092 51.5072 20.0585 51.6255 19.8778C51.6793 19.8033 51.7008 19.7289 51.7008 19.6758C51.7008 19.6333 51.6793 19.5907 51.6363 19.5589C51.5932 19.527 51.5287 19.5057 51.4211 19.5057H51.3243V19.3994H52.7981V19.5057C52.712 19.5057 52.6367 19.5163 52.5614 19.5376C52.4861 19.5589 52.4 19.6014 52.3032 19.6652C52.1956 19.7289 52.0773 19.8246 51.9267 19.9628C51.8837 20.0053 51.6793 20.2073 51.3243 20.5581L50.7111 21.164L50.7004 21.1852Z" fill="white"/>
<path d="M58.1768 22.0569H56.617L56.3481 22.684C56.2835 22.8435 56.2512 22.9498 56.2512 23.0348C56.2512 23.0986 56.2835 23.1517 56.3373 23.1943C56.3911 23.2368 56.5202 23.2687 56.7138 23.2793V23.3856H55.4444V23.2793C55.6166 23.2474 55.7241 23.2155 55.7672 23.1624C55.864 23.0667 55.9823 22.8754 56.1006 22.5884L57.5099 19.325H57.6175L59.0159 22.6309C59.1235 22.8966 59.2311 23.0667 59.3279 23.1517C59.4247 23.2262 59.5431 23.2793 59.7152 23.2793V23.3856H58.1338V23.2793C58.2952 23.2793 58.4028 23.2474 58.4565 23.2049C58.5103 23.1624 58.5426 23.1092 58.5426 23.0454C58.5426 22.9604 58.4996 22.8222 58.4243 22.6415L58.1768 22.0675V22.0569ZM58.0908 21.8443L57.4131 20.2392L56.7138 21.8443H58.0908Z" fill="white"/>
<path d="M64.384 23.3856L62.8349 20.0478V22.7053C62.8349 22.9498 62.8564 23.0986 62.9102 23.1624C62.9855 23.2474 63.1038 23.2899 63.2544 23.2899H63.3943V23.3962H61.9958V23.2899H62.1356C62.3077 23.2899 62.4261 23.2368 62.5014 23.1411C62.5444 23.0773 62.5659 22.9391 62.5659 22.7159V20.1222C62.5659 19.9415 62.5444 19.8246 62.5014 19.7396C62.4691 19.6864 62.4261 19.6333 62.3508 19.6014C62.2755 19.5589 62.1571 19.5482 61.9958 19.5482V19.4419H63.1361L64.5883 22.5458L66.0191 19.4419H67.1594V19.5482H67.0196C66.8474 19.5482 66.7291 19.6014 66.6538 19.6971C66.6108 19.7608 66.5893 19.899 66.5893 20.1222V22.7159C66.5893 22.9604 66.6215 23.1092 66.6753 23.173C66.7506 23.258 66.8689 23.3006 67.0196 23.3006H67.1594V23.4069H65.449V23.3006H65.5888C65.7609 23.3006 65.8793 23.2474 65.9546 23.1517C65.9976 23.088 66.0191 22.9498 66.0191 22.7265V20.0691L64.47 23.4069H64.3732L64.384 23.3856Z" fill="white"/>
<path d="M71.3011 23.2793V23.3856H69.5799V23.2793H69.7197C69.8811 23.2793 70.0102 23.2368 70.0855 23.1411C70.1285 23.0773 70.1608 22.9285 70.1608 22.6947V20.1329C70.1608 19.9309 70.15 19.8033 70.1177 19.7396C70.0962 19.6864 70.0532 19.6439 69.9994 19.612C69.9133 19.5695 69.8165 19.5376 69.7305 19.5376H69.5906V19.4313H71.3118V19.5376H71.172C71.0106 19.5376 70.8923 19.5801 70.817 19.6864C70.7632 19.7502 70.7417 19.899 70.7417 20.1329V22.6947C70.7417 22.8966 70.7524 23.0242 70.7847 23.088C70.8062 23.1411 70.8492 23.1836 70.9138 23.2155C70.9998 23.258 71.0859 23.2899 71.1827 23.2899H71.3226L71.3011 23.2793Z" fill="white"/>
<path d="M76.3464 19.325V20.6963H76.2388C76.2065 20.4305 76.142 20.2179 76.0452 20.0691C75.9591 19.9096 75.8192 19.7927 75.6579 19.6971C75.4965 19.6014 75.3136 19.5589 75.1307 19.5589C74.9264 19.5589 74.7542 19.6226 74.6252 19.7396C74.4961 19.8671 74.4208 20.0053 74.4208 20.1648C74.4208 20.2817 74.4638 20.3986 74.5499 20.4943C74.6682 20.6431 74.9586 20.8344 75.4212 21.0789C75.7977 21.2809 76.0559 21.4297 76.185 21.536C76.3248 21.6423 76.4324 21.7699 76.497 21.9081C76.5723 22.0569 76.6045 22.2057 76.6045 22.3651C76.6045 22.6628 76.4862 22.9285 76.2495 23.1411C76.0129 23.3537 75.7117 23.4706 75.3351 23.4706C75.2168 23.4706 75.1092 23.4706 75.0017 23.4494C74.9371 23.4494 74.8188 23.4069 74.6252 23.3431C74.4315 23.2793 74.3132 23.2474 74.2594 23.2474C74.2056 23.2474 74.1733 23.258 74.1411 23.2899C74.1088 23.3218 74.0873 23.375 74.0765 23.4706H73.9689V22.11H74.0765C74.1303 22.397 74.1948 22.6096 74.2809 22.7478C74.367 22.886 74.4961 23.0029 74.6789 23.0986C74.8618 23.1943 75.0555 23.2368 75.2706 23.2368C75.518 23.2368 75.7117 23.173 75.8515 23.0454C75.9914 22.9179 76.0667 22.7691 76.0667 22.5884C76.0667 22.4927 76.0344 22.397 75.9806 22.2907C75.9268 22.1951 75.8408 22.0994 75.7224 22.0143C75.6471 21.9506 75.432 21.8336 75.0877 21.6423C74.7435 21.451 74.4961 21.3022 74.3562 21.1852C74.2164 21.0683 74.098 20.9514 74.0227 20.8132C73.9474 20.675 73.9151 20.5262 73.9151 20.3667C73.9151 20.0797 74.0227 19.8352 74.2486 19.6333C74.4745 19.4313 74.7542 19.325 75.0985 19.325C75.3136 19.325 75.5395 19.3782 75.7762 19.4845C75.8838 19.5376 75.9698 19.5589 76.0129 19.5589C76.0667 19.5589 76.1097 19.5482 76.142 19.5163C76.1742 19.4845 76.1957 19.4207 76.2173 19.3356H76.3248L76.3464 19.325Z" fill="white"/>
<path d="M80.3159 21.2596H82.1877V20.1222C82.1877 19.9203 82.1769 19.7821 82.1447 19.7183C82.1232 19.6652 82.0801 19.6226 82.0156 19.5908C81.9295 19.5482 81.8435 19.5163 81.7466 19.5163H81.6068V19.41H83.328V19.5163H83.1882C83.0913 19.5163 83.0053 19.5376 82.9192 19.5801C82.8547 19.612 82.8116 19.6545 82.7901 19.7183C82.7686 19.7821 82.7579 19.9096 82.7579 20.101V22.6628C82.7579 22.8647 82.7686 22.9923 82.8009 23.0561C82.8224 23.1092 82.8654 23.1517 82.9192 23.1836C83.0053 23.2261 83.1021 23.258 83.1882 23.258H83.328V23.3643H81.6068V23.258H81.7466C81.908 23.258 82.0263 23.2155 82.1016 23.1199C82.1554 23.0561 82.1769 22.9073 82.1769 22.6734V21.4616H80.3051V22.6734C80.3051 22.8754 80.3159 23.0029 80.3482 23.0667C80.3697 23.1199 80.4127 23.1624 80.4773 23.1943C80.5633 23.2368 80.6494 23.2687 80.7462 23.2687H80.886V23.375H79.1648V23.2687H79.3047C79.466 23.2687 79.5951 23.2261 79.6704 23.1305C79.7135 23.0667 79.7457 22.9179 79.7457 22.684V20.1222C79.7457 19.9203 79.735 19.7821 79.7027 19.7183C79.6812 19.6652 79.6382 19.6226 79.5844 19.5908C79.4983 19.5482 79.4015 19.5163 79.3154 19.5163H79.1756V19.41H80.8968V19.5163H80.757C80.6601 19.5163 80.5741 19.5376 80.488 19.5801C80.4235 19.612 80.3804 19.6545 80.3589 19.7183C80.3374 19.7821 80.3267 19.9096 80.3267 20.101V21.2384L80.3159 21.2596Z" fill="white"/>
<path d="M88.3518 22.0569H86.7919L86.523 22.684C86.4585 22.8435 86.4262 22.9498 86.4262 23.0348C86.4262 23.0986 86.4585 23.1517 86.5122 23.1943C86.566 23.2368 86.6951 23.2687 86.8888 23.2793V23.3856H85.6194V23.2793C85.7915 23.2474 85.8991 23.2155 85.9421 23.1624C86.0389 23.0667 86.1572 22.8754 86.2756 22.5884L87.6848 19.325H87.7924L89.1909 22.6309C89.2985 22.8966 89.406 23.0667 89.5028 23.1517C89.5997 23.2262 89.718 23.2793 89.8901 23.2793V23.3856H88.3088V23.2793C88.4701 23.2793 88.5777 23.2474 88.6315 23.2049C88.6853 23.1624 88.7175 23.1092 88.7175 23.0454C88.7175 22.9604 88.6745 22.8222 88.5992 22.6415L88.3518 22.0675V22.0569ZM88.2657 21.8443L87.588 20.2392L86.8888 21.8443H88.2657Z" fill="white"/>
<path d="M93.8919 21.1852L95.3765 22.6415C95.6239 22.886 95.8283 23.0454 96.0004 23.1305C96.1725 23.2155 96.3447 23.2687 96.5168 23.2793V23.3856H94.6019V23.2793C94.7203 23.2793 94.7956 23.258 94.8493 23.2261C94.9031 23.1836 94.9247 23.1411 94.9247 23.0986C94.9247 23.0561 94.9247 23.0136 94.8924 22.971C94.8709 22.9391 94.8171 22.8647 94.7095 22.7584L93.3218 21.3978V22.6734C93.3218 22.8754 93.3325 23.0029 93.3648 23.0667C93.3863 23.1199 93.4294 23.1624 93.4939 23.1943C93.58 23.2368 93.666 23.2687 93.7628 23.2687H93.9027V23.375H92.1922V23.2687H92.3321C92.4934 23.2687 92.6225 23.2261 92.6978 23.1305C92.7409 23.0667 92.7731 22.9179 92.7731 22.684V20.1222C92.7731 19.9203 92.7624 19.7927 92.7301 19.7183C92.7086 19.6758 92.6656 19.6333 92.6118 19.5908C92.5257 19.5482 92.4289 19.5163 92.3428 19.5163H92.203V19.41H93.9134V19.5163H93.7736C93.6768 19.5163 93.5907 19.5376 93.5047 19.5801C93.4401 19.612 93.3971 19.6545 93.3756 19.7183C93.354 19.7821 93.3433 19.9096 93.3433 20.101V21.3128C93.3433 21.3128 93.5154 21.1533 93.7521 20.9407C94.3438 20.4092 94.6987 20.0585 94.8171 19.8778C94.8709 19.8033 94.8924 19.7289 94.8924 19.6758C94.8924 19.6333 94.8709 19.5907 94.8278 19.5589C94.7848 19.527 94.7203 19.5057 94.6127 19.5057H94.5159V19.3994H95.9897V19.5057C95.9036 19.5057 95.8283 19.5163 95.753 19.5376C95.6777 19.5589 95.5916 19.6014 95.4948 19.6652C95.3872 19.7289 95.2689 19.8246 95.1183 19.9628C95.0753 20.0053 94.8709 20.2073 94.5159 20.5581L93.9027 21.164L93.8919 21.1852Z" fill="white"/>
<path d="M101.487 19.527V19.4207H102.907V19.527H102.756C102.595 19.527 102.476 19.5908 102.39 19.7183C102.347 19.7821 102.326 19.9203 102.326 20.1435V21.7486C102.326 22.1419 102.283 22.4608 102.208 22.6734C102.132 22.8966 101.971 23.0773 101.734 23.2368C101.498 23.3962 101.186 23.4706 100.777 23.4706C100.336 23.4706 100.002 23.3962 99.7763 23.2474C99.5504 23.0986 99.389 22.8966 99.2922 22.6415C99.2277 22.4714 99.1954 22.1419 99.1954 21.6636V20.1116C99.1954 19.8671 99.1631 19.7077 99.0986 19.6333C99.034 19.5589 98.9157 19.5163 98.7651 19.5163H98.6145V19.41H100.346V19.5163H100.196C100.034 19.5163 99.9162 19.5695 99.8409 19.6758C99.7871 19.7502 99.7655 19.8884 99.7655 20.1116V21.8443C99.7655 22.0037 99.7763 22.1738 99.8086 22.3758C99.8409 22.5777 99.8839 22.7265 99.9592 22.8435C100.034 22.9498 100.142 23.0454 100.282 23.1199C100.422 23.1943 100.594 23.2261 100.798 23.2261C101.056 23.2261 101.293 23.173 101.508 23.0561C101.723 22.9391 101.853 22.801 101.939 22.6203C102.014 22.4395 102.057 22.1419 102.057 21.7273V20.1222C102.057 19.8778 102.025 19.7183 101.971 19.6545C101.896 19.5695 101.777 19.527 101.627 19.527H101.476H101.487Z" fill="white"/>
<path d="M105.693 19.527V19.4207H107.414V19.527H107.274C107.113 19.527 106.995 19.5695 106.919 19.6758C106.876 19.7396 106.844 19.8884 106.844 20.1222V22.0675C106.844 22.3651 106.812 22.6096 106.747 22.7903C106.683 22.971 106.564 23.1411 106.403 23.2793C106.242 23.4175 106.048 23.4813 105.811 23.4813C105.628 23.4813 105.478 23.4387 105.37 23.3431C105.263 23.2474 105.209 23.1517 105.209 23.0348C105.209 22.9391 105.23 22.8647 105.284 22.8222C105.349 22.7584 105.424 22.7265 105.51 22.7265C105.575 22.7265 105.628 22.7478 105.682 22.7903C105.736 22.8328 105.801 22.9391 105.876 23.1199C105.919 23.2261 105.983 23.2793 106.048 23.2793C106.102 23.2793 106.156 23.2474 106.199 23.1836C106.242 23.1199 106.263 23.0029 106.263 22.8435V20.1329C106.263 19.9309 106.252 19.8033 106.22 19.7396C106.199 19.6864 106.156 19.6439 106.091 19.612C106.005 19.5695 105.919 19.5376 105.822 19.5376H105.682L105.693 19.527Z" fill="white"/>
<path d="M111.448 23.2793V23.3856H109.727V23.2793H109.867C110.028 23.2793 110.157 23.2368 110.233 23.1411C110.276 23.0773 110.308 22.9285 110.308 22.6947V20.1329C110.308 19.9309 110.297 19.8033 110.265 19.7396C110.243 19.6864 110.2 19.6439 110.147 19.612C110.061 19.5695 109.964 19.5376 109.878 19.5376H109.738V19.4313H111.459V19.5376H111.319C111.158 19.5376 111.039 19.5801 110.964 19.6864C110.91 19.7502 110.889 19.899 110.889 20.1329V22.6947C110.889 22.8966 110.9 23.0242 110.932 23.088C110.953 23.1411 110.996 23.1836 111.061 23.2155C111.147 23.258 111.233 23.2899 111.33 23.2899H111.47L111.448 23.2793Z" fill="white"/>
</svg>
