<svg width="339" height="67" viewBox="0 0 339 67" fill="none" xmlns="http://www.w3.org/2000/svg">
<path d="M122.012 10.016C122.044 9.96267 122.092 9.89333 122.156 9.808C122.231 9.712 122.289 9.64267 122.332 9.6C122.375 9.54667 122.417 9.52 122.46 9.52C122.524 9.52 122.663 9.60533 122.876 9.776C123.089 9.936 123.287 10.112 123.468 10.304C123.649 10.4853 123.74 10.6133 123.74 10.688C123.708 10.8587 123.58 10.944 123.356 10.944H119.964C120.177 12.224 120.497 13.3653 120.924 14.368C121.361 15.3707 121.905 16.144 122.556 16.688C122.641 16.7733 122.716 16.816 122.78 16.816C122.855 16.816 122.924 16.7467 122.988 16.608C123.255 15.9253 123.441 15.3867 123.548 14.992L123.74 15.024L123.5 17.264C123.724 17.6267 123.836 17.8987 123.836 18.08C123.836 18.1653 123.809 18.2453 123.756 18.32C123.649 18.4373 123.505 18.496 123.324 18.496C123.121 18.496 122.897 18.4213 122.652 18.272C122.407 18.1333 122.172 17.9573 121.948 17.744C120.444 16.3147 119.452 14.048 118.972 10.944H115.804V15.488L119.068 14.704L119.116 14.944C117.879 15.5307 116.3 16.2133 114.38 16.992C114.305 17.1733 114.193 17.2907 114.044 17.344L113.388 15.984C113.665 15.9413 114.14 15.8507 114.812 15.712V9.28C114.812 7.936 114.743 6.84267 114.604 6L116.284 6.624C117.041 6.432 117.916 6.16533 118.908 5.824C119.985 5.44 120.881 4.98133 121.596 4.448C122.311 5.16267 122.668 5.58933 122.668 5.728C122.668 5.80267 122.593 5.82933 122.444 5.808L122.06 5.76C121.281 5.99467 120.465 6.208 119.612 6.4C119.591 7.81867 119.681 9.184 119.884 10.496H121.692L122.012 10.016ZM111.612 10.288C111.057 11.184 110.433 11.9947 109.74 12.72L109.516 12.56C110.391 11.28 111.18 9.72267 111.884 7.888C112.087 7.38667 112.273 6.8 112.444 6.128C112.615 5.44533 112.716 4.89067 112.748 4.464C113.825 4.816 114.364 5.06133 114.364 5.2C114.364 5.25333 114.316 5.296 114.22 5.328L113.916 5.424C113.479 6.704 112.993 7.84 112.46 8.832C112.791 9.088 112.956 9.28 112.956 9.408C112.956 9.472 112.908 9.53067 112.812 9.584L112.588 9.68V15.056C112.609 16.3787 112.652 17.632 112.716 18.816C112.631 18.912 112.497 19.0027 112.316 19.088C112.145 19.184 111.975 19.232 111.804 19.232C111.708 19.232 111.623 19.2 111.548 19.136C111.473 19.072 111.436 18.9973 111.436 18.912C111.479 18.2827 111.516 17.6747 111.548 17.088C111.58 16.4907 111.601 15.712 111.612 14.752V10.288ZM118.62 6.624C117.66 6.82667 116.721 6.98133 115.804 7.088V10.496H118.908C118.737 9.248 118.641 7.95733 118.62 6.624ZM116.508 18.576C115.879 18.5867 115.228 18.6613 114.556 18.8L114.14 17.968C114.727 18.032 115.436 18.0747 116.268 18.096H119.132L119.452 17.632C119.484 17.5893 119.532 17.5253 119.596 17.44C119.66 17.344 119.713 17.2747 119.756 17.232C119.809 17.1787 119.857 17.152 119.9 17.152C119.964 17.152 120.097 17.2373 120.3 17.408C120.513 17.568 120.711 17.744 120.892 17.936C121.073 18.1173 121.164 18.2453 121.164 18.32C121.132 18.4907 120.999 18.576 120.764 18.576H116.508ZM140.748 5.776C140.695 5.84 140.604 5.904 140.476 5.968C140.359 6.032 140.231 6.08 140.092 6.112V6.752L140.124 7.264C140.124 7.40267 140.135 7.62133 140.156 7.92C140.113 8.00533 139.991 8.096 139.788 8.192C139.596 8.27733 139.42 8.32 139.26 8.32H139.1V7.904H137.052C137.521 8.04267 137.852 8.16 138.044 8.256C138.236 8.34133 138.332 8.416 138.332 8.48C138.332 8.53333 138.279 8.576 138.172 8.608L137.884 8.72C137.447 9.17867 137.095 9.52533 136.828 9.76H139.18L139.66 9.2C139.969 9.488 140.183 9.70667 140.3 9.856C140.428 9.99467 140.492 10.1013 140.492 10.176C140.492 10.24 140.433 10.2933 140.316 10.336L140.044 10.432V11.552C140.065 12.448 140.097 13.1573 140.14 13.68C140.055 13.776 139.927 13.8667 139.756 13.952C139.585 14.0373 139.409 14.08 139.228 14.08H139.164C139.335 14.208 139.495 14.352 139.644 14.512C139.793 14.672 139.868 14.7893 139.868 14.864C139.836 14.9173 139.767 14.9707 139.66 15.024C139.564 15.0773 139.457 15.1147 139.34 15.136V16.384C139.361 17.408 139.393 18.208 139.436 18.784C139.383 18.88 139.249 18.976 139.036 19.072C138.833 19.168 138.657 19.216 138.508 19.216H138.348V18.48H132.508V18.896C132.508 18.96 132.417 19.0293 132.236 19.104C132.065 19.1893 131.884 19.232 131.692 19.232C131.617 19.232 131.548 19.2 131.484 19.136C131.431 19.072 131.404 18.9973 131.404 18.912C131.479 17.984 131.527 16.9493 131.548 15.808V14.08C131.377 14.176 131.18 14.224 130.956 14.224H130.812V11.744C130.812 10.6987 130.759 9.85067 130.652 9.2L131.868 9.76H133.612C133.516 9.504 133.351 9.22133 133.116 8.912C132.892 8.60267 132.663 8.34133 132.428 8.128L132.588 8.016C133.217 8.144 133.676 8.34133 133.964 8.608C134.263 8.87467 134.412 9.14133 134.412 9.408C134.412 9.54667 134.375 9.664 134.3 9.76H136.284C136.54 9.152 136.753 8.53333 136.924 7.904H129.98V9.472C129.98 10.752 129.927 11.9253 129.82 12.992C129.724 14.048 129.489 15.12 129.116 16.208C128.753 17.296 128.199 18.272 127.452 19.136L127.212 18.96C127.937 17.6907 128.417 16.2933 128.652 14.768C128.887 13.232 129.004 11.4667 129.004 9.472V7.184C129.004 6.256 128.956 5.472 128.86 4.832L130.188 5.44H138.956L139.196 5.136C139.217 5.104 139.249 5.06133 139.292 5.008C139.345 4.944 139.388 4.896 139.42 4.864C139.463 4.832 139.505 4.816 139.548 4.816C139.612 4.816 139.74 4.88 139.932 5.008C140.135 5.136 140.321 5.28 140.492 5.44C140.663 5.58933 140.748 5.70133 140.748 5.776ZM129.98 7.424H139.1V5.904H129.98V7.424ZM134.876 10.224H131.788V11.376H134.876V10.224ZM139.068 11.376V10.224H135.884V11.376H139.068ZM134.876 11.84H131.788V13.008H134.876V11.84ZM139.068 11.84H135.884V13.008H139.068V11.84ZM138.796 13.872C138.871 13.872 138.961 13.92 139.068 14.016V13.472H131.788V13.904C131.788 13.936 131.719 13.9893 131.58 14.064L132.572 14.544H138.236L138.46 14.208C138.492 14.1653 138.54 14.1013 138.604 14.016C138.668 13.92 138.732 13.872 138.796 13.872ZM132.508 16.24H138.348V15.008H132.508V16.24ZM132.508 18H138.348V16.72H132.508V18ZM149.132 16.464C148.993 16.464 148.839 16.3893 148.668 16.24C148.497 16.0907 148.343 15.9253 148.204 15.744C148.076 15.552 148.012 15.424 148.012 15.36C148.012 15.3173 148.028 15.2587 148.06 15.184C148.103 15.0987 148.129 15.008 148.14 14.912C148.215 14.336 148.252 13.5627 148.252 12.592C148.252 11.376 148.188 10.256 148.06 9.232C148.028 8.912 147.809 8.752 147.404 8.752C147.34 8.752 147.281 8.74667 147.228 8.736C147.175 8.72533 147.148 8.704 147.148 8.672C147.148 8.544 147.228 8.45333 147.388 8.4C147.548 8.336 147.713 8.304 147.884 8.304C148.065 8.304 148.289 8.34133 148.556 8.416C148.833 8.49067 149.073 8.592 149.276 8.72C149.479 8.848 149.58 8.98133 149.58 9.12C149.58 9.23733 149.532 9.36533 149.436 9.504C149.361 9.62133 149.303 9.728 149.26 9.824C149.217 9.92 149.196 10.0587 149.196 10.24L149.164 11.088C149.132 12.272 149.116 12.9547 149.116 13.136C149.116 13.648 149.132 14.0907 149.164 14.464C149.175 14.5707 149.191 14.656 149.212 14.72C149.244 14.7733 149.292 14.8 149.356 14.8C149.505 14.8 150.049 14.5707 150.988 14.112C151.937 13.6533 153.015 13.0133 154.22 12.192C155.425 11.36 156.556 10.384 157.612 9.264C157.74 9.136 157.836 9.072 157.9 9.072C157.932 9.072 157.948 9.09867 157.948 9.152C157.948 9.22667 157.889 9.33867 157.772 9.488C156.513 11.0773 155.132 12.416 153.628 13.504C152.135 14.5813 150.94 15.3493 150.044 15.808C149.959 15.8507 149.831 15.9573 149.66 16.128C149.564 16.2347 149.473 16.32 149.388 16.384C149.313 16.4373 149.228 16.464 149.132 16.464ZM175.564 6.56C175.351 6.56 175.159 6.42667 174.988 6.16C174.817 5.872 174.652 5.648 174.492 5.488C174.343 5.328 174.129 5.168 173.852 5.008C173.777 4.96533 173.703 4.928 173.628 4.896C173.553 4.864 173.489 4.832 173.436 4.8C173.383 4.75733 173.356 4.72 173.356 4.688C173.356 4.61333 173.447 4.576 173.628 4.576C173.895 4.576 174.22 4.62933 174.604 4.736C174.988 4.832 175.324 4.992 175.612 5.216C175.911 5.42933 176.06 5.70667 176.06 6.048C176.06 6.21867 176.007 6.34667 175.9 6.432C175.793 6.51733 175.681 6.56 175.564 6.56ZM173.932 7.888C173.825 7.888 173.708 7.856 173.58 7.792C173.452 7.71733 173.361 7.6 173.308 7.44C173.191 7.13067 173.047 6.86933 172.876 6.656C172.716 6.432 172.497 6.23467 172.22 6.064C172.199 6.05333 172.145 6.02667 172.06 5.984C171.985 5.93067 171.927 5.888 171.884 5.856C171.852 5.81333 171.836 5.776 171.836 5.744C171.836 5.66933 171.905 5.632 172.044 5.632C172.161 5.632 172.417 5.69067 172.812 5.808C173.217 5.92533 173.591 6.112 173.932 6.368C174.284 6.61333 174.46 6.928 174.46 7.312C174.46 7.504 174.407 7.648 174.3 7.744C174.204 7.84 174.081 7.888 173.932 7.888ZM168.508 9.376C168.401 9.376 168.289 9.34933 168.172 9.296C168.055 9.24267 167.969 9.17867 167.916 9.104C167.639 8.77333 167.399 8.528 167.196 8.368C167.004 8.19733 166.764 8.02667 166.476 7.856C166.327 7.77067 166.177 7.70133 166.028 7.648C165.889 7.584 165.793 7.536 165.74 7.504C165.729 7.504 165.697 7.49333 165.644 7.472C165.591 7.44 165.564 7.40267 165.564 7.36C165.564 7.264 165.745 7.216 166.108 7.216C166.535 7.216 166.972 7.27467 167.42 7.392C167.879 7.50933 168.257 7.68533 168.556 7.92C168.865 8.15467 169.02 8.432 169.02 8.752C169.02 8.92267 168.972 9.072 168.876 9.2C168.791 9.31733 168.668 9.376 168.508 9.376ZM166.012 17.76C165.884 17.76 165.761 17.6853 165.644 17.536C165.431 17.2693 165.228 16.896 165.036 16.416C164.855 15.936 164.764 15.5893 164.764 15.376C164.764 15.1947 164.817 15.104 164.924 15.104C164.967 15.104 165.025 15.152 165.1 15.248C165.175 15.344 165.249 15.44 165.324 15.536C165.537 15.7707 165.831 15.888 166.204 15.888C166.503 15.888 166.796 15.8187 167.084 15.68C168.513 15.0293 170.012 14.096 171.58 12.88C173.159 11.6533 174.487 10.3413 175.564 8.944C175.66 8.80533 175.751 8.736 175.836 8.736C175.9 8.736 175.932 8.768 175.932 8.832C175.932 8.91733 175.895 9.01867 175.82 9.136C175.052 10.288 174.135 11.392 173.068 12.448C172.001 13.4933 170.935 14.4053 169.868 15.184C168.812 15.9627 167.868 16.576 167.036 17.024C166.929 17.0773 166.759 17.2107 166.524 17.424C166.407 17.5413 166.311 17.6267 166.236 17.68C166.161 17.7333 166.087 17.76 166.012 17.76ZM166.828 12.672C166.732 12.672 166.631 12.6453 166.524 12.592C166.428 12.5387 166.348 12.48 166.284 12.416C166.028 12.1493 165.82 11.9573 165.66 11.84C165.5 11.7227 165.297 11.5893 165.052 11.44C164.796 11.2907 164.567 11.184 164.364 11.12C164.172 11.0453 164.049 10.9973 163.996 10.976C163.911 10.944 163.868 10.9067 163.868 10.864C163.868 10.8 163.98 10.7573 164.204 10.736C164.439 10.704 164.663 10.688 164.876 10.688C165.516 10.688 166.081 10.8213 166.572 11.088C167.063 11.344 167.308 11.696 167.308 12.144C167.308 12.2827 167.265 12.4053 167.18 12.512C167.095 12.6187 166.977 12.672 166.828 12.672ZM192.284 5.312C192.519 5.312 192.828 5.37067 193.212 5.488C193.607 5.60533 193.953 5.78133 194.252 6.016C194.561 6.24 194.716 6.512 194.716 6.832C194.716 7.01333 194.663 7.14667 194.556 7.232C194.449 7.31733 194.337 7.36 194.22 7.36C193.996 7.36 193.804 7.22133 193.644 6.944C193.484 6.66667 193.324 6.44267 193.164 6.272C193.015 6.10133 192.807 5.93067 192.54 5.76C192.465 5.70667 192.391 5.664 192.316 5.632C192.241 5.6 192.177 5.568 192.124 5.536C192.081 5.49333 192.06 5.456 192.06 5.424C192.06 5.34933 192.135 5.312 192.284 5.312ZM185.404 7.52C185.137 7.52 184.892 7.47733 184.668 7.392C184.444 7.30667 184.273 7.19467 184.156 7.056C184.017 6.88533 183.948 6.768 183.948 6.704C183.948 6.64 183.985 6.608 184.06 6.608C184.113 6.608 184.183 6.61867 184.268 6.64C184.353 6.66133 184.433 6.68267 184.508 6.704C184.615 6.72533 184.743 6.736 184.892 6.736C185.191 6.736 185.404 6.73067 185.532 6.72C186.097 6.688 186.561 6.62933 186.924 6.544C187.287 6.448 187.649 6.33067 188.012 6.192C188.044 6.18133 188.151 6.144 188.332 6.08C188.513 6.016 188.679 5.984 188.828 5.984C189.095 5.984 189.361 6.07467 189.628 6.256C189.895 6.43733 190.028 6.61333 190.028 6.784C190.028 6.90133 189.953 6.99733 189.804 7.072C189.665 7.136 189.468 7.168 189.212 7.168L188.62 7.136C188.14 7.136 187.345 7.22667 186.236 7.408C185.767 7.48267 185.489 7.52 185.404 7.52ZM190.828 6.416C190.967 6.416 191.239 6.46933 191.644 6.576C192.049 6.68267 192.428 6.85867 192.78 7.104C193.143 7.33867 193.324 7.65333 193.324 8.048C193.324 8.22933 193.271 8.368 193.164 8.464C193.057 8.54933 192.929 8.592 192.78 8.592C192.471 8.592 192.263 8.45333 192.156 8.176C192.039 7.87733 191.889 7.62133 191.708 7.408C191.537 7.184 191.308 6.992 191.02 6.832C190.988 6.81067 190.929 6.784 190.844 6.752C190.769 6.70933 190.711 6.672 190.668 6.64C190.636 6.59733 190.62 6.56 190.62 6.528C190.62 6.45333 190.689 6.416 190.828 6.416ZM190.412 8.912C190.647 8.912 190.919 8.94933 191.228 9.024C191.548 9.09867 191.82 9.21067 192.044 9.36C192.279 9.49867 192.396 9.65867 192.396 9.84C192.396 9.968 192.353 10.0587 192.268 10.112C192.193 10.1653 192.071 10.192 191.9 10.192L191.308 10.16C190.508 10.128 190.012 10.112 189.82 10.112C189.191 10.112 188.577 10.128 187.98 10.16C188.215 10.288 188.407 10.432 188.556 10.592C188.716 10.7413 188.796 10.88 188.796 11.008C188.796 11.0613 188.775 11.1147 188.732 11.168C188.689 11.2213 188.641 11.2693 188.588 11.312C188.567 11.3333 188.524 11.376 188.46 11.44C188.396 11.4933 188.348 11.5627 188.316 11.648C187.9 12.704 187.436 13.6587 186.924 14.512C186.412 15.3653 185.735 16.1813 184.892 16.96C184.049 17.728 183.015 18.384 181.788 18.928C181.692 18.9707 181.612 18.992 181.548 18.992C181.484 18.992 181.452 18.976 181.452 18.944C181.452 18.9013 181.527 18.832 181.676 18.736C184.492 16.8267 186.332 14.3253 187.196 11.232C187.228 11.0827 187.244 10.9547 187.244 10.848C187.244 10.72 187.207 10.608 187.132 10.512C187.057 10.4053 186.961 10.32 186.844 10.256C186.012 10.352 185.239 10.5227 184.524 10.768C184.055 10.9173 183.703 10.992 183.468 10.992C183.265 10.992 183.041 10.9227 182.796 10.784C182.561 10.6347 182.359 10.4587 182.188 10.256C182.028 10.0533 181.948 9.888 181.948 9.76C181.948 9.67467 181.98 9.632 182.044 9.632C182.076 9.632 182.14 9.65333 182.236 9.696C182.343 9.728 182.423 9.75467 182.476 9.776C182.615 9.82933 182.807 9.872 183.052 9.904C183.308 9.936 183.553 9.952 183.788 9.952C184.033 9.94133 184.513 9.90933 185.228 9.856C185.953 9.792 186.705 9.71733 187.484 9.632C188.273 9.54667 188.823 9.46133 189.132 9.376C189.548 9.25867 189.863 9.136 190.076 9.008C190.129 8.976 190.177 8.95467 190.22 8.944C190.263 8.92267 190.327 8.912 190.412 8.912ZM202.972 9.728C202.673 9.728 202.385 9.51467 202.108 9.088C201.863 8.71467 201.543 8.40533 201.148 8.16C200.753 7.91467 200.332 7.728 199.884 7.6C199.799 7.57867 199.729 7.55733 199.676 7.536C199.623 7.51467 199.596 7.488 199.596 7.456C199.596 7.36 199.841 7.312 200.332 7.312C200.78 7.312 201.244 7.37067 201.724 7.488C202.215 7.59467 202.62 7.77067 202.94 8.016C203.345 8.336 203.548 8.688 203.548 9.072C203.548 9.264 203.495 9.424 203.388 9.552C203.292 9.66933 203.153 9.728 202.972 9.728ZM199.916 15.776C199.873 15.6053 199.852 15.44 199.852 15.28C199.852 15.1413 199.868 15.0293 199.9 14.944C199.943 14.848 199.98 14.8 200.012 14.8C200.044 14.8 200.092 14.8587 200.156 14.976C200.22 15.0933 200.305 15.2053 200.412 15.312C200.519 15.4187 200.615 15.504 200.7 15.568C200.796 15.6213 200.929 15.648 201.1 15.648C201.484 15.648 202.183 15.3387 203.196 14.72C204.209 14.1013 205.388 13.232 206.732 12.112C208.087 10.9813 209.441 9.69067 210.796 8.24C210.892 8.12267 210.977 8.064 211.052 8.064C211.095 8.064 211.116 8.08533 211.116 8.128C211.116 8.192 211.063 8.304 210.956 8.464C210.231 9.47733 209.367 10.5067 208.364 11.552C207.361 12.5973 206.391 13.5307 205.452 14.352C204.524 15.1627 203.788 15.76 203.244 16.144C203.116 16.24 203.009 16.3093 202.924 16.352C202.828 16.416 202.732 16.4853 202.636 16.56C202.54 16.6347 202.433 16.736 202.316 16.864C202.092 17.12 201.836 17.248 201.548 17.248C201.196 17.248 200.855 17.104 200.524 16.816C200.204 16.5173 200.001 16.1707 199.916 15.776ZM223.02 12.416C223.628 12.672 224.268 13.0027 224.94 13.408C225.612 13.8027 226.183 14.2347 226.652 14.704C227.132 15.1733 227.372 15.6213 227.372 16.048C227.372 16.24 227.313 16.4107 227.196 16.56C227.079 16.7093 226.945 16.784 226.796 16.784C226.647 16.784 226.492 16.72 226.332 16.592C226.172 16.4533 226.028 16.2613 225.9 16.016C225.505 15.2693 225.041 14.6027 224.508 14.016C223.985 13.4293 223.431 12.96 222.844 12.608C221.916 13.6853 220.887 14.6667 219.756 15.552C218.625 16.4267 217.415 17.1307 216.124 17.664C216.071 17.6853 216.028 17.696 215.996 17.696C215.932 17.696 215.9 17.6693 215.9 17.616C215.9 17.5733 215.953 17.52 216.06 17.456C217.233 16.8373 218.38 15.984 219.5 14.896C220.631 13.808 221.591 12.7147 222.38 11.616C223.18 10.5173 223.703 9.648 223.948 9.008L223.98 8.88C223.98 8.816 223.927 8.784 223.82 8.784C223.607 8.784 222.999 8.91733 221.996 9.184C220.993 9.45067 220.327 9.65867 219.996 9.808C219.953 9.82933 219.884 9.86667 219.788 9.92C219.692 9.97333 219.591 10 219.484 10C219.217 10 218.972 9.91467 218.748 9.744C218.524 9.56267 218.348 9.35467 218.22 9.12C218.092 8.88533 218.028 8.69867 218.028 8.56C218.028 8.42133 218.065 8.352 218.14 8.352C218.172 8.352 218.236 8.38933 218.332 8.464C218.439 8.528 218.556 8.58133 218.684 8.624C218.855 8.688 219.052 8.72 219.276 8.72C219.5 8.72 220.204 8.62933 221.388 8.448C222.572 8.256 223.324 8.112 223.644 8.016C223.804 7.97333 223.969 7.904 224.14 7.808C224.353 7.712 224.487 7.664 224.54 7.664C224.647 7.664 224.807 7.73333 225.02 7.872C225.244 8 225.436 8.15467 225.596 8.336C225.767 8.50667 225.852 8.656 225.852 8.784C225.852 8.85867 225.82 8.928 225.756 8.992C225.692 9.04533 225.585 9.13067 225.436 9.248C225.212 9.39733 225.073 9.52 225.02 9.616C224.444 10.5653 223.777 11.4987 223.02 12.416Z" fill="#72796C"/>
<path d="M20.64 43.09C21.3 43.45 21.78 43.85 22.08 44.29C22.4 44.71 22.56 45.13 22.56 45.55C22.56 45.93 22.44 46.26 22.2 46.54C21.96 46.8 21.67 46.93 21.33 46.93C21.01 46.93 20.67 46.78 20.31 46.48C20.29 45.94 20.16 45.37 19.92 44.77C19.68 44.17 19.38 43.61 19.02 43.09H17.76C16.54 44.73 15.2 46.04 13.74 47.02L13.38 46.72C13.82 46.1 14.25 45.38 14.67 44.56C15.11 43.68 15.51 42.64 15.87 41.44C16.23 40.22 16.44 39.2 16.5 38.38C18.96 39.3 20.19 39.89 20.19 40.15C20.19 40.21 20.1 40.28 19.92 40.36L19.38 40.54C18.86 41.44 18.52 42 18.36 42.22H24.12L24.81 41.23C24.91 41.11 25.01 40.98 25.11 40.84C25.23 40.68 25.34 40.54 25.44 40.42C25.56 40.3 25.66 40.24 25.74 40.24C25.86 40.24 26.14 40.41 26.58 40.75C27.02 41.09 27.43 41.45 27.81 41.83C28.21 42.21 28.41 42.47 28.41 42.61C28.35 42.93 28.09 43.09 27.63 43.09H20.64ZM12.06 41.29C12.12 41.19 12.21 41.06 12.33 40.9C12.47 40.72 12.58 40.59 12.66 40.51C12.74 40.41 12.82 40.36 12.9 40.36C13.02 40.36 13.27 40.52 13.65 40.84C14.05 41.16 14.42 41.5 14.76 41.86C15.1 42.22 15.27 42.47 15.27 42.61C15.21 42.93 14.97 43.09 14.55 43.09H9C9.76 43.47 10.32 43.9 10.68 44.38C11.04 44.86 11.22 45.33 11.22 45.79C11.22 46.19 11.09 46.53 10.83 46.81C10.59 47.07 10.3 47.2 9.96 47.2C9.58 47.2 9.22 47.04 8.88 46.72C8.9 46.14 8.8 45.53 8.58 44.89C8.36 44.25 8.08 43.65 7.74 43.09H7.02C5.54 45.45 3.76 47.34 1.68 48.76L1.29 48.46C2.15 47.38 2.95 46.11 3.69 44.65C4.15 43.75 4.57 42.69 4.95 41.47C5.33 40.25 5.56 39.23 5.64 38.41C8.04 39.31 9.24 39.89 9.24 40.15C9.24 40.21 9.15 40.28 8.97 40.36L8.4 40.54C8.16 41.08 7.87 41.64 7.53 42.22H11.43L12.06 41.29ZM22.74 46.9C22.8 46.82 22.88 46.71 22.98 46.57C23.1 46.41 23.2 46.29 23.28 46.21C23.36 46.13 23.44 46.09 23.52 46.09C23.64 46.09 23.92 46.26 24.36 46.6C24.8 46.92 25.21 47.27 25.59 47.65C25.99 48.03 26.19 48.29 26.19 48.43C26.11 48.53 25.97 48.64 25.77 48.76C25.59 48.86 25.38 48.94 25.14 49V50.65L25.17 51.67C25.19 52.43 25.23 53.14 25.29 53.8C25.19 53.98 24.87 54.18 24.33 54.4C23.79 54.62 23.31 54.73 22.89 54.73C22.51 54.73 22.32 54.53 22.32 54.13C22.34 54.11 22.38 53.94 22.44 53.62V53.05H16.29V56.53H23.55L24.21 55.81C24.29 55.73 24.42 55.59 24.6 55.39C24.8 55.19 24.96 55.09 25.08 55.09C25.2 55.09 25.47 55.25 25.89 55.57C26.31 55.89 26.7 56.23 27.06 56.59C27.42 56.95 27.6 57.2 27.6 57.34C27.42 57.56 27.05 57.71 26.49 57.79C26.33 59.75 26.06 61.3 25.68 62.44C25.3 63.58 24.8 64.37 24.18 64.81C23.4 65.35 22.39 65.62 21.15 65.62C21.15 64.68 21 64.05 20.7 63.73C20.32 63.33 19.61 63.03 18.57 62.83L18.6 62.38C20.34 62.5 21.34 62.56 21.6 62.56C22.02 62.56 22.32 62.49 22.5 62.35C23.06 61.87 23.48 60.22 23.76 57.4H16.29V60.22C16.35 62.56 16.42 64.37 16.5 65.65C16.34 65.87 16.05 66.07 15.63 66.25C15.21 66.45 14.7 66.55 14.1 66.55C13.88 66.55 13.71 66.49 13.59 66.37C13.49 66.25 13.44 66.11 13.44 65.95C13.54 64.97 13.61 63.68 13.65 62.08V59.83C10.81 62.77 6.86 64.98 1.8 66.46L1.59 66.07C3.73 65.07 5.68 63.81 7.44 62.29C9.22 60.75 10.66 59.12 11.76 57.4H6.69C6.53 58.06 6.34 58.76 6.12 59.5C5.76 59.66 5.39 59.74 5.01 59.74C4.57 59.74 4.02 59.64 3.36 59.44L3.66 58.36C3.86 57.76 4.03 57.16 4.17 56.56C4.79 54.06 5.13 52.06 5.19 50.56L8.43 52.18H13.65V48.58H9.21C7.79 48.6 6.29 48.74 4.71 49L3.9 47.47C5 47.59 6.33 47.67 7.89 47.71H22.17L22.74 46.9ZM22.44 48.58H16.29V52.18H22.44V48.58ZM7.71 53.05L7.29 54.88L6.9 56.53H13.65V53.05H7.71ZM54.3 49.72C54.34 49.68 54.47 49.49 54.69 49.15C55.11 48.51 55.39 48.19 55.53 48.19C55.65 48.19 56.02 48.46 56.64 49C57.28 49.54 57.88 50.1 58.44 50.68C59.02 51.24 59.31 51.59 59.31 51.73C59.23 52.05 58.94 52.21 58.44 52.21H37.74C36.32 52.23 34.82 52.37 33.24 52.63L32.4 50.98C33.5 51.1 34.83 51.18 36.39 51.22H53.31L54.3 49.72ZM86.01 59.26C86.09 59.16 86.19 59.02 86.31 58.84C86.45 58.64 86.56 58.5 86.64 58.42C86.74 58.32 86.83 58.27 86.91 58.27C87.03 58.27 87.3 58.44 87.72 58.78C88.14 59.1 88.53 59.45 88.89 59.83C89.27 60.21 89.46 60.47 89.46 60.61C89.4 60.93 89.16 61.09 88.74 61.09H82.65V64.57H86.37L87.06 63.55C87.16 63.41 87.27 63.25 87.39 63.07C87.53 62.87 87.64 62.73 87.72 62.65C87.82 62.55 87.91 62.5 87.99 62.5C88.11 62.5 88.39 62.68 88.83 63.04C89.27 63.38 89.68 63.75 90.06 64.15C90.46 64.55 90.66 64.82 90.66 64.96C90.58 65.28 90.32 65.44 89.88 65.44H77.25C75.83 65.46 74.33 65.6 72.75 65.86L71.97 64.33C73.07 64.45 74.4 64.53 75.96 64.57H80.1V61.09H78.06C76.88 61.11 75.66 61.25 74.4 61.51L73.62 59.98C74.72 60.1 76.05 60.18 77.61 60.22H80.1V57.01H76.89V57.79C76.89 57.95 76.66 58.13 76.2 58.33C75.76 58.53 75.3 58.63 74.82 58.63C74.64 58.63 74.49 58.57 74.37 58.45C74.25 58.33 74.19 58.19 74.19 58.03C74.33 56.17 74.42 54.12 74.46 51.88V48.49C74.3 48.65 74.09 48.73 73.83 48.73H70.14V51.43C71.5 51.97 72.49 52.59 73.11 53.29C73.75 53.99 74.07 54.67 74.07 55.33C74.07 55.73 73.96 56.06 73.74 56.32C73.52 56.56 73.25 56.68 72.93 56.68C72.59 56.68 72.27 56.54 71.97 56.26C71.75 55.08 71.14 53.69 70.14 52.09V58.54C70.18 61.02 70.26 63.37 70.38 65.59C70.22 65.81 69.93 66.02 69.51 66.22C69.11 66.44 68.63 66.55 68.07 66.55C67.87 66.55 67.7 66.49 67.56 66.37C67.42 66.25 67.35 66.11 67.35 65.95C67.43 64.91 67.49 63.89 67.53 62.89C67.59 61.87 67.63 60.59 67.65 59.05V55.27C66.43 57.55 64.95 59.56 63.21 61.3L62.82 60.94C63.84 59.34 64.72 57.48 65.46 55.36C66.2 53.24 66.79 51.03 67.23 48.73H66C65.34 48.75 64.66 48.89 63.96 49.15L63.21 47.62C64.03 47.74 65.03 47.82 66.21 47.86H67.65V43.24C66.11 43.56 64.68 43.81 63.36 43.99L63.24 43.57C64.62 43.03 66.09 42.32 67.65 41.44C69.23 40.54 70.47 39.73 71.37 39.01L74.52 41.68C74.34 41.86 74.09 41.95 73.77 41.95C73.51 41.95 73.2 41.89 72.84 41.77C71.96 42.09 71.06 42.37 70.14 42.61V47.86H70.8L72.15 45.88C73.13 46.76 73.9 47.51 74.46 48.13C74.46 47.47 74.44 46.99 74.4 46.69L77.07 47.98H80.1V45.46H77.82C76.46 45.48 75.04 45.62 73.56 45.88L72.78 44.38C73.88 44.5 75.21 44.58 76.77 44.62H80.1V42.31C77.7 42.51 75.55 42.61 73.65 42.61L73.56 42.1C75.74 41.76 78.06 41.27 80.52 40.63C82.98 39.97 84.93 39.34 86.37 38.74L89.13 41.47C88.95 41.61 88.73 41.68 88.47 41.68C88.21 41.68 87.87 41.6 87.45 41.44C86.21 41.66 84.61 41.87 82.65 42.07V44.62H86.1L86.79 43.63C86.87 43.51 86.98 43.36 87.12 43.18C87.26 42.98 87.37 42.84 87.45 42.76C87.55 42.66 87.64 42.61 87.72 42.61C87.84 42.61 88.12 42.78 88.56 43.12C89 43.46 89.41 43.82 89.79 44.2C90.17 44.58 90.36 44.84 90.36 44.98C90.3 45.3 90.04 45.46 89.58 45.46H82.65V47.98H85.86L86.43 47.29C86.51 47.21 86.63 47.08 86.79 46.9C86.97 46.7 87.12 46.6 87.24 46.6C87.36 46.6 87.63 46.75 88.05 47.05C88.47 47.33 88.86 47.64 89.22 47.98C89.58 48.32 89.76 48.56 89.76 48.7C89.54 48.96 89.18 49.13 88.68 49.21V52C88.74 54.32 88.81 56.11 88.89 57.37C88.77 57.53 88.45 57.71 87.93 57.91C87.41 58.11 86.95 58.21 86.55 58.21H86.16V57.01H82.65V60.22H85.35L86.01 59.26ZM80.1 51.97V48.85H76.89V51.97H80.1ZM86.16 51.97V48.85H82.65V51.97H86.16ZM76.89 52.84V56.14H80.1V52.84H76.89ZM82.65 52.84V56.14H86.16V52.84H82.65ZM97.8 50.29C96.6 51.87 95.44 53.17 94.32 54.19L93.9 53.92C95.5 51.46 96.93 48.46 98.19 44.92C98.55 43.92 98.87 42.79 99.15 41.53C99.45 40.27 99.61 39.24 99.63 38.44C101.13 38.92 102.17 39.29 102.75 39.55C103.33 39.81 103.62 40 103.62 40.12C103.62 40.18 103.53 40.25 103.35 40.33L102.81 40.54C101.99 42.82 101.04 44.93 99.96 46.87C100.74 47.43 101.13 47.83 101.13 48.07C101.13 48.17 101.04 48.27 100.86 48.37L100.41 48.55V58.51C100.45 60.99 100.53 63.34 100.65 65.56C100.49 65.78 100.17 66 99.69 66.22C99.23 66.44 98.76 66.55 98.28 66.55C98.04 66.55 97.84 66.49 97.68 66.37C97.54 66.25 97.47 66.11 97.47 65.95C97.55 64.77 97.62 63.63 97.68 62.53C97.74 61.41 97.78 59.95 97.8 58.15V50.29ZM117.33 48.79C117.41 48.67 117.52 48.51 117.66 48.31C117.82 48.09 117.94 47.93 118.02 47.83C118.12 47.73 118.21 47.68 118.29 47.68C118.41 47.68 118.7 47.87 119.16 48.25C119.64 48.63 120.09 49.03 120.51 49.45C120.93 49.87 121.14 50.15 121.14 50.29C121.06 50.61 120.8 50.77 120.36 50.77H114.36C114.72 53.01 115.25 55.02 115.95 56.8C116.67 58.56 117.57 59.93 118.65 60.91C118.81 61.07 118.95 61.15 119.07 61.15C119.23 61.15 119.37 61.02 119.49 60.76C119.79 60.2 120.2 59.15 120.72 57.61L121.05 57.67L120.57 62.11C121.03 62.97 121.26 63.62 121.26 64.06C121.26 64.36 121.16 64.61 120.96 64.81C120.64 65.09 120.28 65.23 119.88 65.23C119.42 65.23 118.92 65.08 118.38 64.78C117.86 64.48 117.39 64.1 116.97 63.64C114.31 60.86 112.57 56.57 111.75 50.77H106.74V58.78C108.32 58.48 110.15 58.1 112.23 57.64L112.32 58.03C109.56 59.57 106.68 61.03 103.68 62.41C103.6 62.77 103.38 63.01 103.02 63.13L101.46 59.74C102.2 59.64 103.07 59.49 104.07 59.29V47.35C104.07 44.83 103.94 42.78 103.68 41.2L107.58 42.58C109.28 42.04 110.97 41.43 112.65 40.75C114.33 40.05 115.68 39.4 116.7 38.8L119.67 41.56C119.53 41.7 119.3 41.77 118.98 41.77C118.7 41.77 118.36 41.7 117.96 41.56C117.16 41.78 115.8 42.1 113.88 42.52L113.85 43.9C113.85 46 113.98 48 114.24 49.9H116.58L117.33 48.79ZM111.21 43C109.65 43.26 108.16 43.46 106.74 43.6V49.9H111.66C111.42 47.98 111.27 45.68 111.21 43ZM107.22 65.26C106.08 65.28 104.88 65.42 103.62 65.68L102.84 64.15C103.94 64.27 105.27 64.35 106.83 64.39H111.27L112.02 63.31C112.1 63.19 112.21 63.03 112.35 62.83C112.51 62.61 112.63 62.45 112.71 62.35C112.81 62.25 112.9 62.2 112.98 62.2C113.1 62.2 113.4 62.39 113.88 62.77C114.36 63.13 114.81 63.52 115.23 63.94C115.65 64.36 115.86 64.64 115.86 64.78C115.78 65.1 115.52 65.26 115.08 65.26H107.22ZM130.98 48.22C130.98 50.66 130.87 52.88 130.65 54.88C130.43 56.88 129.91 58.91 129.09 60.97C128.29 63.01 127.08 64.81 125.46 66.37L125.1 66.1C126.42 63.72 127.28 61.09 127.68 58.21C128.1 55.33 128.31 52.01 128.31 48.25V43.69C128.31 41.77 128.21 40.2 128.01 38.98L131.43 40.36H146.88L147.48 39.64C147.56 39.54 147.68 39.39 147.84 39.19C148.02 38.99 148.17 38.89 148.29 38.89C148.41 38.89 148.7 39.05 149.16 39.37C149.62 39.67 150.05 40 150.45 40.36C150.85 40.7 151.05 40.94 151.05 41.08C150.77 41.4 150.37 41.61 149.85 41.71V42.85L149.91 43.78C149.91 44.06 149.93 44.44 149.97 44.92C149.89 45.1 149.58 45.3 149.04 45.52C148.52 45.72 148.05 45.82 147.63 45.82H147.18V44.98H130.98V48.22ZM130.98 41.2V44.14H147.18V41.2H130.98ZM148.08 47.95C148.14 47.87 148.24 47.74 148.38 47.56C148.54 47.36 148.68 47.26 148.8 47.26C148.98 47.26 149.36 47.58 149.94 48.22C150.54 48.84 150.84 49.26 150.84 49.48C150.62 49.72 150.27 49.89 149.79 49.99V55.96C149.77 56 149.65 56.08 149.43 56.2C149.23 56.32 148.96 56.43 148.62 56.53C148.3 56.61 147.96 56.65 147.6 56.65H147.54C148.76 57.49 149.37 58.05 149.37 58.33C149.37 58.45 149.27 58.54 149.07 58.6L148.53 58.81V61.15C148.57 63.05 148.63 64.56 148.71 65.68C148.61 65.86 148.28 66.04 147.72 66.22C147.18 66.42 146.71 66.52 146.31 66.52H145.89V65.02H136.02V65.74C136.02 65.88 135.78 66.05 135.3 66.25C134.82 66.45 134.34 66.55 133.86 66.55C133.68 66.55 133.52 66.49 133.38 66.37C133.26 66.25 133.2 66.11 133.2 65.95C133.34 64.21 133.43 62.29 133.47 60.19V57.01C133.23 57.09 132.94 57.13 132.6 57.13H132.24V52.27C132.24 50.21 132.14 48.54 131.94 47.26L135.06 48.61H137.34C137.18 48.07 136.9 47.51 136.5 46.93C136.1 46.35 135.69 45.85 135.27 45.43L135.51 45.22C136.85 45.34 137.84 45.64 138.48 46.12C139.12 46.58 139.44 47.1 139.44 47.68C139.44 48.06 139.32 48.37 139.08 48.61H142.38C142.88 47.21 143.17 46 143.25 44.98C145.55 45.62 146.7 46.06 146.7 46.3C146.7 46.38 146.61 46.46 146.43 46.54L145.92 46.75C145.34 47.27 144.53 47.89 143.49 48.61H147.6L148.08 47.95ZM139.53 51.64V49.45H134.85V51.64H139.53ZM142.23 49.45V51.64H147.12V49.45H142.23ZM134.85 52.51V54.73H139.53V52.51H134.85ZM147.12 52.51H142.23V54.73H147.12V52.51ZM147.12 55.6H134.85V56.29C134.85 56.39 134.66 56.54 134.28 56.74L136.17 57.55H145.62L146.88 56.14L147.12 56.35V55.6ZM136.02 60.82H145.89V58.39H136.02V60.82ZM136.02 61.69V64.15H145.89V61.69H136.02ZM159.66 50.5C158.54 52 157.36 53.29 156.12 54.37L155.73 54.1C156.53 52.9 157.32 51.51 158.1 49.93C158.88 48.33 159.59 46.65 160.23 44.89C160.57 43.91 160.89 42.79 161.19 41.53C161.49 40.27 161.66 39.24 161.7 38.44C163.22 38.92 164.27 39.29 164.85 39.55C165.43 39.79 165.72 39.98 165.72 40.12C165.72 40.18 165.63 40.25 165.45 40.33L164.88 40.54C163.92 43.16 162.78 45.58 161.46 47.8C162.54 48.48 163.08 48.95 163.08 49.21C163.08 49.33 163 49.42 162.84 49.48L162.39 49.66V58.51C162.43 60.99 162.51 63.34 162.63 65.56C162.47 65.76 162.14 65.97 161.64 66.19C161.14 66.43 160.65 66.55 160.17 66.55C159.93 66.55 159.73 66.49 159.57 66.37C159.41 66.25 159.33 66.11 159.33 65.95C159.41 64.77 159.48 63.63 159.54 62.53C159.6 61.41 159.64 59.95 159.66 58.15V50.5ZM169.02 38.95C170.46 39.17 171.64 39.52 172.56 40C173.48 40.48 174.14 41.01 174.54 41.59C174.96 42.17 175.17 42.73 175.17 43.27C175.17 43.71 175.04 44.07 174.78 44.35C174.54 44.63 174.23 44.77 173.85 44.77C173.53 44.77 173.21 44.68 172.89 44.5C172.57 43.64 172.01 42.72 171.21 41.74C170.43 40.76 169.61 39.91 168.75 39.19L169.02 38.95ZM178.32 53.17C178.42 53.03 178.53 52.87 178.65 52.69C178.79 52.49 178.9 52.35 178.98 52.27C179.08 52.17 179.17 52.12 179.25 52.12C179.37 52.12 179.66 52.3 180.12 52.66C180.58 53 181.01 53.37 181.41 53.77C181.81 54.17 182.01 54.44 182.01 54.58C181.95 54.9 181.7 55.06 181.26 55.06H174.18V64.36H178.35L179.16 63.19C179.24 63.07 179.36 62.9 179.52 62.68C179.68 62.46 179.81 62.3 179.91 62.2C180.01 62.08 180.1 62.02 180.18 62.02C180.3 62.02 180.62 62.22 181.14 62.62C181.66 63.02 182.14 63.44 182.58 63.88C183.04 64.32 183.27 64.61 183.27 64.75C183.19 65.07 182.92 65.23 182.46 65.23H168.36C166.94 65.25 165.44 65.39 163.86 65.65L163.11 64.12C164.21 64.24 165.54 64.32 167.1 64.36H171.27V55.06H169.14C167.9 55.08 166.62 55.22 165.3 55.48L164.55 53.95C165.65 54.07 166.98 54.15 168.54 54.19H171.27V46.51H168.93C167.53 46.53 166.07 46.67 164.55 46.93L163.8 45.4C164.9 45.52 166.23 45.6 167.79 45.64H177.81L178.59 44.56C178.67 44.44 178.79 44.28 178.95 44.08C179.11 43.86 179.24 43.7 179.34 43.6C179.44 43.5 179.53 43.45 179.61 43.45C179.73 43.45 180.03 43.64 180.51 44.02C181.01 44.38 181.47 44.77 181.89 45.19C182.33 45.61 182.55 45.89 182.55 46.03C182.47 46.35 182.2 46.51 181.74 46.51H174.18V54.19H177.63L178.32 53.17ZM211.02 49.24C211.14 49.24 211.44 49.44 211.92 49.84C212.4 50.22 212.85 50.63 213.27 51.07C213.69 51.49 213.9 51.77 213.9 51.91C213.82 52.23 213.56 52.39 213.12 52.39H203.97V56.89H207.75L208.35 56.02C208.43 55.92 208.51 55.8 208.59 55.66C208.69 55.52 208.79 55.4 208.89 55.3C208.99 55.2 209.08 55.15 209.16 55.15C209.28 55.15 209.57 55.33 210.03 55.69C210.51 56.03 210.95 56.4 211.35 56.8C211.75 57.18 211.95 57.44 211.95 57.58C211.69 57.88 211.29 58.09 210.75 58.21V60.67C210.79 62.65 210.85 64.22 210.93 65.38C210.81 65.58 210.48 65.79 209.94 66.01C209.4 66.23 208.92 66.34 208.5 66.34C208.1 66.34 207.9 66.14 207.9 65.74C207.9 65.74 207.94 65.52 208.02 65.08V64.45H197.16V65.68C197.16 65.84 196.91 66.02 196.41 66.22C195.93 66.44 195.44 66.55 194.94 66.55C194.76 66.55 194.62 66.49 194.52 66.37C194.42 66.25 194.37 66.11 194.37 65.95C194.45 65.17 194.51 64.16 194.55 62.92V61.09C194.55 58.87 194.43 57.01 194.19 55.51L197.34 56.89H201.24V52.39H198.27C196.85 52.41 195.35 52.55 193.77 52.81L193.2 51.67C193 54.65 192.46 57.4 191.58 59.92C190.7 62.42 189.25 64.6 187.23 66.46L186.87 66.22C188.35 63.74 189.33 61 189.81 58C190.29 54.98 190.53 51.57 190.53 47.77V43.51C190.53 41.77 190.44 40.3 190.26 39.1L193.74 40.63H208.26L208.86 39.88C208.94 39.78 209.06 39.63 209.22 39.43C209.4 39.23 209.55 39.13 209.67 39.13C209.79 39.13 210.09 39.3 210.57 39.64C211.05 39.96 211.49 40.3 211.89 40.66C212.31 41.02 212.52 41.27 212.52 41.41C212.28 41.69 211.88 41.89 211.32 42.01V44.02L211.35 45.25C211.37 46.15 211.41 47.01 211.47 47.83C211.37 48.01 211.04 48.2 210.48 48.4C209.92 48.6 209.43 48.7 209.01 48.7H208.56V47.2H193.29V47.74C193.29 48.86 193.26 50.05 193.2 51.31C194.34 51.41 195.6 51.48 196.98 51.52H201.24C201.24 49.78 201.16 48.42 201 47.44C202.38 47.78 203.33 48.05 203.85 48.25C204.37 48.45 204.63 48.62 204.63 48.76C204.63 48.84 204.56 48.93 204.42 49.03L203.97 49.33V51.52H209.31L210.06 50.38C210.12 50.28 210.22 50.12 210.36 49.9C210.52 49.68 210.65 49.52 210.75 49.42C210.85 49.3 210.94 49.24 211.02 49.24ZM208.56 41.5H193.29V46.33H208.56V41.5ZM208.02 63.58V57.73H197.16V63.58H208.02ZM238.02 44.59C238.1 44.49 238.19 44.37 238.29 44.23C238.41 44.07 238.51 43.95 238.59 43.87C238.67 43.79 238.75 43.75 238.83 43.75C238.95 43.75 239.23 43.92 239.67 44.26C240.11 44.6 240.52 44.97 240.9 45.37C241.3 45.75 241.5 46.01 241.5 46.15C241.28 46.43 240.9 46.63 240.36 46.75V49.3C240.4 51.34 240.46 52.97 240.54 54.19C240.42 54.39 240.09 54.6 239.55 54.82C239.03 55.04 238.56 55.15 238.14 55.15H237.69V54.04H224.94V54.88C224.94 55.04 224.69 55.23 224.19 55.45C223.69 55.67 223.2 55.78 222.72 55.78C222.52 55.78 222.37 55.72 222.27 55.6C222.17 55.48 222.12 55.34 222.12 55.18C222.2 54.32 222.26 53.24 222.3 51.94V49.99C222.3 47.63 222.18 45.66 221.94 44.08L225.15 45.43H229.86V42.82H224.1C222.68 42.84 221.18 42.98 219.6 43.24L218.79 41.71C219.89 41.83 221.22 41.91 222.78 41.95H229.86C229.86 40.69 229.8 39.6 229.68 38.68C231.02 39 231.95 39.27 232.47 39.49C232.99 39.69 233.25 39.86 233.25 40C233.25 40.1 233.17 40.2 233.01 40.3L232.5 40.63V41.95H239.37L240.09 40.9C240.15 40.8 240.25 40.65 240.39 40.45C240.55 40.23 240.68 40.07 240.78 39.97C240.88 39.87 240.97 39.82 241.05 39.82C241.17 39.82 241.45 40 241.89 40.36C242.35 40.72 242.78 41.11 243.18 41.53C243.58 41.93 243.78 42.2 243.78 42.34C243.7 42.66 243.45 42.82 243.03 42.82H232.5V45.43H237.42L238.02 44.59ZM229.86 49.27V46.3H224.94V49.27H229.86ZM237.69 49.27V46.3H232.5V49.27H237.69ZM229.86 50.14H224.94V53.2H229.86V50.14ZM232.5 50.14V53.2H237.69V50.14H232.5ZM240.63 56.2C240.69 56.1 240.79 55.95 240.93 55.75C241.09 55.53 241.22 55.37 241.32 55.27C241.42 55.17 241.51 55.12 241.59 55.12C241.71 55.12 242 55.3 242.46 55.66C242.92 56.02 243.35 56.41 243.75 56.83C244.17 57.23 244.38 57.5 244.38 57.64C244.3 57.96 244.04 58.12 243.6 58.12H237.3V63.01C237.3 63.77 237.21 64.38 237.03 64.84C236.85 65.32 236.48 65.7 235.92 65.98C235.36 66.26 234.53 66.45 233.43 66.55C233.37 66.09 233.28 65.7 233.16 65.38C233.06 65.08 232.9 64.83 232.68 64.63C232.18 64.15 231.28 63.82 229.98 63.64V63.19C232.24 63.35 233.57 63.43 233.97 63.43C234.23 63.43 234.4 63.39 234.48 63.31C234.58 63.23 234.63 63.08 234.63 62.86V58.12H223.41C221.99 58.14 220.49 58.28 218.91 58.54L218.1 57.04C219.2 57.16 220.53 57.24 222.09 57.28H234.63C234.63 56.18 234.58 55.32 234.48 54.7C235.82 55.04 236.74 55.31 237.24 55.51C237.74 55.71 237.99 55.88 237.99 56.02C237.99 56.08 237.92 56.16 237.78 56.26L237.3 56.56V57.28H239.91L240.63 56.2ZM223.74 58.96C225.12 59.1 226.25 59.38 227.13 59.8C228.03 60.22 228.68 60.71 229.08 61.27C229.48 61.81 229.68 62.35 229.68 62.89C229.68 63.35 229.55 63.73 229.29 64.03C229.03 64.33 228.69 64.48 228.27 64.48C227.93 64.48 227.59 64.38 227.25 64.18C227.01 63.3 226.53 62.4 225.81 61.48C225.11 60.56 224.35 59.8 223.53 59.2L223.74 58.96ZM254.64 56.05C254.34 58.15 253.76 60.07 252.9 61.81C252.04 63.55 250.78 65.08 249.12 66.4L248.76 66.13C250.2 64.11 251.15 61.82 251.61 59.26C252.07 56.7 252.3 53.68 252.3 50.2V44.95C252.3 42.69 252.19 40.9 251.97 39.58L255.42 40.93H269.76L270.39 40.12C270.45 40.04 270.54 39.92 270.66 39.76C270.78 39.6 270.88 39.48 270.96 39.4C271.06 39.32 271.15 39.28 271.23 39.28C271.35 39.28 271.65 39.46 272.13 39.82C272.63 40.16 273.09 40.53 273.51 40.93C273.95 41.31 274.17 41.57 274.17 41.71C274.05 41.85 273.87 41.99 273.63 42.13C273.41 42.25 273.14 42.34 272.82 42.4V62.77C272.82 63.53 272.73 64.14 272.55 64.6C272.39 65.06 272.03 65.43 271.47 65.71C270.93 66.01 270.12 66.21 269.04 66.31C268.94 65.35 268.72 64.69 268.38 64.33C267.9 63.85 267.08 63.52 265.92 63.34V62.89C267.88 63.05 269.05 63.13 269.43 63.13C269.67 63.13 269.84 63.08 269.94 62.98C270.04 62.86 270.09 62.69 270.09 62.47V56.05H263.58V59.17C263.64 61.79 263.71 63.82 263.79 65.26C263.65 65.48 263.36 65.69 262.92 65.89C262.5 66.11 261.98 66.22 261.36 66.22C261.14 66.22 260.96 66.16 260.82 66.04C260.7 65.92 260.64 65.78 260.64 65.62C260.78 63.78 260.87 61.72 260.91 59.44V56.05H254.64ZM260.91 47.98V41.8H255V47.98H260.91ZM270.09 47.98V41.8H263.58V47.98H270.09ZM255 50.17C255 52.21 254.92 53.88 254.76 55.18H260.91V48.85H255V50.17ZM263.58 48.85V55.18H270.09V48.85H263.58ZM302.61 44.47C302.69 44.37 302.79 44.25 302.91 44.11C303.05 43.95 303.16 43.83 303.24 43.75C303.32 43.67 303.4 43.63 303.48 43.63C303.6 43.63 303.86 43.81 304.26 44.17C304.68 44.51 305.07 44.88 305.43 45.28C305.79 45.66 305.97 45.92 305.97 46.06C305.77 46.3 305.41 46.46 304.89 46.54C304.85 49.26 304.78 51.38 304.68 52.9C304.6 54.4 304.46 55.54 304.26 56.32C304.06 57.1 303.78 57.67 303.42 58.03C302.76 58.69 301.84 59.02 300.66 59.02C300.66 58.5 300.64 58.11 300.6 57.85C300.58 57.57 300.5 57.35 300.36 57.19C300.08 56.83 299.6 56.56 298.92 56.38V55.9C299.64 55.98 300.26 56.02 300.78 56.02C300.98 56.02 301.13 56 301.23 55.96C301.33 55.92 301.42 55.85 301.5 55.75C301.76 55.49 301.94 54.65 302.04 53.23C302.16 51.81 302.24 49.44 302.28 46.12L298.74 47.47V52.72C298.78 55.2 298.86 57.55 298.98 59.77C298.86 60.01 298.56 60.25 298.08 60.49C297.6 60.71 297.13 60.82 296.67 60.82C296.45 60.82 296.26 60.76 296.1 60.64C295.96 60.52 295.89 60.38 295.89 60.22C295.97 59.08 296.03 57.95 296.07 56.83C296.13 55.71 296.17 54.3 296.19 52.6V48.46L293.07 49.66V61.66C293.07 62.1 293.21 62.41 293.49 62.59C293.77 62.77 294.3 62.86 295.08 62.86H299.16C300.98 62.86 302.18 62.82 302.76 62.74C303.2 62.72 303.51 62.57 303.69 62.29C304.01 61.79 304.46 60.35 305.04 57.97H305.37L305.46 62.41C305.94 62.59 306.27 62.77 306.45 62.95C306.63 63.13 306.72 63.36 306.72 63.64C306.72 64.14 306.51 64.52 306.09 64.78C305.67 65.04 304.91 65.23 303.81 65.35C302.71 65.47 301.1 65.53 298.98 65.53H294.84C293.7 65.53 292.82 65.44 292.2 65.26C291.58 65.08 291.13 64.76 290.85 64.3C290.59 63.86 290.46 63.21 290.46 62.35V50.68L287.31 51.88L286.77 51.16L290.46 49.72V45.4C290.46 43.64 290.37 42.16 290.19 40.96C291.55 41.34 292.49 41.64 293.01 41.86C293.55 42.06 293.82 42.23 293.82 42.37C293.82 42.47 293.74 42.57 293.58 42.67L293.07 43V48.73L296.19 47.53V43.15C296.19 41.35 296.1 39.84 295.92 38.62C297.26 38.96 298.19 39.24 298.71 39.46C299.23 39.66 299.49 39.83 299.49 39.97C299.49 40.07 299.41 40.17 299.25 40.27L298.74 40.6V46.54L301.74 45.37L302.01 45.28H301.98L302.61 44.47ZM286.77 46.81C286.83 46.69 286.92 46.53 287.04 46.33C287.18 46.11 287.29 45.95 287.37 45.85C287.45 45.75 287.53 45.7 287.61 45.7C287.79 45.7 288.21 46.08 288.87 46.84C289.53 47.6 289.86 48.09 289.86 48.31C289.84 48.63 289.6 48.79 289.14 48.79H285.63V57.91C286.73 57.47 288.05 56.92 289.59 56.26L289.74 56.59C289.38 56.89 289.2 57.04 289.2 57.04C286.26 59.36 283.69 61.25 281.49 62.71C281.39 63.15 281.18 63.44 280.86 63.58L279.42 60.19C280.06 60.01 281.27 59.59 283.05 58.93V48.79H282.03C281.47 48.81 280.89 48.95 280.29 49.21L279.54 47.68C280.2 47.8 281 47.88 281.94 47.92H283.05V45.34C283.05 42.82 282.92 40.77 282.66 39.19C284.06 39.53 285.03 39.81 285.57 40.03C286.13 40.23 286.41 40.4 286.41 40.54C286.41 40.62 286.33 40.71 286.17 40.81L285.63 41.14V47.92H286.17L286.77 46.81ZM337.08 63.52C337.5 64.3 337.71 64.95 337.71 65.47C337.71 65.77 337.63 65.98 337.47 66.1C337.21 66.34 336.9 66.46 336.54 66.46C336.1 66.46 335.63 66.29 335.13 65.95C334.65 65.63 334.2 65.21 333.78 64.69C332.68 63.45 331.74 61.91 330.96 60.07C329.78 61.45 328.42 62.64 326.88 63.64C325.34 64.64 323.56 65.51 321.54 66.25L321.33 65.77C323.27 64.73 324.96 63.58 326.4 62.32C327.84 61.06 329.09 59.58 330.15 57.88C329.15 54.56 328.53 50.31 328.29 45.13H324.12C322.7 45.15 321.2 45.29 319.62 45.55L318.87 44.08C319.97 44.2 321.3 44.28 322.86 44.32H328.26C328.18 42.8 328.14 41.05 328.14 39.07C329.38 39.37 330.24 39.62 330.72 39.82C331.2 40 331.44 40.16 331.44 40.3C331.44 40.4 331.36 40.5 331.2 40.6L330.72 40.93V44.32H333.69L334.29 43.48C333.99 43.48 333.68 43.36 333.36 43.12C333.3 42.6 333.11 42.05 332.79 41.47C332.47 40.89 332.11 40.43 331.71 40.09L332.01 39.88C333.23 40.02 334.12 40.31 334.68 40.75C335.26 41.19 335.55 41.68 335.55 42.22C335.55 42.4 335.52 42.57 335.46 42.73C336.48 43.63 337.19 44.28 337.59 44.68C337.51 44.98 337.26 45.13 336.84 45.13H330.75C330.85 48.83 331.21 52.05 331.83 54.79C332.01 54.41 332.2 53.95 332.4 53.41C332.76 52.49 333.07 51.45 333.33 50.29C333.61 49.11 333.77 48.1 333.81 47.26C336.11 48.04 337.26 48.55 337.26 48.79C337.26 48.87 337.16 48.94 336.96 49L336.39 49.15C335.35 52.69 334.12 55.55 332.7 57.73C333.4 59.57 334.24 60.97 335.22 61.93C335.4 62.11 335.55 62.2 335.67 62.2C335.83 62.2 335.96 62.08 336.06 61.84C336.24 61.44 336.45 60.9 336.69 60.22C336.95 59.54 337.16 58.91 337.32 58.33L337.65 58.39L337.08 63.52ZM319.77 56.98C317.33 58.98 314.91 60.83 312.51 62.53C312.47 62.71 312.39 62.88 312.27 63.04C312.17 63.2 312.05 63.31 311.91 63.37L310.23 60.07C310.61 59.97 311.46 59.67 312.78 59.17L313.77 58.81V48.22H312.75C312.19 48.24 311.63 48.38 311.07 48.64L310.32 47.11C310.96 47.23 311.74 47.31 312.66 47.35H313.77V45.28C313.77 42.76 313.64 40.71 313.38 39.13C314.84 39.47 315.84 39.74 316.38 39.94C316.94 40.14 317.22 40.31 317.22 40.45C317.22 40.55 317.14 40.65 316.98 40.75L316.44 41.08V47.35H316.71L318.03 45.25C319.01 46.21 319.78 47 320.34 47.62L322.35 48.49H324.9L325.38 47.86C325.44 47.78 325.51 47.68 325.59 47.56C325.69 47.44 325.77 47.35 325.83 47.29C325.91 47.23 325.99 47.2 326.07 47.2C326.27 47.2 326.66 47.46 327.24 47.98C327.82 48.48 328.11 48.84 328.11 49.06C327.95 49.26 327.68 49.4 327.3 49.48V51.67C327.34 53.49 327.4 54.9 327.48 55.9C327.38 56.08 327.1 56.27 326.64 56.47C326.2 56.67 325.81 56.77 325.47 56.77C325.17 56.77 325.02 56.57 325.02 56.17C325.04 56.11 325.05 56.05 325.05 55.99C325.07 55.91 325.09 55.83 325.11 55.75V55.21H322.17V55.78C322.19 56 322.2 56.2 322.2 56.38C322.22 56.56 322.24 56.69 322.26 56.77C322.2 56.97 322 57.16 321.66 57.34C321.32 57.52 320.9 57.61 320.4 57.61C320.22 57.61 320.07 57.55 319.95 57.43C319.83 57.31 319.77 57.17 319.77 57.01V56.98ZM316.44 57.79L319.8 56.47C319.92 54.97 320 53.25 320.04 51.31V48.16C319.88 48.2 319.76 48.22 319.68 48.22H316.44V57.79ZM325.11 49.33H322.17V54.34H325.11V49.33ZM328.74 58.03C325.8 59.65 322.73 61.19 319.53 62.65C319.43 63.05 319.22 63.3 318.9 63.4L318.15 61.96L317.43 60.49C319.03 60.19 322.77 59.23 328.65 57.61L328.74 58.03Z" fill="#2F3829"/>
</svg>
