<svg width="309" height="67" viewBox="0 0 309 67" fill="none" xmlns="http://www.w3.org/2000/svg">
<path d="M8.82 39.94C8.88 39.84 8.97 39.71 9.09 39.55C9.23 39.37 9.34 39.24 9.42 39.16C9.5 39.06 9.58 39.01 9.66 39.01C9.84 39.01 10.25 39.28 10.89 39.82C11.53 40.36 11.92 40.78 12.06 41.08C12.08 41.18 12.07 41.28 12.03 41.38C11.91 41.6 11.68 41.71 11.34 41.71H8.22C6.94 41.73 5.51 41.86 3.93 42.1H3.84C3.76 42.1 3.69 42.05 3.63 41.95L3.09 40.9C3.07 40.88 3.06 40.84 3.06 40.78C3.06 40.68 3.14 40.63 3.3 40.63C4.24 40.73 5.3 40.8 6.48 40.84H8.19L8.82 39.94ZM25.53 39.85C25.61 39.77 25.71 39.66 25.83 39.52C25.95 39.36 26.05 39.24 26.13 39.16C26.21 39.08 26.29 39.04 26.37 39.04C26.53 39.04 26.93 39.34 27.57 39.94C28.23 40.52 28.63 40.96 28.77 41.26C28.83 41.34 28.81 41.43 28.71 41.53C28.53 41.73 28.2 41.86 27.72 41.92C27.64 45.24 27.47 47.66 27.21 49.18C26.97 50.7 26.56 51.72 25.98 52.24C25.32 52.84 24.42 53.17 23.28 53.23C23.12 53.23 23.04 53.15 23.04 52.99C23.02 52.59 22.98 52.27 22.92 52.03C22.88 51.77 22.78 51.56 22.62 51.4C22.32 51.04 21.71 50.76 20.79 50.56C20.65 50.5 20.58 50.41 20.58 50.29C20.6 50.11 20.69 50.04 20.85 50.08C21.79 50.18 22.64 50.23 23.4 50.23C23.76 50.23 24.03 50.14 24.21 49.96C24.47 49.7 24.68 48.89 24.84 47.53C25 46.15 25.11 44.15 25.17 41.53H20.91C20.73 42.75 20.49 43.92 20.19 45.04C21.01 45.44 21.63 45.9 22.05 46.42C22.47 46.94 22.68 47.44 22.68 47.92C22.68 48.28 22.57 48.57 22.35 48.79C22.13 49.01 21.83 49.12 21.45 49.12C21.35 49.12 21.27 49.11 21.21 49.09C21.07 49.05 20.97 49 20.91 48.94C20.63 48.56 20.1 48.06 19.32 47.44C18.7 48.74 17.89 49.89 16.89 50.89C15.91 51.89 14.65 52.76 13.11 53.5C12.95 53.56 12.84 53.53 12.78 53.41L12.75 53.35C12.69 53.21 12.71 53.1 12.81 53.02C13.97 52.06 14.9 51.01 15.6 49.87C16.32 48.71 16.87 47.42 17.25 46C16.19 45.34 15.15 44.79 14.13 44.35C13.99 44.29 13.95 44.2 14.01 44.08C14.07 43.98 14.16 43.93 14.28 43.93C15.62 43.93 16.75 44.03 17.67 44.23C17.87 43.09 17.99 42.19 18.03 41.53H16.68C15.94 41.55 15.21 41.67 14.49 41.89C14.33 41.93 14.23 41.89 14.19 41.77L13.65 40.72L13.62 40.6C13.62 40.5 13.69 40.45 13.83 40.45C14.91 40.55 16.12 40.62 17.46 40.66H24.93L25.53 39.85ZM5.67 45.49C4.59 45.53 3.56 45.66 2.58 45.88C2.52 45.88 2.46 45.87 2.4 45.85C2.34 45.83 2.3 45.79 2.28 45.73L1.74 44.71C1.72 44.69 1.71 44.65 1.71 44.59C1.71 44.49 1.79 44.44 1.95 44.44C3.03 44.54 4.24 44.61 5.58 44.65H9.72L10.35 43.72C10.41 43.62 10.5 43.49 10.62 43.33C10.76 43.15 10.87 43.02 10.95 42.94C11.03 42.84 11.11 42.79 11.19 42.79C11.37 42.79 11.78 43.07 12.42 43.63C13.08 44.17 13.48 44.58 13.62 44.86C13.64 44.96 13.63 45.05 13.59 45.13C13.47 45.37 13.24 45.49 12.9 45.49H5.67ZM9.12 47.62C9.2 47.52 9.28 47.4 9.36 47.26C9.46 47.12 9.56 47 9.66 46.9C9.76 46.8 9.85 46.75 9.93 46.75C10.09 46.75 10.47 47.01 11.07 47.53C11.67 48.05 12.04 48.45 12.18 48.73L12.21 48.85C12.21 49.01 12.14 49.13 12 49.21C11.86 49.29 11.68 49.33 11.46 49.33H8.22C6.94 49.35 5.51 49.48 3.93 49.72H3.84C3.76 49.72 3.69 49.67 3.63 49.57L3.09 48.55C3.07 48.53 3.06 48.49 3.06 48.43C3.06 48.33 3.14 48.28 3.3 48.28C4.32 48.38 5.46 48.45 6.72 48.49H8.52L9.12 47.62ZM9.12 51.49C9.2 51.39 9.28 51.27 9.36 51.13C9.46 50.99 9.56 50.87 9.66 50.77C9.76 50.67 9.85 50.62 9.93 50.62C10.09 50.62 10.47 50.88 11.07 51.4C11.67 51.92 12.04 52.32 12.18 52.6C12.2 52.64 12.21 52.69 12.21 52.75C12.21 52.89 12.13 53.01 11.97 53.11C11.83 53.19 11.66 53.23 11.46 53.23H8.22C6.94 53.25 5.51 53.38 3.93 53.62H3.84C3.76 53.62 3.69 53.57 3.63 53.47L3.09 52.42C3.07 52.4 3.06 52.36 3.06 52.3C3.06 52.2 3.14 52.15 3.3 52.15C4.32 52.25 5.46 52.32 6.72 52.36H8.52L9.12 51.49ZM17.19 53.29C17.05 53.21 17.01 53.12 17.07 53.02C17.15 52.92 17.28 52.87 17.46 52.87C18.76 52.87 19.83 53.03 20.67 53.35C21.53 53.67 22.15 54.07 22.53 54.55C22.93 55.03 23.13 55.51 23.13 55.99C23.13 56.35 23.01 56.66 22.77 56.92C22.55 57.16 22.26 57.28 21.9 57.28C21.8 57.28 21.65 57.26 21.45 57.22C21.31 57.18 21.23 57.11 21.21 57.01C20.85 56.33 20.28 55.64 19.5 54.94C18.74 54.24 17.97 53.69 17.19 53.29ZM5.7 64.42C5.72 64.68 5.73 64.89 5.73 65.05C5.73 65.21 5.74 65.34 5.76 65.44L5.79 65.59C5.79 65.79 5.55 66 5.07 66.22C4.59 66.44 4.09 66.55 3.57 66.55C3.41 66.55 3.28 66.49 3.18 66.37C3.08 66.25 3.03 66.11 3.03 65.95C3.11 65.11 3.17 64.05 3.21 62.77V60.88C3.21 58.7 3.11 56.87 2.91 55.39V55.33C2.91 55.19 2.99 55.15 3.15 55.21L5.79 56.35H8.91L9.45 55.66C9.51 55.6 9.59 55.5 9.69 55.36C9.81 55.22 9.91 55.12 9.99 55.06C10.07 54.98 10.15 54.94 10.23 54.94C10.41 54.94 10.83 55.2 11.49 55.72C12.15 56.22 12.57 56.61 12.75 56.89C12.81 57.01 12.78 57.11 12.66 57.19C12.4 57.41 12.06 57.55 11.64 57.61V59.95C11.7 61.85 11.76 63.31 11.82 64.33C11.82 64.43 11.79 64.52 11.73 64.6C11.55 64.8 11.24 64.99 10.8 65.17C10.36 65.35 9.96 65.44 9.6 65.44C9.34 65.44 9.17 65.29 9.09 64.99L9.12 64.69L9.21 64.3V63.73H5.7V64.42ZM16.65 59.59C16.65 58.17 16.57 56.85 16.41 55.63C16.41 55.43 16.51 55.36 16.71 55.42C17.85 55.72 18.63 55.96 19.05 56.14C19.47 56.32 19.68 56.48 19.68 56.62C19.68 56.68 19.62 56.76 19.5 56.86L19.08 57.16V63.04C19.08 63.22 19.12 63.35 19.2 63.43C19.3 63.49 19.51 63.52 19.83 63.52H21.57C22.47 63.52 23 63.51 23.16 63.49C23.4 63.49 23.57 63.4 23.67 63.22C23.87 62.9 24.13 62.03 24.45 60.61C24.47 60.47 24.55 60.4 24.69 60.4C24.81 60.4 24.87 60.48 24.87 60.64L24.96 63.28C25.3 63.42 25.52 63.57 25.62 63.73C25.74 63.89 25.8 64.1 25.8 64.36C25.8 64.92 25.48 65.32 24.84 65.56C24.2 65.82 23.04 65.95 21.36 65.95H19.2C18.48 65.95 17.94 65.88 17.58 65.74C17.22 65.6 16.97 65.37 16.83 65.05C16.71 64.75 16.65 64.3 16.65 63.7V59.59ZM24.51 56.47C24.43 56.33 24.44 56.23 24.54 56.17C24.64 56.11 24.75 56.11 24.87 56.17C26.29 56.99 27.33 57.89 27.99 58.87C28.65 59.83 28.98 60.74 28.98 61.6C28.98 62.18 28.85 62.65 28.59 63.01C28.33 63.37 28 63.55 27.6 63.55C27.26 63.55 26.91 63.4 26.55 63.1C26.47 63.02 26.43 62.92 26.43 62.8C26.43 61.82 26.24 60.77 25.86 59.65C25.5 58.51 25.05 57.45 24.51 56.47ZM14.52 56.8C14.52 56.58 14.6 56.47 14.76 56.47H14.79C14.95 56.47 15.04 56.54 15.06 56.68C15.36 57.66 15.51 58.64 15.51 59.62C15.51 60.36 15.41 61.03 15.21 61.63C15.03 62.21 14.78 62.67 14.46 63.01C14.12 63.39 13.7 63.58 13.2 63.58C12.96 63.58 12.74 63.53 12.54 63.43C12.36 63.31 12.22 63.15 12.12 62.95C12.02 62.71 11.97 62.51 11.97 62.35C11.97 61.81 12.26 61.34 12.84 60.94C13.28 60.56 13.67 59.98 14.01 59.2C14.35 58.4 14.52 57.6 14.52 56.8ZM5.7 57.22V62.86H9.21V57.22H5.7ZM52.89 54.13C52.99 53.99 53.1 53.83 53.22 53.65C53.36 53.45 53.47 53.31 53.55 53.23C53.65 53.13 53.74 53.08 53.82 53.08C54 53.08 54.46 53.39 55.2 54.01C55.96 54.63 56.42 55.09 56.58 55.39C56.62 55.47 56.64 55.52 56.64 55.54C56.64 55.68 56.55 55.8 56.37 55.9C56.21 55.98 56.03 56.02 55.83 56.02H47.67V62.89C48.93 63.05 50.53 63.13 52.47 63.13C55.93 63.13 58.3 63.11 59.58 63.07C59.74 63.07 59.82 63.13 59.82 63.25C59.82 63.37 59.75 63.46 59.61 63.52C59.23 63.66 58.93 63.92 58.71 64.3C58.49 64.7 58.36 65.16 58.32 65.68C58.28 65.84 58.19 65.92 58.05 65.92H52.29C49.93 65.92 47.97 65.72 46.41 65.32C44.87 64.94 43.55 64.24 42.45 63.22C41.35 62.2 40.44 60.76 39.72 58.9C38.3 62.18 36.14 64.69 33.24 66.43C33.1 66.51 32.99 66.5 32.91 66.4C32.85 66.26 32.86 66.15 32.94 66.07C34.96 64.17 36.44 61.61 37.38 58.39C37.64 57.51 37.84 56.55 37.98 55.51C38.12 54.45 38.17 53.49 38.13 52.63V52.57C38.13 52.51 38.15 52.47 38.19 52.45C38.25 52.41 38.32 52.4 38.4 52.42C40.82 52.88 42.03 53.23 42.03 53.47C42.03 53.57 41.95 53.65 41.79 53.71L41.25 53.98C40.89 55.62 40.5 56.99 40.08 58.09C40.66 59.17 41.34 60.05 42.12 60.73C42.92 61.41 43.86 61.93 44.94 62.29V49.39H41.52C40.24 49.41 38.81 49.54 37.23 49.78H37.14C37.06 49.78 36.99 49.73 36.93 49.63L36.42 48.61C36.4 48.59 36.39 48.55 36.39 48.49C36.39 48.39 36.46 48.34 36.6 48.34C37.7 48.44 38.92 48.51 40.26 48.55H51.96L53.43 46.72C53.51 46.6 53.62 46.59 53.76 46.69L54.54 47.29C54.92 46.17 55.25 45.09 55.53 44.05H37.47C37.49 45.05 37.34 45.92 37.02 46.66C36.7 47.4 36.29 47.94 35.79 48.28C35.39 48.54 35.01 48.67 34.65 48.67C34.25 48.67 33.9 48.55 33.6 48.31C33.32 48.05 33.18 47.71 33.18 47.29C33.18 46.97 33.28 46.67 33.48 46.39C33.68 46.11 33.94 45.88 34.26 45.7C34.86 45.36 35.39 44.82 35.85 44.08C36.31 43.34 36.54 42.54 36.54 41.68C36.54 41.5 36.62 41.41 36.78 41.41C36.94 41.41 37.03 41.48 37.05 41.62C37.25 42.2 37.36 42.72 37.38 43.18H44.88C44.88 41.5 44.79 40.03 44.61 38.77C44.61 38.57 44.7 38.49 44.88 38.53C46.26 38.87 47.2 39.13 47.7 39.31C48.22 39.49 48.48 39.65 48.48 39.79C48.48 39.89 48.4 39.99 48.24 40.09L47.7 40.42V43.18H55.41L56.13 42.37C56.23 42.27 56.38 42.11 56.58 41.89C56.78 41.67 56.94 41.56 57.06 41.56C57.22 41.56 57.64 41.9 58.32 42.58C59 43.24 59.43 43.74 59.61 44.08C59.67 44.2 59.64 44.3 59.52 44.38C59.42 44.44 59.28 44.49 59.1 44.53C58.94 44.57 58.76 44.6 58.56 44.62C58.12 45.1 57.56 45.63 56.88 46.21C56.22 46.77 55.6 47.26 55.02 47.68L56.37 48.79C56.47 48.93 56.49 49.04 56.43 49.12C56.29 49.3 56.06 49.39 55.74 49.39H47.67V55.15H52.17L52.89 54.13ZM67.35 50.29C66.27 51.73 65.16 52.98 64.02 54.04C63.94 54.14 63.83 54.15 63.69 54.07L63.66 54.04C63.54 53.96 63.51 53.85 63.57 53.71C65.13 51.33 66.52 48.4 67.74 44.92C68.08 43.98 68.39 42.92 68.67 41.74C68.95 40.54 69.12 39.53 69.18 38.71C69.18 38.63 69.2 38.57 69.24 38.53C69.3 38.49 69.37 38.49 69.45 38.53C70.85 38.99 71.82 39.34 72.36 39.58C72.9 39.82 73.17 40 73.17 40.12C73.17 40.18 73.08 40.25 72.9 40.33L72.36 40.54C71.54 42.82 70.59 44.93 69.51 46.87C70.29 47.43 70.68 47.83 70.68 48.07C70.68 48.15 70.63 48.22 70.53 48.28C70.47 48.36 70.39 48.41 70.29 48.43L69.96 48.55V58.51C70 61.01 70.08 63.3 70.2 65.38C70.2 65.5 70.16 65.6 70.08 65.68C69.84 65.9 69.51 66.1 69.09 66.28C68.67 66.46 68.25 66.55 67.83 66.55C67.59 66.55 67.39 66.49 67.23 66.37C67.09 66.25 67.02 66.11 67.02 65.95C67.1 64.77 67.17 63.63 67.23 62.53C67.29 61.41 67.33 59.95 67.35 58.15V50.29ZM86.88 48.79C86.96 48.67 87.07 48.51 87.21 48.31C87.37 48.09 87.49 47.93 87.57 47.83C87.67 47.73 87.76 47.68 87.84 47.68C88.02 47.68 88.49 48.02 89.25 48.7C90.01 49.36 90.47 49.84 90.63 50.14C90.69 50.24 90.69 50.34 90.63 50.44C90.51 50.66 90.27 50.77 89.91 50.77H83.91C84.27 53.01 84.8 55.02 85.5 56.8C86.22 58.56 87.12 59.93 88.2 60.91C88.36 61.07 88.5 61.15 88.62 61.15C88.78 61.15 88.92 61.02 89.04 60.76C89.3 60.24 89.69 59.26 90.21 57.82C90.25 57.7 90.31 57.64 90.39 57.64C90.51 57.64 90.57 57.73 90.57 57.91L90.12 62.11C90.58 62.97 90.81 63.62 90.81 64.06C90.81 64.36 90.71 64.61 90.51 64.81C90.19 65.09 89.83 65.23 89.43 65.23C88.97 65.23 88.47 65.08 87.93 64.78C87.41 64.48 86.94 64.1 86.52 63.64C83.86 60.86 82.12 56.57 81.3 50.77H76.29V58.78L81.54 57.7C81.72 57.66 81.82 57.7 81.84 57.82V57.88C81.84 57.98 81.79 58.06 81.69 58.12C78.93 59.64 76.11 61.07 73.23 62.41C73.19 62.65 73.04 62.86 72.78 63.04C72.76 63.06 72.73 63.07 72.69 63.07C72.59 63.07 72.52 63.02 72.48 62.92L71.13 60.01C71.11 59.99 71.1 59.95 71.1 59.89C71.1 59.79 71.16 59.73 71.28 59.71C71.78 59.63 72.56 59.49 73.62 59.29V47.35C73.62 45.17 73.51 43.23 73.29 41.53V41.47C73.29 41.31 73.37 41.26 73.53 41.32L77.13 42.58C78.79 42.06 80.43 41.46 82.05 40.78C83.69 40.1 85.03 39.47 86.07 38.89C86.19 38.83 86.3 38.85 86.4 38.95L89.01 41.38C89.07 41.44 89.1 41.51 89.1 41.59C89.1 41.65 89.06 41.69 88.98 41.71C88.82 41.75 88.67 41.77 88.53 41.77C88.25 41.77 87.91 41.7 87.51 41.56C86.71 41.78 85.35 42.1 83.43 42.52L83.4 43.9C83.4 46 83.53 48 83.79 49.9H86.13L86.88 48.79ZM80.76 43C79.2 43.26 77.71 43.46 76.29 43.6V49.9H81.21C80.97 47.98 80.82 45.68 80.76 43ZM76.77 65.26C75.57 65.28 74.44 65.41 73.38 65.65H73.29C73.21 65.65 73.14 65.6 73.08 65.5L72.54 64.45C72.52 64.43 72.51 64.39 72.51 64.33C72.51 64.23 72.58 64.18 72.72 64.18C73.82 64.28 75.04 64.35 76.38 64.39H80.82L81.57 63.31C81.65 63.19 81.76 63.03 81.9 62.83C82.06 62.61 82.18 62.45 82.26 62.35C82.36 62.25 82.45 62.2 82.53 62.2C82.71 62.2 83.18 62.53 83.94 63.19C84.72 63.85 85.19 64.33 85.35 64.63C85.41 64.73 85.41 64.82 85.35 64.9C85.23 65.14 84.99 65.26 84.63 65.26H76.77ZM100.83 46.21C100.83 46.33 100.59 46.47 100.11 46.63C99.65 46.79 99.16 46.87 98.64 46.87C98.32 46.87 98.12 46.72 98.04 46.42C98.04 46.3 98.05 46.2 98.07 46.12C98.11 45.72 98.13 45.43 98.13 45.25L98.19 44.5V43.3C98.19 42.02 98.13 40.89 98.01 39.91C98.01 39.71 98.1 39.64 98.28 39.7C99.54 40 100.41 40.25 100.89 40.45C101.39 40.63 101.64 40.79 101.64 40.93C101.64 41.01 101.55 41.1 101.37 41.2L100.83 41.53V44.53H106.89C106.89 42.39 106.78 40.5 106.56 38.86C106.56 38.66 106.65 38.58 106.83 38.62C108.17 38.94 109.09 39.19 109.59 39.37C110.11 39.55 110.37 39.71 110.37 39.85C110.37 39.95 110.29 40.05 110.13 40.15L109.59 40.48V44.53H115.77C115.77 42.73 115.68 41.19 115.5 39.91C115.5 39.71 115.59 39.63 115.77 39.67C117.09 39.99 118 40.25 118.5 40.45C119 40.63 119.25 40.79 119.25 40.93C119.25 41.01 119.17 41.1 119.01 41.2L118.5 41.53V42.58L118.56 43.96C118.56 44.32 118.58 44.86 118.62 45.58C118.66 45.72 118.64 45.81 118.56 45.85C118.4 46.01 118.09 46.16 117.63 46.3C117.17 46.44 116.71 46.51 116.25 46.51H116.01C115.85 46.51 115.77 46.43 115.77 46.27V45.37H100.83V46.21ZM117.33 47.26C117.41 47.14 117.52 46.98 117.66 46.78C117.82 46.56 117.94 46.4 118.02 46.3C118.12 46.2 118.21 46.15 118.29 46.15C118.45 46.15 118.91 46.49 119.67 47.17C120.43 47.83 120.89 48.31 121.05 48.61C121.11 48.71 121.11 48.81 121.05 48.91C120.93 49.11 120.7 49.21 120.36 49.21H100.53V53.23C100.53 55.89 100.17 58.34 99.45 60.58C98.75 62.8 97.3 64.71 95.1 66.31C94.98 66.39 94.87 66.38 94.77 66.28C94.67 66.18 94.66 66.07 94.74 65.95C95.96 64.23 96.77 62.34 97.17 60.28C97.57 58.2 97.77 55.85 97.77 53.23V50.17C97.77 49.21 97.72 48.25 97.62 47.29C97.62 47.19 97.64 47.12 97.68 47.08C97.74 47.04 97.81 47.04 97.89 47.08L100.98 48.37H116.58L117.33 47.26ZM113.43 56.62C113.97 55.84 114.49 54.94 114.99 53.92C115.51 52.9 115.89 52 116.13 51.22C116.19 51.04 116.3 51 116.46 51.1C117.68 51.8 118.53 52.33 119.01 52.69C119.51 53.03 119.76 53.27 119.76 53.41C119.76 53.49 119.66 53.55 119.46 53.59L118.86 53.68C117.96 54.58 117 55.43 115.98 56.23C114.98 57.03 114.01 57.69 113.07 58.21C113.85 59.47 114.91 60.54 116.25 61.42C117.61 62.3 119.34 63.02 121.44 63.58C121.58 63.6 121.65 63.68 121.65 63.82C121.63 63.9 121.6 63.96 121.56 64C121.52 64.02 121.47 64.04 121.41 64.06C120.25 64.34 119.56 65.08 119.34 66.28C119.32 66.46 119.23 66.52 119.07 66.46C116.45 65.42 114.53 63.94 113.31 62.02C112.09 60.1 111.28 57.64 110.88 54.64C110.72 56.62 110.31 58.31 109.65 59.71C108.99 61.11 107.81 62.38 106.11 63.52C104.43 64.66 102.03 65.64 98.91 66.46H98.82C98.72 66.46 98.64 66.42 98.58 66.34L98.55 66.31C98.53 66.29 98.52 66.25 98.52 66.19C98.52 66.09 98.57 66.02 98.67 65.98C100.79 65.18 102.48 64.3 103.74 63.34C105 62.38 105.94 61.34 106.56 60.22C107.18 59.1 107.6 57.83 107.82 56.41C107.94 55.59 108 54.67 108 53.65C108 52.31 107.92 51.14 107.76 50.14C107.76 49.94 107.85 49.86 108.03 49.9C109.43 50.02 110.4 50.14 110.94 50.26C111.48 50.38 111.75 50.5 111.75 50.62C111.75 50.68 111.68 50.76 111.54 50.86L111.06 51.16C111.32 53.88 111.88 56.03 112.74 57.61L113.43 56.62ZM104.28 52.12C104.28 52.02 104.3 51.94 104.34 51.88C104.38 51.8 104.44 51.76 104.52 51.76C104.68 51.76 104.77 51.82 104.79 51.94C105.17 52.98 105.36 53.99 105.36 54.97C105.36 55.81 105.22 56.55 104.94 57.19C104.66 57.83 104.31 58.3 103.89 58.6C103.55 58.86 103.16 58.99 102.72 58.99C102.44 58.99 102.18 58.92 101.94 58.78C101.72 58.64 101.55 58.44 101.43 58.18C101.37 58 101.34 57.83 101.34 57.67C101.34 57.05 101.69 56.53 102.39 56.11C102.91 55.75 103.35 55.2 103.71 54.46C104.09 53.72 104.28 52.94 104.28 52.12ZM146.22 44.23C146.28 44.15 146.38 44.03 146.52 43.87C146.66 43.69 146.77 43.56 146.85 43.48C146.95 43.38 147.04 43.33 147.12 43.33C147.3 43.33 147.73 43.6 148.41 44.14C149.11 44.68 149.53 45.09 149.67 45.37C149.73 45.47 149.73 45.57 149.67 45.67C149.55 45.89 149.31 46 148.95 46H140.28V48.7H147.6L148.32 47.65C148.38 47.55 148.48 47.4 148.62 47.2C148.78 46.98 148.91 46.82 149.01 46.72C149.11 46.62 149.2 46.57 149.28 46.57C149.46 46.57 149.92 46.89 150.66 47.53C151.4 48.15 151.85 48.61 152.01 48.91C152.05 48.99 152.07 49.04 152.07 49.06C152.07 49.2 151.99 49.32 151.83 49.42C151.67 49.5 151.49 49.54 151.29 49.54H139.53C137.87 50.88 136.36 51.97 135 52.81C135.64 53.37 135.96 53.97 135.96 54.61C135.96 54.97 135.85 55.27 135.63 55.51C135.43 55.73 135.15 55.84 134.79 55.84C134.67 55.84 134.51 55.82 134.31 55.78C134.21 55.76 134.13 55.69 134.07 55.57C133.65 54.93 133.02 54.27 132.18 53.59C131.36 52.89 130.53 52.29 129.69 51.79C129.63 51.77 129.59 51.73 129.57 51.67C129.55 51.61 129.56 51.56 129.6 51.52C129.66 51.42 129.76 51.37 129.9 51.37C131.6 51.39 133 51.68 134.1 52.24C134.68 51.32 135.2 50.42 135.66 49.54H131.16C129.88 49.56 128.45 49.69 126.87 49.93H126.81C126.71 49.93 126.63 49.88 126.57 49.78L126.03 48.76L126 48.64C126 48.54 126.07 48.49 126.21 48.49C127.29 48.59 128.5 48.66 129.84 48.7H137.58V46H133.86C132.58 46.02 131.15 46.15 129.57 46.39H129.48C129.4 46.39 129.33 46.34 129.27 46.24L128.73 45.19C128.71 45.17 128.7 45.13 128.7 45.07C128.7 44.97 128.77 44.92 128.91 44.92C130.01 45.02 131.23 45.09 132.57 45.13H137.58V42.46H132.66C131.38 42.48 129.95 42.61 128.37 42.85H128.28C128.2 42.85 128.13 42.8 128.07 42.7L127.53 41.65C127.51 41.63 127.5 41.59 127.5 41.53C127.5 41.43 127.57 41.38 127.71 41.38C128.81 41.48 130.03 41.55 131.37 41.59H137.58C137.58 40.65 137.53 39.73 137.43 38.83C137.43 38.63 137.52 38.55 137.7 38.59C138.96 38.91 139.83 39.17 140.31 39.37C140.81 39.55 141.06 39.71 141.06 39.85C141.06 39.95 140.98 40.05 140.82 40.15L140.28 40.51V41.59H146.34L147.06 40.63C147.16 40.51 147.26 40.38 147.36 40.24C147.48 40.08 147.59 39.94 147.69 39.82C147.81 39.7 147.91 39.64 147.99 39.64C148.17 39.64 148.64 39.94 149.4 40.54C150.16 41.12 150.62 41.55 150.78 41.83C150.84 41.93 150.84 42.03 150.78 42.13C150.66 42.35 150.42 42.46 150.06 42.46H140.28V45.13H145.53L146.22 44.23ZM145.89 56.77C146.13 56.75 146.48 56.74 146.94 56.74C146.02 55.86 145.06 55.11 144.06 54.49C143.94 54.39 143.91 54.29 143.97 54.19C144.05 54.11 144.15 54.08 144.27 54.1C145.91 54.28 147.26 54.63 148.32 55.15C149.4 55.65 150.18 56.22 150.66 56.86C151.14 57.48 151.38 58.08 151.38 58.66C151.38 59.06 151.27 59.39 151.05 59.65C150.83 59.89 150.53 60.01 150.15 60.01C149.95 60.01 149.74 59.97 149.52 59.89C149.42 59.87 149.34 59.8 149.28 59.68C148.92 58.94 148.39 58.21 147.69 57.49L140.28 58.3V60.85C140.34 62.93 140.4 64.51 140.46 65.59C140.46 65.71 140.42 65.81 140.34 65.89C140.18 66.05 139.89 66.19 139.47 66.31C139.07 66.45 138.6 66.52 138.06 66.52C137.84 66.52 137.67 66.46 137.55 66.34C137.43 66.22 137.37 66.08 137.37 65.92C137.49 64.36 137.57 62.79 137.61 61.21V58.54L131.7 59.08L128.61 59.35C128.47 59.57 128.26 59.75 127.98 59.89L127.89 59.92C127.83 59.92 127.76 59.86 127.68 59.74L126.6 57.22L126.57 57.1C126.57 57 126.64 56.95 126.78 56.95L129.3 56.98C130.12 56.98 131.75 56.96 134.19 56.92H134.85C135.81 56.24 136.88 55.37 138.06 54.31C138.8 53.67 139.5 52.98 140.16 52.24C140.84 51.48 141.38 50.76 141.78 50.08C141.88 49.92 141.99 49.89 142.11 49.99C144.05 50.97 145.02 51.59 145.02 51.85C145.02 51.93 144.93 51.99 144.75 52.03L144.21 52.15C143.33 52.89 142.2 53.7 140.82 54.58C139.46 55.44 138.07 56.21 136.65 56.89L145.89 56.77ZM132.96 59.59C133.06 59.45 133.17 59.43 133.29 59.53L134.79 60.76C135.65 61.26 136.08 61.6 136.08 61.78C136.08 61.9 135.96 61.96 135.72 61.96L135.18 61.99C134.18 62.75 132.9 63.48 131.34 64.18C129.78 64.9 128.2 65.45 126.6 65.83C126.58 65.85 126.54 65.86 126.48 65.86C126.38 65.86 126.31 65.81 126.27 65.71L126.24 65.68C126.22 65.66 126.21 65.62 126.21 65.56C126.21 65.48 126.25 65.41 126.33 65.35C126.93 65.05 127.81 64.5 128.97 63.7C129.75 63.14 130.5 62.49 131.22 61.75C131.96 61.01 132.54 60.29 132.96 59.59ZM142.05 60.76C141.93 60.66 141.9 60.56 141.96 60.46C142.02 60.36 142.12 60.31 142.26 60.31C144.16 60.43 145.73 60.73 146.97 61.21C148.23 61.69 149.14 62.25 149.7 62.89C150.28 63.51 150.57 64.11 150.57 64.69C150.57 65.05 150.45 65.35 150.21 65.59C149.99 65.83 149.69 65.95 149.31 65.95C149.25 65.95 149.12 65.93 148.92 65.89C148.8 65.87 148.72 65.82 148.68 65.74C148 64.9 147.02 64.01 145.74 63.07C144.48 62.13 143.25 61.36 142.05 60.76ZM164.7 61.6C164.42 61.6 164.08 61.43 163.68 61.09C163.28 60.75 162.93 60.37 162.63 59.95C162.33 59.51 162.18 59.19 162.18 58.99C162.18 58.87 162.23 58.72 162.33 58.54C162.45 58.34 162.52 58.15 162.54 57.97C162.7 56.79 162.78 55.3 162.78 53.5C162.78 51.5 162.65 49.54 162.39 47.62C162.33 47.2 162.13 46.92 161.79 46.78C161.47 46.64 161.13 46.57 160.77 46.57C160.47 46.57 160.32 46.53 160.32 46.45C160.32 46.15 160.59 45.89 161.13 45.67C161.67 45.45 162.14 45.34 162.54 45.34C162.94 45.34 163.42 45.44 163.98 45.64C164.56 45.84 165.06 46.1 165.48 46.42C165.9 46.72 166.11 47.03 166.11 47.35C166.11 47.53 166.08 47.69 166.02 47.83C165.96 47.97 165.86 48.13 165.72 48.31C165.56 48.55 165.43 48.78 165.33 49C165.25 49.22 165.2 49.49 165.18 49.81L165.12 51.31L165.03 53.62V55.24C165.03 55.88 165.04 56.33 165.06 56.59C165.06 57.21 165.18 57.52 165.42 57.52C165.7 57.52 166.7 57.13 168.42 56.35C170.16 55.55 172.2 54.35 174.54 52.75C176.88 51.15 179.19 49.16 181.47 46.78C181.71 46.54 181.88 46.42 181.98 46.42C182.04 46.42 182.07 46.47 182.07 46.57C182.07 46.63 182.03 46.72 181.95 46.84C181.89 46.96 181.82 47.07 181.74 47.17C180.2 49.31 178.44 51.28 176.46 53.08C174.48 54.88 172.63 56.37 170.91 57.55C169.19 58.73 167.83 59.57 166.83 60.07C166.51 60.25 166.2 60.51 165.9 60.85C165.68 61.09 165.48 61.28 165.3 61.42C165.12 61.54 164.92 61.6 164.7 61.6ZM212.1 42.67C211.6 42.67 211.17 42.39 210.81 41.83C210.43 41.21 210.07 40.73 209.73 40.39C209.39 40.03 208.95 39.7 208.41 39.4C208.31 39.36 208.17 39.3 207.99 39.22C207.81 39.12 207.68 39.04 207.6 38.98C207.52 38.92 207.48 38.86 207.48 38.8C207.48 38.66 207.82 38.59 208.5 38.59C209.16 38.59 209.86 38.69 210.6 38.89C211.34 39.09 211.97 39.4 212.49 39.82C213.01 40.24 213.27 40.77 213.27 41.41C213.27 41.79 213.14 42.1 212.88 42.34C212.64 42.56 212.38 42.67 212.1 42.67ZM208.8 45.52C208.12 45.52 207.65 45.2 207.39 44.56C207.13 43.92 206.83 43.37 206.49 42.91C206.17 42.45 205.74 42.02 205.2 41.62C205.08 41.54 204.93 41.45 204.75 41.35C204.59 41.23 204.51 41.14 204.51 41.08C204.51 41 204.55 40.95 204.63 40.93C204.73 40.91 204.84 40.9 204.96 40.9C205.36 40.9 205.97 41.02 206.79 41.26C207.63 41.48 208.38 41.84 209.04 42.34C209.72 42.84 210.06 43.47 210.06 44.23C210.06 44.67 209.93 45 209.67 45.22C209.43 45.42 209.14 45.52 208.8 45.52ZM199.11 48.01C198.83 48.01 198.54 47.94 198.24 47.8C197.96 47.64 197.76 47.48 197.64 47.32C197.06 46.62 196.58 46.09 196.2 45.73C195.84 45.37 195.38 45.02 194.82 44.68C194.44 44.46 194.12 44.31 193.86 44.23C193.6 44.15 193.45 44.1 193.41 44.08C193.21 44.02 193.11 43.95 193.11 43.87C193.11 43.73 193.29 43.63 193.65 43.57C194.01 43.51 194.38 43.48 194.76 43.48C196.22 43.48 197.52 43.75 198.66 44.29C199.8 44.81 200.37 45.56 200.37 46.54C200.37 46.94 200.25 47.29 200.01 47.59C199.77 47.87 199.47 48.01 199.11 48.01ZM194.34 63.85C194.12 63.85 193.89 63.72 193.65 63.46C193.09 62.82 192.64 62.06 192.3 61.18C191.96 60.28 191.77 59.5 191.73 58.84C191.73 58.66 191.75 58.5 191.79 58.36C191.83 58.22 191.9 58.15 192 58.15C192.08 58.15 192.18 58.25 192.3 58.45C192.44 58.63 192.58 58.8 192.72 58.96C193.16 59.4 193.74 59.62 194.46 59.62C194.94 59.62 195.44 59.51 195.96 59.29C198.76 58.17 201.6 56.52 204.48 54.34C207.36 52.16 210.08 49.56 212.64 46.54C212.82 46.28 212.99 46.15 213.15 46.15C213.27 46.15 213.33 46.2 213.33 46.3C213.33 46.4 213.26 46.59 213.12 46.87C211.08 50.21 208.49 53.27 205.35 56.05C202.21 58.81 199.16 60.97 196.2 62.53C196.02 62.61 195.83 62.74 195.63 62.92C195.45 63.08 195.32 63.19 195.24 63.25C194.88 63.65 194.58 63.85 194.34 63.85ZM195.54 54.13C195.28 54.13 195.03 54.07 194.79 53.95C194.55 53.83 194.35 53.67 194.19 53.47C193.71 52.89 193.3 52.45 192.96 52.15C192.64 51.83 192.25 51.53 191.79 51.25C191.27 50.95 190.66 50.71 189.96 50.53C189.82 50.47 189.75 50.4 189.75 50.32C189.75 50.18 190.02 50.06 190.56 49.96C191.1 49.86 191.6 49.81 192.06 49.81C193.34 49.81 194.46 50.08 195.42 50.62C196.38 51.14 196.86 51.86 196.86 52.78C196.86 53.18 196.73 53.51 196.47 53.77C196.21 54.01 195.9 54.13 195.54 54.13ZM241.23 39.79C241.87 39.79 242.56 39.9 243.3 40.12C244.06 40.32 244.7 40.64 245.22 41.08C245.76 41.5 246.03 42.02 246.03 42.64C246.03 43.02 245.92 43.31 245.7 43.51C245.48 43.71 245.23 43.81 244.95 43.81C244.69 43.81 244.45 43.74 244.23 43.6C244.03 43.46 243.86 43.27 243.72 43.03C243.36 42.39 243.03 41.89 242.73 41.53C242.43 41.17 242.04 40.85 241.56 40.57C241.42 40.49 241.28 40.42 241.14 40.36C241.02 40.28 240.91 40.21 240.81 40.15C240.73 40.09 240.69 40.03 240.69 39.97C240.69 39.85 240.87 39.79 241.23 39.79ZM228.72 44.68C228.12 44.68 227.58 44.58 227.1 44.38C226.62 44.18 226.22 43.92 225.9 43.6C225.76 43.44 225.62 43.25 225.48 43.03C225.34 42.79 225.27 42.62 225.27 42.52C225.27 42.44 225.32 42.4 225.42 42.4C225.5 42.4 225.65 42.43 225.87 42.49C226.09 42.55 226.34 42.6 226.62 42.64C226.8 42.68 227.04 42.7 227.34 42.7C227.8 42.7 228.4 42.65 229.14 42.55C230.1 42.45 230.87 42.33 231.45 42.19C232.05 42.03 232.66 41.85 233.28 41.65C233.54 41.55 233.79 41.47 234.03 41.41C234.29 41.33 234.54 41.29 234.78 41.29C235.48 41.29 236.11 41.46 236.67 41.8C237.23 42.14 237.51 42.53 237.51 42.97C237.51 43.29 237.38 43.52 237.12 43.66C236.88 43.8 236.49 43.89 235.95 43.93H235.23C234.05 43.93 232.52 44.1 230.64 44.44C230.44 44.46 230.12 44.51 229.68 44.59C229.26 44.65 228.94 44.68 228.72 44.68ZM238.5 41.74C238.76 41.74 239.29 41.86 240.09 42.1C240.91 42.32 241.66 42.68 242.34 43.18C243.04 43.68 243.39 44.32 243.39 45.1C243.39 45.54 243.27 45.86 243.03 46.06C242.79 46.26 242.5 46.36 242.16 46.36C241.5 46.36 241.05 46.02 240.81 45.34C240.59 44.72 240.33 44.18 240.03 43.72C239.73 43.26 239.34 42.84 238.86 42.46C238.8 42.42 238.7 42.36 238.56 42.28C238.44 42.18 238.35 42.11 238.29 42.07C238.25 42.01 238.23 41.95 238.23 41.89C238.23 41.79 238.32 41.74 238.5 41.74ZM237.96 46.66C238.42 46.66 238.96 46.75 239.58 46.93C240.2 47.11 240.73 47.36 241.17 47.68C241.63 47.98 241.86 48.3 241.86 48.64C241.86 49.22 241.48 49.51 240.72 49.51L239.73 49.45C238.53 49.33 237.46 49.27 236.52 49.27C235.52 49.27 234.54 49.3 233.58 49.36C234.1 49.64 234.53 49.95 234.87 50.29C235.21 50.63 235.38 50.92 235.38 51.16C235.38 51.26 235.34 51.36 235.26 51.46C235.2 51.54 235.1 51.63 234.96 51.73C234.64 52.01 234.44 52.27 234.36 52.51C233.76 54.15 232.9 55.83 231.78 57.55C230.66 59.27 229.2 60.88 227.4 62.38C225.62 63.86 223.56 65.01 221.22 65.83C221.04 65.89 220.89 65.92 220.77 65.92C220.65 65.92 220.59 65.89 220.59 65.83C220.59 65.75 220.74 65.62 221.04 65.44C223.58 63.84 225.77 61.87 227.61 59.53C229.45 57.17 230.79 54.48 231.63 51.46C231.71 51.2 231.75 50.95 231.75 50.71C231.75 50.29 231.52 49.93 231.06 49.63C230.2 49.75 229.47 49.9 228.87 50.08C228.27 50.24 227.62 50.44 226.92 50.68C226.48 50.84 226.12 50.96 225.84 51.04C225.58 51.12 225.31 51.16 225.03 51.16C224.59 51.16 224.11 50.97 223.59 50.59C223.07 50.21 222.63 49.77 222.27 49.27C221.93 48.75 221.76 48.33 221.76 48.01C221.76 47.95 221.78 47.9 221.82 47.86C221.86 47.82 221.9 47.8 221.94 47.8C222.02 47.8 222.15 47.85 222.33 47.95C222.51 48.05 222.67 48.13 222.81 48.19C223.39 48.49 224.19 48.64 225.21 48.64C226.03 48.64 227.68 48.5 230.16 48.22C232.66 47.94 234.43 47.69 235.47 47.47C236.21 47.31 236.81 47.1 237.27 46.84C237.51 46.72 237.74 46.66 237.96 46.66ZM259.41 48.88C258.71 48.88 258.11 48.47 257.61 47.65C257.09 46.81 256.43 46.08 255.63 45.46C254.83 44.84 254 44.46 253.14 44.32C252.8 44.22 252.63 44.14 252.63 44.08C252.63 43.96 252.86 43.88 253.32 43.84C253.78 43.78 254.26 43.75 254.76 43.75C255.66 43.75 256.54 43.84 257.4 44.02C258.26 44.2 258.97 44.5 259.53 44.92C259.95 45.24 260.27 45.6 260.49 46C260.73 46.4 260.85 46.81 260.85 47.23C260.85 47.67 260.72 48.06 260.46 48.4C260.2 48.72 259.85 48.88 259.41 48.88ZM253.44 59.59C253.32 59.19 253.26 58.82 253.26 58.48C253.26 57.94 253.33 57.55 253.47 57.31C253.49 57.27 253.52 57.25 253.56 57.25C253.62 57.23 253.66 57.24 253.68 57.28C253.72 57.32 253.79 57.44 253.89 57.64C253.99 57.84 254.17 58.07 254.43 58.33C254.91 58.85 255.44 59.11 256.02 59.11C256.72 59.11 258 58.57 259.86 57.49C261.74 56.41 263.95 54.83 266.49 52.75C269.05 50.65 271.65 48.18 274.29 45.34C274.49 45.14 274.64 45.04 274.74 45.04C274.82 45.04 274.86 45.08 274.86 45.16C274.86 45.3 274.77 45.5 274.59 45.76C272.43 48.94 269.99 51.9 267.27 54.64C264.55 57.38 262.16 59.44 260.1 60.82C259.98 60.9 259.79 61.02 259.53 61.18C259.27 61.34 259.05 61.5 258.87 61.66C258.69 61.8 258.5 61.98 258.3 62.2C257.96 62.62 257.55 62.83 257.07 62.83C256.61 62.83 256.12 62.66 255.6 62.32C255.08 61.98 254.62 61.56 254.22 61.06C253.82 60.54 253.56 60.05 253.44 59.59ZM295.32 53.5C297.3 54.28 299.12 55.27 300.78 56.47C302.46 57.67 303.3 58.88 303.3 60.1C303.3 60.62 303.14 61.04 302.82 61.36C302.5 61.68 302.15 61.84 301.77 61.84C301.43 61.84 301.09 61.7 300.75 61.42C300.43 61.14 300.16 60.75 299.94 60.25C299.32 58.93 298.57 57.72 297.69 56.62C296.81 55.52 295.88 54.65 294.9 54.01C291.22 58.09 286.75 61.19 281.49 63.31C281.37 63.35 281.27 63.37 281.19 63.37C281.07 63.37 281.01 63.33 281.01 63.25C281.01 63.17 281.13 63.06 281.37 62.92C283.51 61.76 285.62 60.22 287.7 58.3C289.8 56.36 291.61 54.39 293.13 52.39C294.65 50.37 295.67 48.68 296.19 47.32C296.25 47.14 296.28 47.01 296.28 46.93C296.28 46.83 296.2 46.78 296.04 46.78C295.72 46.78 294.77 47 293.19 47.44C291.63 47.88 290.49 48.26 289.77 48.58C289.61 48.64 289.39 48.74 289.11 48.88C288.85 49.02 288.62 49.09 288.42 49.09C287.92 49.09 287.42 48.9 286.92 48.52C286.44 48.12 286.04 47.66 285.72 47.14C285.42 46.6 285.27 46.14 285.27 45.76C285.27 45.48 285.34 45.34 285.48 45.34C285.54 45.34 285.66 45.42 285.84 45.58C286.02 45.72 286.21 45.84 286.41 45.94C286.89 46.16 287.42 46.27 288 46.27C288.4 46.27 289.68 46.09 291.84 45.73C294.02 45.37 295.39 45.12 295.95 44.98C296.27 44.9 296.64 44.73 297.06 44.47C297.4 44.25 297.63 44.14 297.75 44.14C298.01 44.14 298.38 44.3 298.86 44.62C299.34 44.94 299.77 45.31 300.15 45.73C300.53 46.13 300.72 46.46 300.72 46.72C300.72 46.86 300.65 47 300.51 47.14C300.39 47.28 300.2 47.44 299.94 47.62C299.76 47.76 299.58 47.91 299.4 48.07C299.22 48.21 299.08 48.36 298.98 48.52C297.8 50.38 296.58 52.04 295.32 53.5Z" fill="#2F3829"/>
<path d="M101.204 2.368C101.204 1.728 101.172 1.16267 101.108 0.671999C101.108 0.565332 101.161 0.527999 101.268 0.559999C102.143 0.826666 102.58 1.02933 102.58 1.168C102.58 1.21067 102.537 1.25867 102.452 1.312L102.212 1.472V4.176C102.212 4.47467 102.18 4.71467 102.116 4.896C102.052 5.07733 101.913 5.232 101.7 5.36C101.497 5.47733 101.193 5.55733 100.788 5.6H100.756C100.703 5.6 100.665 5.56267 100.644 5.488C100.58 5.232 100.484 5.05067 100.356 4.944C100.111 4.77333 99.748 4.656 99.268 4.592C99.1827 4.57067 99.14 4.52267 99.14 4.448C99.14 4.37333 99.172 4.336 99.236 4.336C99.3747 4.336 99.5293 4.34133 99.7 4.352C99.8707 4.36267 100.036 4.37333 100.196 4.384C100.495 4.416 100.729 4.432 100.9 4.432C101.017 4.432 101.097 4.41067 101.14 4.368C101.183 4.31467 101.204 4.23467 101.204 4.128V2.368ZM98.18 1.52C98.212 1.43467 98.2653 1.41867 98.34 1.472L99.028 1.968C99.412 2.14933 99.604 2.288 99.604 2.384C99.604 2.42667 99.5453 2.45867 99.428 2.48L99.14 2.496C98.7027 2.99733 98.1267 3.52 97.412 4.064C96.708 4.59733 95.988 5.03467 95.252 5.376C95.1773 5.408 95.1187 5.392 95.076 5.328L95.06 5.312C95.0067 5.23733 95.0173 5.17867 95.092 5.136C95.508 4.83733 95.94 4.464 96.388 4.016C96.7507 3.65333 97.0973 3.248 97.428 2.8C97.7587 2.352 98.0093 1.92533 98.18 1.52ZM104.532 1.888C104.457 1.856 104.447 1.80267 104.5 1.728C104.532 1.67467 104.591 1.65867 104.676 1.68C105.551 1.904 106.265 2.18667 106.82 2.528C107.385 2.86933 107.791 3.216 108.036 3.568C108.292 3.92 108.42 4.23467 108.42 4.512C108.42 4.68267 108.377 4.816 108.292 4.912C108.217 5.008 108.111 5.056 107.972 5.056C107.897 5.056 107.812 5.04 107.716 5.008C107.663 4.99733 107.625 4.96533 107.604 4.912C107.359 4.42133 106.937 3.89333 106.34 3.328C105.753 2.76267 105.151 2.28267 104.532 1.888ZM105.652 6.848C105.684 6.816 105.737 6.75733 105.812 6.672C105.887 6.576 105.956 6.528 106.02 6.528C106.116 6.528 106.303 6.64 106.58 6.864C106.868 7.07733 107.044 7.25867 107.108 7.408C107.14 7.45067 107.129 7.49867 107.076 7.552C106.927 7.68 106.745 7.76 106.532 7.792V10.912C106.553 12.2453 106.596 13.4667 106.66 14.576C106.66 14.64 106.639 14.6933 106.596 14.736C106.489 14.832 106.351 14.9173 106.18 14.992C106.009 15.0667 105.849 15.104 105.7 15.104C105.593 15.104 105.519 15.024 105.476 14.864L105.492 14.704L105.54 14.48V14.16H99.108V14.88C99.108 14.9547 99.0173 15.0347 98.836 15.12C98.6653 15.216 98.484 15.264 98.292 15.264C98.2067 15.264 98.1267 15.232 98.052 15.168C97.9773 15.104 97.94 15.0293 97.94 14.944C97.9827 14.3147 98.02 13.7067 98.052 13.12C98.084 12.5227 98.1053 11.744 98.116 10.784V7.84C96.9533 8.17067 95.8547 8.41067 94.82 8.56H94.788C94.7347 8.56 94.6973 8.528 94.676 8.464L94.66 8.432V8.4C94.66 8.32533 94.692 8.28267 94.756 8.272C96.036 7.96267 97.156 7.616 98.116 7.232V6.8C98.116 6.75733 98.1267 6.72533 98.148 6.704C98.18 6.68267 98.2173 6.68267 98.26 6.704L98.804 6.96C100.127 6.39467 101.321 5.74933 102.388 5.024C102.804 4.74667 103.188 4.43733 103.54 4.096C103.892 3.744 104.185 3.38667 104.42 3.024C104.441 2.992 104.468 2.976 104.5 2.976C104.543 2.96533 104.58 2.976 104.612 3.008C105.316 3.616 105.668 3.984 105.668 4.112C105.668 4.16533 105.615 4.18133 105.508 4.16L105.204 4.128C104.628 4.69333 103.908 5.23733 103.044 5.76C102.18 6.28267 101.22 6.74667 100.164 7.152H105.396L105.652 6.848ZM105.54 9.312V7.632H99.108V9.312H105.54ZM105.54 9.76H99.108V11.472H105.54V9.76ZM99.108 11.936V13.68H105.54V11.936H99.108ZM124.42 9.696C124.537 9.696 124.729 9.74933 124.996 9.856C125.273 9.96267 125.519 10.1013 125.732 10.272C125.956 10.4427 126.068 10.6187 126.068 10.8C126.068 11.0773 125.887 11.216 125.524 11.216C125.353 11.216 125.193 11.2 125.044 11.168C124.031 10.9653 122.847 10.864 121.492 10.864C120.873 10.864 120.148 10.896 119.316 10.96C118.015 11.0773 116.724 11.28 115.444 11.568C115.359 11.5893 115.231 11.632 115.06 11.696C114.911 11.76 114.777 11.808 114.66 11.84C114.553 11.872 114.425 11.888 114.276 11.888C114.031 11.888 113.769 11.8293 113.492 11.712C113.225 11.584 113.001 11.4293 112.82 11.248C112.639 11.056 112.548 10.864 112.548 10.672C112.548 10.6507 112.559 10.6293 112.58 10.608C112.601 10.5867 112.623 10.576 112.644 10.576C112.687 10.576 112.751 10.5973 112.836 10.64C112.932 10.6827 113.017 10.7147 113.092 10.736C113.305 10.8107 113.545 10.848 113.812 10.848C113.983 10.848 114.863 10.7627 116.452 10.592L118.676 10.352C118.815 8.79467 118.884 7.71733 118.884 7.12C118.884 6.97067 118.879 6.86933 118.868 6.816C118.825 6.61333 118.756 6.45333 118.66 6.336C118.575 6.208 118.495 6.112 118.42 6.048C118.345 5.97333 118.297 5.93067 118.276 5.92C117.679 6.016 117.257 6.09067 117.012 6.144C116.639 6.21867 116.372 6.28267 116.212 6.336C116.052 6.38933 115.929 6.416 115.844 6.416C115.62 6.416 115.407 6.34667 115.204 6.208C115.001 6.06933 114.847 5.91467 114.74 5.744C114.644 5.59467 114.596 5.488 114.596 5.424C114.596 5.33867 114.628 5.296 114.692 5.296C114.745 5.296 114.82 5.312 114.916 5.344C114.948 5.35467 115.044 5.38133 115.204 5.424C115.375 5.456 115.609 5.472 115.908 5.472C116.26 5.472 117.103 5.38667 118.436 5.216C119.769 5.04533 120.623 4.89067 120.996 4.752C121.348 4.624 121.604 4.544 121.764 4.512C121.935 4.48 122.095 4.464 122.244 4.464C122.5 4.464 122.729 4.50667 122.932 4.592C123.145 4.67733 123.311 4.77867 123.428 4.896C123.545 5.01333 123.604 5.10933 123.604 5.184C123.604 5.26933 123.551 5.33333 123.444 5.376C123.348 5.41867 123.241 5.44 123.124 5.44H122.82C121.967 5.44 120.783 5.54667 119.268 5.76C119.524 5.87733 119.743 6.02133 119.924 6.192C120.116 6.352 120.212 6.496 120.212 6.624C120.212 6.67733 120.169 6.77867 120.084 6.928C119.988 7.06667 119.929 7.18933 119.908 7.296C119.876 7.40267 119.828 7.792 119.764 8.464C119.711 9.136 119.663 9.73333 119.62 10.256C120.9 10.128 121.759 10.064 122.196 10.064C122.58 10.064 122.969 10.0373 123.364 9.984C123.524 9.96267 123.716 9.90933 123.94 9.824C124.196 9.73867 124.356 9.696 124.42 9.696ZM135.092 1.024C135.06 1.01333 135.012 0.997333 134.948 0.976C134.895 0.954666 134.868 0.927999 134.868 0.895999C134.868 0.821333 135.007 0.783999 135.284 0.783999C135.647 0.783999 136.057 0.853333 136.516 0.992C136.985 1.13067 137.385 1.32267 137.716 1.568C138.057 1.81333 138.228 2.08 138.228 2.368C138.228 2.56 138.164 2.72 138.036 2.848C137.919 2.96533 137.785 3.024 137.636 3.024C137.391 3.024 137.156 2.85333 136.932 2.512C136.783 2.27733 136.553 2.016 136.244 1.728C135.945 1.44 135.561 1.20533 135.092 1.024ZM139.236 5.456C139.236 5.52 139.199 5.584 139.124 5.648C139.06 5.712 138.943 5.78667 138.772 5.872C138.665 5.92533 138.548 5.99467 138.42 6.08C138.303 6.16533 138.223 6.23467 138.18 6.288C137.924 6.61867 137.599 6.992 137.204 7.408C137.481 7.58933 137.679 7.728 137.796 7.824C137.924 7.92 137.988 8.02667 137.988 8.144C137.988 8.24 137.977 8.352 137.956 8.48C137.935 8.59733 137.919 8.74667 137.908 8.928C137.865 9.504 137.844 10.1227 137.844 10.784C137.844 11.6267 137.839 12.16 137.828 12.384C137.828 12.5973 137.828 12.7253 137.828 12.768L137.844 13.312C137.865 13.568 137.876 13.7653 137.876 13.904C137.876 14.16 137.844 14.3627 137.78 14.512C137.716 14.6613 137.599 14.736 137.428 14.736C137.215 14.736 137.033 14.5707 136.884 14.24C136.745 13.9093 136.676 13.5787 136.676 13.248C136.676 13.1307 136.681 13.0507 136.692 13.008C136.777 12.6453 136.852 12.1707 136.916 11.584C136.991 10.9867 137.028 10.3947 137.028 9.808C137.028 9.296 136.996 8.82667 136.932 8.4C136.911 8.21867 136.847 8.048 136.74 7.888C135.737 8.89067 134.633 9.84 133.428 10.736C132.233 11.6213 131.103 12.2773 130.036 12.704C129.961 12.736 129.897 12.752 129.844 12.752C129.78 12.752 129.748 12.7307 129.748 12.688C129.748 12.6347 129.812 12.5707 129.94 12.496C131.359 11.6107 132.617 10.672 133.716 9.68C134.815 8.67733 135.668 7.78133 136.276 6.992C136.884 6.20267 137.193 5.70133 137.204 5.488C137.204 5.424 137.156 5.392 137.06 5.392C136.836 5.392 136.548 5.45067 136.196 5.568C135.844 5.68533 135.407 5.85067 134.884 6.064C134.564 6.192 134.26 6.30933 133.972 6.416C133.684 6.512 133.476 6.56 133.348 6.56C133.092 6.56 132.847 6.464 132.612 6.272C132.377 6.08 132.191 5.792 132.052 5.408C132.031 5.344 132.02 5.296 132.02 5.264C132.02 5.21067 132.036 5.184 132.068 5.184C132.1 5.184 132.153 5.21067 132.228 5.264C132.313 5.30667 132.377 5.33867 132.42 5.36C132.623 5.47733 132.927 5.536 133.332 5.536C133.588 5.536 134.244 5.43467 135.3 5.232C136.356 5.02933 136.991 4.88 137.204 4.784C137.353 4.72 137.465 4.656 137.54 4.592C137.689 4.496 137.807 4.448 137.892 4.448C137.988 4.448 138.143 4.51733 138.356 4.656C138.58 4.784 138.783 4.928 138.964 5.088C139.145 5.248 139.236 5.37067 139.236 5.456ZM139.38 8.288C140.041 8.288 140.612 8.4 141.092 8.624C141.583 8.83733 141.956 9.104 142.212 9.424C142.468 9.744 142.596 10.0427 142.596 10.32C142.596 10.512 142.543 10.6667 142.436 10.784C142.329 10.9013 142.196 10.96 142.036 10.96C141.897 10.96 141.775 10.9067 141.668 10.8C141.572 10.6827 141.487 10.5653 141.412 10.448C141.337 10.32 141.284 10.2293 141.252 10.176C141.06 9.888 140.9 9.664 140.772 9.504C140.644 9.33333 140.463 9.15733 140.228 8.976C139.993 8.79467 139.705 8.64 139.364 8.512C139.204 8.448 139.124 8.4 139.124 8.368C139.124 8.31467 139.209 8.288 139.38 8.288ZM149.732 3.776C149.732 2.61333 149.673 1.57333 149.556 0.655999V0.624C149.556 0.538666 149.604 0.511999 149.7 0.544C150.244 0.704 150.617 0.831999 150.82 0.927999C151.023 1.024 151.124 1.11467 151.124 1.2C151.124 1.25333 151.076 1.30667 150.98 1.36L150.708 1.536V11.008C150.729 12.3307 150.772 13.5573 150.836 14.688C150.836 14.7413 150.82 14.7893 150.788 14.832C150.703 14.9493 150.58 15.0453 150.42 15.12C150.26 15.2053 150.1 15.248 149.94 15.248C149.833 15.248 149.743 15.216 149.668 15.152C149.593 15.088 149.556 15.0133 149.556 14.928C149.599 14.2987 149.636 13.6907 149.668 13.104C149.7 12.5067 149.721 11.728 149.732 10.768V3.776ZM159.252 8.544C159.284 8.50133 159.332 8.43733 159.396 8.352C159.46 8.256 159.513 8.18667 159.556 8.144C159.609 8.09067 159.657 8.064 159.7 8.064C159.785 8.064 159.988 8.21333 160.308 8.512C160.639 8.8 160.841 9.01867 160.916 9.168L160.932 9.232C160.932 9.40267 160.799 9.488 160.532 9.488H157.22V14.208H159.764L160.084 13.728C160.116 13.6853 160.164 13.6213 160.228 13.536C160.292 13.44 160.345 13.3707 160.388 13.328C160.441 13.2747 160.489 13.248 160.532 13.248C160.617 13.248 160.831 13.392 161.172 13.68C161.513 13.968 161.721 14.1867 161.796 14.336L161.812 14.4C161.812 14.4853 161.775 14.5493 161.7 14.592C161.625 14.6347 161.535 14.656 161.428 14.656H154.532C153.849 14.6667 153.087 14.736 152.244 14.864H152.196C152.153 14.864 152.116 14.8373 152.084 14.784L151.796 14.24C151.785 14.2293 151.78 14.208 151.78 14.176C151.78 14.1227 151.823 14.096 151.908 14.096C152.484 14.1493 153.129 14.1867 153.844 14.208H156.228V9.488H155.204C154.585 9.50933 153.993 9.57867 153.428 9.696H153.38C153.337 9.696 153.3 9.66933 153.268 9.616L152.996 9.056C152.985 9.04533 152.98 9.024 152.98 8.992C152.98 8.93867 153.017 8.912 153.092 8.912C153.679 8.96533 154.329 9.00267 155.044 9.024H156.228V5.152H153.876C153.396 6.35733 152.863 7.33867 152.276 8.096C152.223 8.17067 152.164 8.18133 152.1 8.128L152.052 8.096C151.988 8.05333 151.972 7.99467 152.004 7.92C152.42 7.07733 152.777 6.10667 153.076 5.008C153.204 4.50667 153.316 3.936 153.412 3.296C153.508 2.656 153.556 2.112 153.556 1.664C153.556 1.568 153.609 1.53067 153.716 1.552C154.644 1.79733 155.108 1.98933 155.108 2.128C155.108 2.16 155.065 2.20267 154.98 2.256L154.708 2.384C154.527 3.184 154.303 3.94667 154.036 4.672H156.228V3.904C156.228 2.74133 156.169 1.70133 156.052 0.783999V0.751999C156.052 0.666666 156.1 0.639999 156.196 0.671999C156.719 0.821332 157.076 0.943999 157.268 1.04C157.471 1.136 157.572 1.22133 157.572 1.296C157.572 1.33867 157.535 1.38667 157.46 1.44L157.22 1.6V4.672H159.332L159.668 4.208C159.7 4.16533 159.748 4.10133 159.812 4.016C159.876 3.92 159.929 3.85067 159.972 3.808C160.025 3.75467 160.073 3.728 160.116 3.728C160.201 3.728 160.409 3.872 160.74 4.16C161.071 4.448 161.273 4.66667 161.348 4.816C161.359 4.86933 161.353 4.92267 161.332 4.976C161.268 5.09333 161.145 5.152 160.964 5.152H157.22V9.024H158.932L159.252 8.544ZM151.028 3.536C150.996 3.46133 151.012 3.408 151.076 3.376C151.151 3.344 151.209 3.34933 151.252 3.392C151.732 3.712 152.084 4.048 152.308 4.4C152.543 4.74133 152.66 5.06133 152.66 5.36C152.66 5.56267 152.612 5.728 152.516 5.856C152.42 5.984 152.303 6.048 152.164 6.048C152.047 6.048 151.929 6.00533 151.812 5.92C151.769 5.87733 151.748 5.824 151.748 5.76C151.727 5.41867 151.647 5.04 151.508 4.624C151.369 4.208 151.209 3.84533 151.028 3.536ZM148.596 3.984C148.596 3.89867 148.639 3.856 148.724 3.856H148.756C148.841 3.856 148.889 3.89333 148.9 3.968C149.007 4.45867 149.06 4.93867 149.06 5.408C149.06 5.84533 149.012 6.24 148.916 6.592C148.831 6.944 148.719 7.22667 148.58 7.44C148.505 7.568 148.399 7.66933 148.26 7.744C148.132 7.81867 148.004 7.856 147.876 7.856C147.737 7.856 147.625 7.808 147.54 7.712C147.487 7.62667 147.46 7.52533 147.46 7.408C147.46 7.19467 147.551 6.98667 147.732 6.784C147.945 6.528 148.137 6.13333 148.308 5.6C148.489 5.056 148.585 4.51733 148.596 3.984ZM172.372 2.848C173.257 2.848 174.148 3.03467 175.044 3.408C175.94 3.77067 176.692 4.36267 177.3 5.184C177.919 5.99467 178.228 7.03467 178.228 8.304C178.228 9.968 177.716 11.2373 176.692 12.112C175.679 12.9867 174.591 13.5573 173.428 13.824C172.276 14.08 171.311 14.208 170.532 14.208C170.383 14.208 170.308 14.1813 170.308 14.128C170.308 14.064 170.521 13.9947 170.948 13.92C172.772 13.6 174.255 12.9867 175.396 12.08C176.537 11.1733 177.108 9.89333 177.108 8.24C177.108 7.10933 176.863 6.18133 176.372 5.456C175.892 4.72 175.279 4.18667 174.532 3.856C173.785 3.51467 173.007 3.344 172.196 3.344C172.015 3.344 171.881 3.34933 171.796 3.36C171.935 3.63733 172.041 3.97333 172.116 4.368C172.191 4.76267 172.228 5.12 172.228 5.44C172.228 6.22933 172.036 7.136 171.652 8.16C171.3 9.10933 170.895 9.936 170.436 10.64C169.988 11.3333 169.551 11.8613 169.124 12.224C168.708 12.576 168.372 12.752 168.116 12.752C167.732 12.752 167.369 12.5653 167.028 12.192C166.697 11.808 166.431 11.3067 166.228 10.688C166.036 10.0693 165.94 9.424 165.94 8.752C165.94 7.6 166.244 6.576 166.852 5.68C167.46 4.77333 168.26 4.07467 169.252 3.584C170.244 3.09333 171.284 2.848 172.372 2.848ZM171.716 4.64C171.716 4.17067 171.657 3.75467 171.54 3.392C170.708 3.49867 169.935 3.78667 169.22 4.256C168.516 4.71467 167.951 5.32267 167.524 6.08C167.097 6.83733 166.884 7.69067 166.884 8.64C166.884 9.28 166.959 9.81333 167.108 10.24C167.268 10.6667 167.444 10.9813 167.636 11.184C167.828 11.3867 167.983 11.488 168.1 11.488C168.367 11.488 168.681 11.2907 169.044 10.896C169.417 10.4907 169.759 10.0427 170.068 9.552C170.665 8.624 171.087 7.77067 171.332 6.992C171.588 6.20267 171.716 5.41867 171.716 4.64ZM194.74 1.904C194.772 1.86133 194.825 1.792 194.9 1.696C194.975 1.58933 195.033 1.51467 195.076 1.472C195.129 1.41867 195.177 1.392 195.22 1.392C195.316 1.392 195.551 1.54667 195.924 1.856C196.297 2.16533 196.521 2.39467 196.596 2.544C196.628 2.59733 196.628 2.65067 196.596 2.704C196.532 2.81067 196.404 2.864 196.212 2.864H185.572C184.889 2.87467 184.127 2.944 183.284 3.072H183.236C183.193 3.072 183.156 3.04533 183.124 2.992L182.852 2.432C182.841 2.42133 182.836 2.4 182.836 2.368C182.836 2.31467 182.873 2.288 182.948 2.288C183.535 2.34133 184.185 2.37867 184.9 2.4H189.14C189.14 1.77067 189.108 1.2 189.044 0.688C189.044 0.581333 189.097 0.543999 189.204 0.575999C190.111 0.853333 190.564 1.06133 190.564 1.2C190.564 1.25333 190.521 1.30667 190.436 1.36L190.164 1.536V2.4H194.372L194.74 1.904ZM192.516 3.744C192.548 3.70133 192.601 3.632 192.676 3.536C192.761 3.42933 192.836 3.376 192.9 3.376C192.985 3.376 193.177 3.504 193.476 3.76C193.785 4.00533 193.977 4.20267 194.052 4.352C194.084 4.40533 194.073 4.45867 194.02 4.512C193.881 4.62933 193.679 4.71467 193.412 4.768V5.616L193.444 6.288C193.444 6.48 193.455 6.75733 193.476 7.12C193.487 7.17333 193.476 7.22667 193.444 7.28C193.348 7.36533 193.209 7.44533 193.028 7.52C192.857 7.584 192.708 7.616 192.58 7.616H192.548C192.463 7.616 192.42 7.57333 192.42 7.488V6.912H186.964V7.376C186.964 7.42933 186.868 7.49867 186.676 7.584C186.495 7.66933 186.313 7.712 186.132 7.712C186.068 7.712 186.015 7.68 185.972 7.616C185.929 7.552 185.908 7.47733 185.908 7.392C185.94 7.15733 185.961 6.92267 185.972 6.688L185.988 6.352V5.664C185.988 4.93867 185.956 4.288 185.892 3.712V3.68C185.892 3.63733 185.903 3.61067 185.924 3.6C185.945 3.58933 185.977 3.59467 186.02 3.616L187.044 4.096H192.26L192.516 3.744ZM186.964 4.576V6.448H192.42V4.576H186.964ZM184.708 11.024C184.729 12.3573 184.772 13.5787 184.836 14.688C184.836 14.752 184.82 14.8053 184.788 14.848C184.692 14.944 184.559 15.0293 184.388 15.104C184.217 15.1787 184.052 15.216 183.892 15.216C183.817 15.216 183.753 15.184 183.7 15.12C183.647 15.056 183.62 14.9813 183.62 14.896C183.663 14.288 183.7 13.4667 183.732 12.432V11.024C183.732 9.76533 183.673 8.73067 183.556 7.92V7.888C183.556 7.84533 183.567 7.81867 183.588 7.808C183.609 7.79733 183.641 7.80267 183.684 7.824L184.82 8.336H194.548L194.772 8.016C194.804 7.984 194.841 7.936 194.884 7.872C194.927 7.808 194.964 7.76533 194.996 7.744C195.028 7.712 195.065 7.696 195.108 7.696C195.204 7.696 195.412 7.81333 195.732 8.048C196.052 8.28267 196.255 8.47467 196.34 8.624C196.372 8.66667 196.361 8.71467 196.308 8.768C196.137 8.896 195.935 8.976 195.7 9.008V13.792C195.7 14.2293 195.604 14.56 195.412 14.784C195.231 15.008 194.847 15.1573 194.26 15.232H194.228C194.175 15.232 194.137 15.1947 194.116 15.12C194.063 14.832 193.961 14.6347 193.812 14.528C193.556 14.3467 193.183 14.224 192.692 14.16C192.607 14.1387 192.564 14.096 192.564 14.032C192.564 13.9573 192.596 13.92 192.66 13.92C192.788 13.92 192.937 13.9253 193.108 13.936C193.279 13.9467 193.444 13.9573 193.604 13.968C193.935 14 194.185 14.016 194.356 14.016C194.495 14.016 194.585 13.9893 194.628 13.936C194.681 13.8827 194.708 13.7973 194.708 13.68V8.816H184.708V11.024ZM191.716 9.728C191.748 9.696 191.796 9.632 191.86 9.536C191.935 9.44 192.004 9.392 192.068 9.392C192.153 9.392 192.329 9.50933 192.596 9.744C192.873 9.97867 193.049 10.1707 193.124 10.32C193.156 10.3627 193.145 10.4107 193.092 10.464C192.985 10.5707 192.815 10.64 192.58 10.672V11.568L192.596 12.096C192.607 12.5013 192.628 12.864 192.66 13.184C192.66 13.248 192.644 13.296 192.612 13.328C192.537 13.424 192.415 13.5093 192.244 13.584C192.073 13.6587 191.919 13.696 191.78 13.696H191.748C191.663 13.696 191.62 13.6533 191.62 13.568V13.008H187.732V13.632C187.732 13.6747 187.636 13.7387 187.444 13.824C187.263 13.9093 187.087 13.952 186.916 13.952C186.852 13.952 186.799 13.92 186.756 13.856C186.713 13.792 186.692 13.7173 186.692 13.632C186.724 13.3867 186.745 13.136 186.756 12.88C186.756 12.7307 186.761 12.608 186.772 12.512V11.776C186.772 10.9547 186.735 10.2613 186.66 9.696V9.664C186.66 9.62133 186.671 9.59467 186.692 9.584C186.713 9.57333 186.745 9.57867 186.788 9.6L187.796 10.064H191.492L191.716 9.728ZM187.732 10.544V12.544H191.62V10.544H187.732ZM205.604 13.472C205.401 13.472 205.135 13.392 204.804 13.232C204.473 13.072 204.105 12.816 203.7 12.464C202.644 11.5253 202.116 10.192 202.116 8.464C202.116 7.888 202.175 7.22667 202.292 6.48C202.367 6.05333 202.404 5.73867 202.404 5.536C202.404 5.29067 202.356 5.072 202.26 4.88C202.175 4.67733 202.025 4.47467 201.812 4.272C201.759 4.21867 201.732 4.176 201.732 4.144C201.732 4.112 201.748 4.09067 201.78 4.08C201.823 4.05867 201.865 4.048 201.908 4.048C202.121 4.048 202.345 4.112 202.58 4.24C202.825 4.368 203.028 4.53867 203.188 4.752C203.359 4.96533 203.444 5.17867 203.444 5.392C203.444 5.52 203.385 5.85067 203.268 6.384C203.161 6.896 203.076 7.32267 203.012 7.664C202.959 8.00533 202.932 8.34667 202.932 8.688C202.932 9.264 203.039 9.792 203.252 10.272C203.476 10.752 203.737 11.136 204.036 11.424C204.335 11.712 204.585 11.856 204.788 11.856C204.916 11.856 205.001 11.7493 205.044 11.536C205.215 10.7467 205.401 10.112 205.604 9.632C205.636 9.55733 205.673 9.49333 205.716 9.44C205.759 9.376 205.796 9.344 205.828 9.344C205.86 9.344 205.876 9.376 205.876 9.44C205.876 9.49333 205.865 9.584 205.844 9.712C205.737 10.2453 205.684 10.7307 205.684 11.168C205.684 11.3707 205.7 11.632 205.732 11.952C205.743 12.0907 205.769 12.2187 205.812 12.336C205.855 12.4427 205.881 12.512 205.892 12.544C205.988 12.736 206.036 12.896 206.036 13.024C206.036 13.1627 205.999 13.2747 205.924 13.36C205.849 13.4347 205.743 13.472 205.604 13.472ZM212.34 9.232C212.148 9.232 212.015 9.18933 211.94 9.104C211.865 9.01867 211.801 8.90133 211.748 8.752C211.588 8.26133 211.396 7.78133 211.172 7.312C210.959 6.84267 210.671 6.51733 210.308 6.336C210.063 6.208 209.732 6.144 209.316 6.144H209.124C209.028 6.144 208.98 6.112 208.98 6.048C208.98 6.00533 209.033 5.96267 209.14 5.92C209.183 5.89867 209.284 5.872 209.444 5.84C209.615 5.808 209.801 5.792 210.004 5.792C210.751 5.792 211.396 6.05333 211.94 6.576C212.324 6.93867 212.585 7.30133 212.724 7.664C212.863 8.016 212.932 8.288 212.932 8.48C212.932 8.68267 212.884 8.85867 212.788 9.008C212.692 9.15733 212.543 9.232 212.34 9.232Z" fill="#72796C"/>
</svg>
