<svg width="426" height="71" viewBox="0 0 426 71" fill="none" xmlns="http://www.w3.org/2000/svg">
<path d="M14.9406 54.6425C14.9756 54.5958 15.0281 54.5258 15.0981 54.4325C15.1681 54.3275 15.2264 54.2517 15.2731 54.205C15.3314 54.1467 15.3839 54.1175 15.4306 54.1175C15.5006 54.1175 15.6464 54.2108 15.8681 54.3975C16.1014 54.5725 16.3172 54.765 16.5156 54.975C16.7139 55.1733 16.8131 55.3133 16.8131 55.395C16.7781 55.5817 16.6381 55.675 16.3931 55.675H15.3081C15.1331 57.0867 14.8764 58.3642 14.5381 59.5075C14.2114 60.6508 13.7739 61.695 13.2255 62.64C14.1589 64.215 15.3722 65.44 16.8655 66.315L16.8131 66.4725C16.2764 66.5542 15.9322 66.84 15.7806 67.33C14.4972 66.3733 13.4589 65.0958 12.6655 63.4975C11.5572 65.0725 10.0464 66.3558 8.13305 67.3475L7.95805 67.12C9.77805 65.8833 11.1897 64.3317 12.1931 62.465C11.6097 60.9717 11.1839 59.2683 10.9156 57.355C10.4372 58.335 9.91805 59.1692 9.35805 59.8575L9.09555 59.7175C9.73722 58.4808 10.2856 56.9408 10.7406 55.0975C10.8806 54.5142 10.9914 53.8492 11.0731 53.1025C11.1664 52.3558 11.2072 51.7433 11.1955 51.265C12.4439 51.5333 13.068 51.7433 13.068 51.895C13.068 51.93 13.0155 51.9767 12.9105 52.035L12.5956 52.1925C12.4206 53.0558 12.1581 54.0417 11.8081 55.15H14.5906L14.9406 54.6425ZM8.02805 54.695C8.06305 54.6483 8.11555 54.5783 8.18555 54.485C8.25555 54.38 8.32555 54.3275 8.39555 54.3275C8.51222 54.3275 8.73388 54.4733 9.06055 54.765C9.38722 55.0567 9.55055 55.2667 9.55055 55.395C9.51555 55.4533 9.43972 55.5175 9.32305 55.5875C9.20638 55.6458 9.07805 55.6867 8.93805 55.71V56.97C8.96138 57.9967 8.99638 58.8017 9.04305 59.385C8.98472 59.4783 8.85055 59.5775 8.64055 59.6825C8.43055 59.7875 8.24972 59.84 8.09805 59.84H7.94055V59.2625H3.09305V59.6825C3.09305 59.7408 2.99972 59.8108 2.81305 59.8925C2.62638 59.9742 2.43972 60.015 2.25305 60.015C2.18305 60.015 2.12472 59.98 2.07805 59.91C2.03138 59.84 2.00805 59.7583 2.00805 59.665C2.04305 59.3267 2.06638 58.9942 2.07805 58.6675L2.09555 58.195V57.2675C2.09555 56.1242 2.03722 55.185 1.92055 54.45L3.18055 55.0625H4.93055V53.9075H3.70555C2.98222 53.9192 2.23555 54.0008 1.46555 54.1525L1.02805 53.26C1.66972 53.33 2.44555 53.3767 3.35555 53.4H4.93055C4.93055 52.5483 4.88972 51.8425 4.80805 51.2825C5.84638 51.5975 6.36555 51.8367 6.36555 52C6.36555 52.0583 6.31888 52.1167 6.22555 52.175L5.96305 52.35V53.4H8.11555L8.43055 53.015C8.33722 53.0733 8.24388 53.1025 8.15055 53.1025C8.08055 53.1025 7.97555 53.0733 7.83555 53.015C7.75388 52.7933 7.59638 52.5717 7.36305 52.35C7.12972 52.1167 6.89055 51.9358 6.64555 51.8075L6.80305 51.6325C7.42138 51.6442 7.88222 51.7492 8.18555 51.9475C8.48888 52.1458 8.64055 52.3675 8.64055 52.6125C8.64055 52.6825 8.62305 52.7525 8.58805 52.8225L8.83305 52.525C9.38138 52.9567 9.82472 53.33 10.163 53.645C10.1514 53.7267 10.1047 53.7908 10.0231 53.8375C9.94138 53.8842 9.84805 53.9075 9.74305 53.9075H5.96305V55.0625H7.80055L8.02805 54.695ZM4.93055 56.8475V55.5525H3.09305V56.8475H4.93055ZM7.94055 56.8475V55.5525H5.96305V56.8475H7.94055ZM11.6155 55.675C11.4289 56.165 11.2831 56.5325 11.1781 56.7775C11.5397 58.6208 12.0297 60.2133 12.648 61.555C13.3714 59.8867 13.8439 57.9267 14.0656 55.675H11.6155ZM4.93055 57.3725H3.09305V58.7375H4.93055V57.3725ZM5.96305 57.3725V58.7375H7.94055V57.3725H5.96305ZM8.09805 60.5575C8.14472 60.4992 8.20888 60.4117 8.29055 60.295C8.38388 60.1783 8.46555 60.12 8.53555 60.12C8.60555 60.12 8.74555 60.1958 8.95555 60.3475C9.17722 60.4875 9.38138 60.645 9.56805 60.82C9.75472 60.995 9.84805 61.1233 9.84805 61.205C9.80138 61.3917 9.65555 61.485 9.41055 61.485H5.26305C5.20472 61.9633 5.12888 62.395 5.03555 62.78H7.46805L7.73055 62.465C7.76555 62.43 7.82388 62.3717 7.90555 62.29C7.98722 62.1967 8.06305 62.15 8.13305 62.15C8.24972 62.15 8.46555 62.29 8.78055 62.57C9.10722 62.85 9.27055 63.0542 9.27055 63.1825C9.15388 63.2992 8.93805 63.375 8.62305 63.41C8.45972 65.265 8.08055 66.4142 7.48555 66.8575C7.11222 67.1258 6.61638 67.26 5.99805 67.26C5.99805 66.8867 5.90472 66.6417 5.71805 66.525C5.55472 66.385 5.14055 66.2567 4.47555 66.14V65.8425C4.96555 65.8775 5.26305 65.9008 5.36805 65.9125C5.92805 65.9592 6.25472 65.9825 6.34805 65.9825C6.60472 65.9825 6.78555 65.9358 6.89055 65.8425C7.03055 65.7258 7.15888 65.4517 7.27555 65.02C7.40388 64.5767 7.50888 64.005 7.59055 63.305H4.87805C4.36472 64.9967 3.16888 66.35 1.29055 67.365L1.08055 67.085C2.20055 66.2917 2.97055 65.4342 3.39055 64.5125C3.82222 63.5792 4.07305 62.57 4.14305 61.485H3.16305C2.60305 61.4967 2.03138 61.5783 1.44805 61.73L1.01055 60.8375C1.65222 60.9075 2.42805 60.9542 3.33805 60.9775H4.91305C4.91305 60.3242 4.87805 59.7642 4.80805 59.2975C5.47305 59.5192 5.88138 59.6883 6.03305 59.805C6.18472 59.91 6.21388 60.0033 6.12055 60.085L5.96305 60.19V60.9775H7.78305L8.09805 60.5575ZM32.6855 54.66C32.7089 54.625 32.7439 54.5725 32.7905 54.5025C32.8489 54.4208 32.8956 54.3625 32.9305 54.3275C32.9772 54.2808 33.0239 54.2575 33.0706 54.2575C33.1756 54.2575 33.3972 54.4208 33.7355 54.7475C34.0856 55.0625 34.2606 55.2842 34.2606 55.4125C34.1556 55.5525 33.9397 55.6458 33.6131 55.6925C33.5897 58.0025 33.5197 59.6592 33.403 60.6625C33.2864 61.6658 33.0939 62.3133 32.8256 62.605C32.4989 62.9783 32.0322 63.165 31.4256 63.165C31.4256 62.9667 31.4139 62.8033 31.3905 62.675C31.3672 62.5467 31.3147 62.4417 31.233 62.36C31.0697 62.22 30.778 62.1092 30.358 62.0275V61.7125C30.9997 61.7708 31.4197 61.8 31.618 61.8C31.7347 61.8 31.8222 61.7883 31.8805 61.765C31.9505 61.7417 32.0089 61.7008 32.0555 61.6425C32.2072 61.4558 32.3239 60.8958 32.4056 59.9625C32.4872 59.0292 32.5397 57.5533 32.5631 55.535L29.9906 56.55V59.6475C30.0139 61.0942 30.0605 62.465 30.1306 63.76C30.0605 63.8883 29.9264 64.0108 29.7281 64.1275C29.5297 64.2325 29.3314 64.285 29.133 64.285C29.0397 64.285 28.9522 64.25 28.8705 64.18C28.8006 64.11 28.7656 64.0283 28.7656 63.935C28.8122 63.2583 28.8472 62.5875 28.8705 61.9225C28.9056 61.2575 28.9289 60.4175 28.9405 59.4025V56.9525L26.683 57.845V64.9675C26.683 65.2475 26.7589 65.44 26.9106 65.545C27.0739 65.6383 27.4122 65.685 27.9255 65.685H30.428C31.653 65.685 32.4464 65.6675 32.8081 65.6325C32.9364 65.6208 33.0297 65.5975 33.088 65.5625C33.158 65.5158 33.2222 65.4517 33.2806 65.37C33.4322 65.0433 33.6422 64.1567 33.9105 62.71H34.138L34.1731 65.44C34.3947 65.5217 34.5406 65.6033 34.6106 65.685C34.6922 65.755 34.7331 65.8542 34.7331 65.9825C34.7331 66.2042 34.6164 66.3675 34.383 66.4725C34.1614 66.5775 33.7472 66.6533 33.1406 66.7C32.5456 66.7467 31.6297 66.77 30.3931 66.77H27.838C27.2664 66.77 26.8172 66.7233 26.4905 66.63C26.1755 66.5367 25.948 66.3792 25.808 66.1575C25.6797 65.9358 25.6155 65.615 25.6155 65.195V58.2475L23.533 59.07L23.218 58.65L25.6155 57.705V55.185C25.6155 54.1583 25.563 53.295 25.458 52.595C26.088 52.7933 26.5197 52.9508 26.753 53.0675C26.998 53.1725 27.1205 53.2717 27.1205 53.365C27.1205 53.4233 27.0739 53.4817 26.9805 53.54L26.683 53.7325V57.285L28.9405 56.41V53.8725C28.9405 52.8458 28.888 51.9767 28.783 51.265C29.3897 51.4633 29.8097 51.6208 30.043 51.7375C30.288 51.8425 30.4105 51.9358 30.4105 52.0175C30.4105 52.0875 30.3639 52.1517 30.2705 52.21L29.9906 52.4025V55.99L32.2655 55.0975L32.4231 55.045L32.6855 54.66ZM23.253 56.1125C23.2997 56.0542 23.3522 55.9783 23.4105 55.885C23.4689 55.7917 23.5155 55.7217 23.5505 55.675C23.5972 55.6283 23.6439 55.605 23.6905 55.605C23.7955 55.605 24.0289 55.7858 24.3905 56.1475C24.7522 56.4975 24.933 56.7367 24.933 56.865C24.8864 57.0517 24.7464 57.145 24.513 57.145H22.3605V62.6925L24.898 61.52L25.003 61.765L23.743 62.6225C22.413 63.5325 21.1764 64.3492 20.033 65.0725C19.9747 65.3058 19.8697 65.4633 19.718 65.545L19.053 64.0575C19.6014 63.8708 20.348 63.5733 21.293 63.165V57.145H20.6105C20.2489 57.1567 19.8755 57.2383 19.4905 57.39L19.053 56.48C19.473 56.55 19.9864 56.5967 20.593 56.62H21.293V55.2025C21.293 53.7325 21.2172 52.5367 21.0655 51.615C21.7189 51.8017 22.1739 51.9533 22.4305 52.07C22.6872 52.175 22.8155 52.2683 22.8155 52.35C22.8155 52.4083 22.763 52.4667 22.658 52.525L22.3605 52.7V56.62H22.938L23.253 56.1125ZM50.4305 55.36C50.4655 55.3133 50.5064 55.2492 50.553 55.1675C50.6114 55.0858 50.658 55.0275 50.693 54.9925C50.7397 54.9575 50.7864 54.94 50.833 54.94C50.9497 54.94 51.183 55.1033 51.533 55.43C51.883 55.745 52.058 55.9667 52.058 56.095C51.9297 56.2583 51.7022 56.3633 51.3755 56.41V62.6225C51.3989 64.0692 51.4455 65.44 51.5155 66.735C51.4222 66.84 51.2764 66.945 51.078 67.05C50.8797 67.155 50.6639 67.2075 50.4305 67.2075C50.3489 67.2075 50.2847 67.1725 50.238 67.1025C50.203 67.0325 50.1855 66.9508 50.1855 66.8575C50.1855 66.8575 50.2089 66.6942 50.2556 66.3675V65.93H39.5455V66.28C39.5572 66.4083 39.563 66.525 39.563 66.63C39.5747 66.735 39.5864 66.8108 39.598 66.8575C39.563 66.9625 39.458 67.0617 39.283 67.155C39.108 67.26 38.8922 67.3125 38.6355 67.3125C38.5422 67.3125 38.4547 67.2717 38.373 67.19C38.303 67.12 38.268 67.0442 38.268 66.9625C38.3147 66.2742 38.3555 65.6092 38.3905 64.9675C38.4255 64.3142 38.4489 63.4625 38.4605 62.4125V58.72C38.4605 57.25 38.3847 56.0542 38.233 55.1325L39.738 55.78H43.518C43.7514 54.6133 43.903 53.7558 43.973 53.2075H40.2455C39.4172 53.2192 38.5422 53.3008 37.6205 53.4525L37.1655 52.5425C37.8072 52.6125 38.583 52.6592 39.493 52.6825H50.2205L50.6055 52.14C50.6522 52.0817 50.7105 52.0058 50.7805 51.9125C50.8622 51.8075 50.9264 51.7317 50.973 51.685C51.0314 51.6267 51.0839 51.5975 51.1305 51.5975C51.2005 51.5975 51.358 51.6908 51.603 51.8775C51.8597 52.0642 52.0989 52.2683 52.3205 52.49C52.5422 52.7 52.653 52.8458 52.653 52.9275C52.6064 53.1142 52.4605 53.2075 52.2155 53.2075H45.443C44.988 54.1408 44.5214 54.9983 44.043 55.78H50.168L50.4305 55.36ZM42.258 56.305H39.5455V65.4225H42.258V56.305ZM43.308 58.9475H46.4405V56.305H43.308V58.9475ZM50.2556 65.4225V56.305H47.4905V65.4225H50.2556ZM43.308 62.1675H46.4405V59.4375H43.308V62.1675ZM46.4405 62.6575H43.308V65.4225H46.4405V62.6575ZM68.5606 54.2575C68.6072 54.2108 68.6714 54.135 68.7531 54.03C68.8464 53.9133 68.9281 53.855 68.9981 53.855C69.1147 53.855 69.3422 53.995 69.6806 54.275C70.0189 54.555 70.1881 54.7592 70.1881 54.8875C70.1531 55.0625 70.0072 55.15 69.7506 55.15H66.3731V56.515H68.8231L69.1381 56.0425C69.1731 55.9842 69.2197 55.9142 69.2781 55.8325C69.3481 55.7392 69.4006 55.6692 69.4356 55.6225C69.4822 55.5758 69.5289 55.5525 69.5756 55.5525C69.6456 55.5525 69.7856 55.6342 69.9956 55.7975C70.2056 55.9608 70.3981 56.1417 70.5731 56.34C70.7597 56.5267 70.8531 56.6608 70.8531 56.7425C70.8181 56.9292 70.6781 57.0225 70.4331 57.0225H61.2806C61.1989 57.1042 61.0764 57.145 60.9131 57.145H58.9006V58.9475C59.6822 59.2858 60.2539 59.6592 60.6156 60.0675C60.9889 60.4642 61.1756 60.8375 61.1756 61.1875C61.1756 61.3625 61.1289 61.5025 61.0356 61.6075C60.9539 61.7125 60.8431 61.765 60.7031 61.765C60.5864 61.765 60.4464 61.7125 60.2831 61.6075C60.1897 61.2808 60.0089 60.9075 59.7406 60.4875C59.4839 60.0675 59.2039 59.6708 58.9006 59.2975V62.78C58.9239 64.2267 58.9706 65.5975 59.0406 66.8925C58.9589 67.0092 58.8247 67.1142 58.6381 67.2075C58.4631 67.3008 58.2589 67.3475 58.0256 67.3475C57.9322 67.3475 57.8447 67.3067 57.7631 67.225C57.6931 67.155 57.6581 67.0792 57.6581 66.9975C57.7047 66.3092 57.7456 65.6442 57.7806 65.0025C57.8156 64.3492 57.8389 63.4975 57.8506 62.4475V59.945C57.1506 61.555 56.2406 62.955 55.1206 64.145L54.8581 63.9C55.4881 62.99 56.0306 61.9575 56.4856 60.8025C56.9522 59.6358 57.3197 58.4167 57.5881 57.145H56.8706C56.4739 57.1567 56.0539 57.2383 55.6106 57.39L55.1731 56.4975C55.6747 56.5675 56.2814 56.6142 56.9931 56.6375H57.8506V53.5925C56.7889 53.8842 55.9372 54.0825 55.2956 54.1875L55.1906 53.9075C55.8672 53.6625 56.4389 53.4292 56.9056 53.2075C57.4772 52.9392 58.0197 52.6358 58.5331 52.2975C59.0581 51.9592 59.4722 51.6208 59.7756 51.2825C60.6506 52.0175 61.0881 52.4608 61.0881 52.6125C61.0881 52.6708 61.0064 52.7 60.8431 52.7L60.4231 52.6825C60.1081 52.8225 59.6006 53.015 58.9006 53.26V56.6375H59.3556L60.0556 55.675L61.1581 56.6725L61.1056 56.515H65.3056V55.15H64.2031C63.5731 55.1617 62.9197 55.2433 62.2431 55.395L61.7881 54.52C62.4297 54.59 63.2056 54.6367 64.1156 54.66H65.3056V53.4525H64.0806C63.3572 53.4642 62.5989 53.5458 61.8056 53.6975L61.3506 52.7875C61.9922 52.8575 62.7681 52.9042 63.6781 52.9275H65.3056C65.3056 52.2625 65.2764 51.7433 65.2181 51.37C65.8131 51.5567 66.2272 51.7083 66.4606 51.825C66.6939 51.93 66.8106 52.0233 66.8106 52.105C66.8106 52.1633 66.7639 52.2217 66.6706 52.28L66.3731 52.4725V52.9275H68.6481L68.9631 52.455C69.0097 52.3967 69.0564 52.3325 69.1031 52.2625C69.1497 52.1925 69.1964 52.1283 69.2431 52.07C69.3014 52.0117 69.3539 51.9825 69.4006 51.9825C69.4706 51.9825 69.6106 52.0642 69.8206 52.2275C70.0306 52.3908 70.2231 52.5717 70.3981 52.77C70.5731 52.9567 70.6606 53.0908 70.6606 53.1725C70.6139 53.3592 70.4739 53.4525 70.2406 53.4525H66.3731V54.66H68.2631L68.5606 54.2575ZM68.5256 57.6875C68.5606 57.6408 68.6014 57.5825 68.6481 57.5125C68.7064 57.4425 68.7531 57.39 68.7881 57.355C68.8347 57.32 68.8814 57.3025 68.9281 57.3025C69.0447 57.3025 69.2722 57.46 69.6106 57.775C69.9606 58.0783 70.1356 58.2942 70.1356 58.4225C70.0772 58.4925 69.9897 58.5567 69.8731 58.615C69.7564 58.6733 69.6222 58.7142 69.4706 58.7375V60.575C69.5056 62.115 69.5464 63.3108 69.5931 64.1625C69.5231 64.2675 69.3772 64.3725 69.1556 64.4775C68.9456 64.5825 68.7589 64.635 68.5956 64.635H68.4206V64.0925H63.4156V64.495C63.4156 64.565 63.3222 64.6467 63.1356 64.74C62.9489 64.8217 62.7506 64.8625 62.5406 64.8625C62.4589 64.8625 62.3889 64.8275 62.3306 64.7575C62.2722 64.6875 62.2431 64.6058 62.2431 64.5125C62.3014 63.9642 62.3422 63.2292 62.3656 62.3075V61.03C62.3656 59.56 62.2897 58.3642 62.1381 57.4425L63.5031 58.055H68.2631L68.5256 57.6875ZM68.4206 59.8925V58.58H63.4156V59.8925H68.4206ZM63.4156 61.695H68.4206V60.4H63.4156V61.695ZM63.4156 62.22V63.6025H68.4206V62.22H63.4156ZM65.0431 65.02C65.4164 65.23 65.6031 65.3817 65.6031 65.475C65.6031 65.5333 65.5389 65.5625 65.4106 65.5625H65.1131C64.4247 65.9475 63.6489 66.2917 62.7856 66.595C61.9222 66.91 61.0589 67.155 60.1956 67.33L59.9856 67.015C60.5339 66.805 61.0006 66.6067 61.3856 66.42C61.9106 66.175 62.4472 65.8542 62.9956 65.4575C63.5439 65.0608 63.9814 64.6817 64.3081 64.32L65.0431 65.02ZM66.6706 64.6875C68.0822 64.9675 69.1031 65.3058 69.7331 65.7025C70.3631 66.0992 70.6781 66.4725 70.6781 66.8225C70.6781 66.9742 70.6197 67.0967 70.5031 67.19C70.3981 67.2833 70.2697 67.33 70.1181 67.33C69.9197 67.33 69.7389 67.2542 69.5756 67.1025C69.2839 66.7642 68.8756 66.4025 68.3506 66.0175C67.8256 65.6442 67.2247 65.2942 66.5481 64.9675L66.6706 64.6875Z" fill="#72796C"/>
<path d="M87.1098 66.585C86.3298 66.585 85.7448 66.21 85.3548 65.46C84.9948 64.68 84.8148 63.78 84.8148 62.76C84.8148 59.61 86.0148 55.68 88.4148 50.97C90.8148 46.26 93.5898 41.445 96.7398 36.525H88.7748C86.9448 36.525 85.5498 36.735 84.5898 37.155C83.6598 37.545 82.9548 38.115 82.4748 38.865C82.0248 39.615 81.4998 40.83 80.8998 42.51C80.8398 42.63 80.7798 42.705 80.7198 42.735C80.6898 42.765 80.6298 42.78 80.5398 42.78L80.1798 42.69C79.9998 42.63 79.8648 42.57 79.7748 42.51C79.6848 42.45 79.6398 42.375 79.6398 42.285L79.7298 41.79L81.5748 33.24H99.1248L99.5748 34.23C96.6348 39.24 94.4448 43.275 93.0048 46.335C91.5948 49.395 90.6348 52.155 90.1248 54.615C89.6148 57.075 89.3598 59.925 89.3598 63.165C89.3598 65.445 88.6098 66.585 87.1098 66.585ZM107.041 70.815C106.951 70.815 106.876 70.77 106.816 70.68C106.756 70.59 106.726 70.515 106.726 70.455C106.726 70.395 106.756 70.335 106.816 70.275C107.356 69.795 107.761 69.315 108.031 68.835C108.331 68.355 108.481 67.935 108.481 67.575C108.481 67.095 108.286 66.75 107.896 66.54C107.386 66.3 106.981 66.015 106.681 65.685C106.411 65.355 106.276 64.92 106.276 64.38C106.276 63.66 106.516 63.06 106.996 62.58C107.476 62.1 108.061 61.86 108.751 61.86C109.441 61.86 110.026 62.115 110.506 62.625C110.986 63.105 111.226 63.72 111.226 64.47C111.226 65.85 110.806 67.095 109.966 68.205C109.156 69.315 108.226 70.17 107.176 70.77L107.041 70.815ZM126.931 44.985C128.101 44.985 129.376 45.285 130.756 45.885C132.166 46.455 133.411 47.535 134.491 49.125C135.571 50.685 136.111 52.845 136.111 55.605C136.111 57.795 135.616 59.73 134.626 61.41C133.636 63.09 132.376 64.38 130.846 65.28C129.316 66.18 127.771 66.63 126.211 66.63C124.831 66.63 123.466 66.375 122.116 65.865C120.796 65.355 119.701 64.59 118.831 63.57C117.991 62.55 117.571 61.335 117.571 59.925C117.571 58.935 117.781 58.23 118.201 57.81C118.651 57.36 119.146 57.135 119.686 57.135C120.316 57.135 120.886 57.315 121.396 57.675C121.906 58.005 122.161 58.53 122.161 59.25C122.161 59.64 122.071 60.105 121.891 60.645C121.861 60.765 121.816 60.945 121.756 61.185C121.696 61.425 121.666 61.65 121.666 61.86C121.666 62.94 122.086 63.765 122.926 64.335C123.796 64.875 124.756 65.145 125.806 65.145C126.946 65.145 127.996 64.77 128.956 64.02C129.916 63.24 130.681 62.16 131.251 60.78C131.851 59.37 132.151 57.75 132.151 55.92C132.151 53.19 131.596 51 130.486 49.35C129.376 47.7 127.891 46.875 126.031 46.875C123.781 46.875 121.651 48.315 119.641 51.195L118.336 50.34L118.966 33.33H134.761L134.131 36.705H120.406L119.911 48.495C121.141 47.205 122.311 46.305 123.421 45.795C124.531 45.255 125.701 44.985 126.931 44.985ZM151.319 66.63C149.639 66.63 148.064 66 146.594 64.74C145.154 63.48 143.984 61.59 143.084 59.07C142.214 56.55 141.779 53.475 141.779 49.845C141.779 46.215 142.229 43.125 143.129 40.575C144.029 38.025 145.199 36.12 146.639 34.86C148.109 33.57 149.699 32.925 151.409 32.925C153.089 32.925 154.649 33.57 156.089 34.86C157.559 36.12 158.729 38.025 159.599 40.575C160.499 43.125 160.949 46.215 160.949 49.845C160.949 53.475 160.499 56.55 159.599 59.07C158.699 61.59 157.514 63.48 156.044 64.74C154.604 66 153.029 66.63 151.319 66.63ZM151.409 65.1C153.149 65.1 154.514 63.84 155.504 61.32C156.524 58.77 157.034 54.945 157.034 49.845C157.034 44.745 156.524 40.92 155.504 38.37C154.514 35.79 153.149 34.5 151.409 34.5C149.639 34.5 148.244 35.79 147.224 38.37C146.204 40.92 145.694 44.745 145.694 49.845C145.694 54.945 146.204 58.77 147.224 61.32C148.244 63.84 149.639 65.1 151.409 65.1ZM176.048 66.63C174.368 66.63 172.793 66 171.323 64.74C169.883 63.48 168.713 61.59 167.813 59.07C166.943 56.55 166.508 53.475 166.508 49.845C166.508 46.215 166.958 43.125 167.858 40.575C168.758 38.025 169.928 36.12 171.368 34.86C172.838 33.57 174.428 32.925 176.138 32.925C177.818 32.925 179.378 33.57 180.818 34.86C182.288 36.12 183.458 38.025 184.328 40.575C185.228 43.125 185.678 46.215 185.678 49.845C185.678 53.475 185.228 56.55 184.328 59.07C183.428 61.59 182.243 63.48 180.773 64.74C179.333 66 177.758 66.63 176.048 66.63ZM176.138 65.1C177.878 65.1 179.243 63.84 180.233 61.32C181.253 58.77 181.763 54.945 181.763 49.845C181.763 44.745 181.253 40.92 180.233 38.37C179.243 35.79 177.878 34.5 176.138 34.5C174.368 34.5 172.973 35.79 171.953 38.37C170.933 40.92 170.423 44.745 170.423 49.845C170.423 54.945 170.933 58.77 171.953 61.32C172.973 63.84 174.368 65.1 176.138 65.1ZM193.414 65.804C193.265 65.6547 193.19 65.4867 193.19 65.3C193.209 65.1133 193.283 64.9547 193.414 64.824C194.049 64.824 194.487 64.7213 194.73 64.516C194.973 64.3107 195.094 63.8907 195.094 63.256V56.816C195.094 56.1627 194.973 55.7427 194.73 55.556C194.487 55.3507 194.049 55.248 193.414 55.248C193.265 55.0987 193.19 54.9307 193.19 54.744C193.209 54.5573 193.283 54.3987 193.414 54.268C193.769 54.2493 194.207 54.212 194.73 54.156C195.271 54.0813 195.719 53.9787 196.074 53.848C196.186 53.8107 196.279 53.7827 196.354 53.764C196.447 53.7267 196.55 53.708 196.662 53.708C196.923 53.708 197.082 53.8293 197.138 54.072C197.194 54.2587 197.25 54.5293 197.306 54.884C197.362 55.22 197.39 55.5373 197.39 55.836C197.95 55.1827 198.529 54.6693 199.126 54.296C199.723 53.904 200.414 53.708 201.198 53.708C201.441 53.708 201.749 53.736 202.122 53.792C202.495 53.8293 202.869 53.9507 203.242 54.156C203.634 54.3427 203.961 54.66 204.222 55.108C204.371 55.332 204.465 55.5 204.502 55.612C204.558 55.724 204.595 55.8453 204.614 55.976C205.249 55.2293 205.865 54.6693 206.462 54.296C207.059 53.904 207.75 53.708 208.534 53.708C208.777 53.708 209.085 53.7453 209.458 53.82C209.85 53.876 210.242 54.0067 210.634 54.212C211.026 54.3987 211.343 54.6973 211.586 55.108C211.847 55.5187 211.997 55.9853 212.034 56.508C212.09 57.012 212.118 57.5627 212.118 58.16V63.256C212.118 63.8907 212.239 64.3107 212.482 64.516C212.743 64.7213 213.182 64.824 213.798 64.824C213.947 64.9547 214.022 65.1133 214.022 65.3C214.022 65.4867 213.947 65.6547 213.798 65.804H208.114C207.965 65.6547 207.89 65.4867 207.89 65.3C207.909 65.1133 207.983 64.9547 208.114 64.824C208.749 64.824 209.187 64.7213 209.43 64.516C209.673 64.3107 209.794 63.8907 209.794 63.256V57.88C209.794 56.8347 209.598 56.1533 209.206 55.836C208.833 55.5187 208.375 55.36 207.834 55.36C207.237 55.36 206.705 55.5373 206.238 55.892C205.79 56.228 205.435 56.6107 205.174 57.04C204.913 57.4693 204.782 57.8333 204.782 58.132V63.256C204.782 63.8907 204.903 64.3107 205.146 64.516C205.389 64.7213 205.827 64.824 206.462 64.824C206.611 64.9547 206.686 65.1133 206.686 65.3C206.686 65.4867 206.611 65.6547 206.462 65.804H200.75C200.619 65.6547 200.554 65.4867 200.554 65.3C200.554 65.1133 200.619 64.9547 200.75 64.824C201.385 64.824 201.823 64.7213 202.066 64.516C202.327 64.3107 202.458 63.8907 202.458 63.256V57.88C202.458 56.8347 202.262 56.1533 201.87 55.836C201.497 55.5187 201.039 55.36 200.498 55.36C199.901 55.36 199.369 55.5373 198.902 55.892C198.435 56.228 198.071 56.6107 197.81 57.04C197.549 57.4693 197.418 57.8333 197.418 58.132V63.256C197.418 63.8907 197.539 64.3107 197.782 64.516C198.043 64.7213 198.482 64.824 199.098 64.824C199.247 64.9547 199.322 65.1133 199.322 65.3C199.322 65.4867 199.247 65.6547 199.098 65.804H193.414ZM210.606 52.98C210.457 52.98 210.382 52.9147 210.382 52.784V52.364C210.382 52.084 210.513 51.7667 210.774 51.412C211.035 51.0573 211.362 50.684 211.754 50.292C212.146 49.8813 212.538 49.4613 212.93 49.032C213.322 48.584 213.649 48.136 213.91 47.688C214.171 47.2213 214.302 46.764 214.302 46.316C214.302 45.756 214.209 45.3173 214.022 45C213.835 44.6827 213.49 44.524 212.986 44.524C212.613 44.524 212.323 44.608 212.118 44.776C211.913 44.9253 211.81 45.2147 211.81 45.644C211.81 45.8493 211.903 46.036 212.09 46.204C212.202 46.3347 212.211 46.4747 212.118 46.624C212.043 46.7733 211.931 46.9133 211.782 47.044C211.67 47.1187 211.511 47.156 211.306 47.156C211.119 47.156 210.97 47.1187 210.858 47.044C210.69 46.8947 210.569 46.7173 210.494 46.512C210.419 46.288 210.382 46.0827 210.382 45.896C210.382 45.3173 210.643 44.8227 211.166 44.412C211.707 44.0013 212.417 43.796 213.294 43.796C213.686 43.796 214.087 43.88 214.498 44.048C214.927 44.216 215.291 44.4867 215.59 44.86C215.889 45.2147 216.038 45.6907 216.038 46.288C216.038 46.8107 215.861 47.324 215.506 47.828C215.151 48.3133 214.731 48.7707 214.246 49.2C213.761 49.6293 213.303 50.0307 212.874 50.404C212.463 50.7587 212.193 51.076 212.062 51.356C211.969 51.5427 212.015 51.636 212.202 51.636H214.722C214.909 51.636 215.049 51.5613 215.142 51.412C215.179 51.356 215.235 51.2347 215.31 51.048C215.385 50.8613 215.431 50.7307 215.45 50.656C215.655 50.544 215.814 50.5813 215.926 50.768L215.506 52.784C215.487 52.9147 215.366 52.98 215.142 52.98H210.606ZM246.052 41.67C246.132 41.59 246.232 41.48 246.352 41.34C246.472 41.18 246.572 41.06 246.652 40.98C246.732 40.9 246.812 40.86 246.892 40.86C247.012 40.86 247.272 41.03 247.672 41.37C248.072 41.69 248.442 42.04 248.782 42.42C249.122 42.8 249.292 43.06 249.292 43.2C249.112 43.44 248.752 43.59 248.212 43.65C248.112 45.99 247.932 47.76 247.672 48.96C247.412 50.14 247.002 50.94 246.442 51.36C245.742 51.92 244.772 52.2 243.532 52.2C243.532 51.34 243.372 50.75 243.052 50.43C242.752 50.11 242.002 49.82 240.802 49.56L240.832 49.11C242.332 49.25 243.372 49.32 243.952 49.32C244.332 49.32 244.612 49.24 244.792 49.08C245.212 48.66 245.512 46.73 245.692 43.29H242.272C242.052 45.41 241.422 47.32 240.382 49.02C239.362 50.7 237.592 52.16 235.072 53.4L234.712 52.98C235.232 52.58 235.702 52.17 236.122 51.75H227.572C226.152 51.77 224.652 51.91 223.072 52.17L222.322 50.67C223.422 50.79 224.752 50.87 226.312 50.91H228.262V46.26H226.732C225.892 46.28 225.012 46.42 224.092 46.68L223.342 45.15C224.262 45.27 225.382 45.35 226.702 45.39H228.262C228.262 43.41 228.162 41.79 227.962 40.53C229.342 40.87 230.292 41.14 230.812 41.34C231.332 41.54 231.592 41.71 231.592 41.85C231.592 41.93 231.522 42.02 231.382 42.12L230.902 42.42V45.39H232.102L232.762 44.4C232.842 44.3 232.942 44.16 233.062 43.98C233.202 43.78 233.312 43.64 233.392 43.56C233.492 43.46 233.582 43.41 233.662 43.41C233.782 43.41 234.052 43.58 234.472 43.92C234.912 44.26 235.312 44.62 235.672 45C236.052 45.38 236.242 45.64 236.242 45.78C236.162 46.1 235.912 46.26 235.492 46.26H230.902V50.91H232.642L234.112 48.84C235.192 49.76 236.052 50.53 236.692 51.15C237.712 49.97 238.412 48.75 238.792 47.49C239.172 46.23 239.412 44.83 239.512 43.29H238.192C237.452 43.31 236.692 43.45 235.912 43.71L235.132 42.21C236.232 42.33 237.562 42.41 239.122 42.45H245.452L246.052 41.67ZM233.182 56.37C233.262 56.25 233.362 56.09 233.482 55.89C233.622 55.69 233.732 55.54 233.812 55.44C233.892 55.34 233.972 55.29 234.052 55.29C234.172 55.29 234.432 55.48 234.832 55.86C235.252 56.22 235.642 56.61 236.002 57.03C236.362 57.43 236.542 57.7 236.542 57.84C236.462 58.16 236.212 58.32 235.792 58.32H231.472V64.68C232.672 65 234.492 65.16 236.932 65.16C243.392 65.16 247.602 65.13 249.562 65.07V65.46C249.062 65.58 248.682 65.84 248.422 66.24C248.162 66.66 248.012 67.16 247.972 67.74H236.842C234.822 67.74 233.152 67.55 231.832 67.17C230.512 66.79 229.402 66.12 228.502 65.16C227.602 64.18 226.852 62.78 226.252 60.96C225.532 64.28 224.272 66.82 222.472 68.58L222.142 68.25C223.222 66.29 223.952 63.57 224.332 60.09C224.392 59.43 224.422 58.7 224.422 57.9C224.422 56.28 224.312 54.9 224.092 53.76C225.452 53.98 226.402 54.17 226.942 54.33C227.482 54.47 227.752 54.6 227.752 54.72C227.752 54.8 227.672 54.89 227.512 54.99L226.972 55.29C226.852 57.19 226.682 58.72 226.462 59.88C227.102 61.48 227.932 62.67 228.952 63.45V57.93C228.952 55.41 228.822 53.36 228.562 51.78C229.942 52.14 230.892 52.43 231.412 52.65C231.952 52.85 232.222 53.02 232.222 53.16C232.222 53.26 232.142 53.36 231.982 53.46L231.472 53.79V57.45H232.522L233.182 56.37ZM245.182 53.1C245.242 53.02 245.332 52.9 245.452 52.74C245.592 52.56 245.702 52.43 245.782 52.35C245.862 52.27 245.942 52.23 246.022 52.23C246.142 52.23 246.422 52.41 246.862 52.77C247.322 53.11 247.742 53.48 248.122 53.88C248.522 54.28 248.722 54.55 248.722 54.69C248.422 54.99 248.042 55.19 247.582 55.29V57.81C247.622 59.85 247.682 61.46 247.762 62.64C247.642 62.86 247.312 63.1 246.772 63.36C246.252 63.62 245.762 63.75 245.302 63.75C244.942 63.75 244.762 63.55 244.762 63.15C244.762 63.11 244.802 62.86 244.882 62.4V61.71H239.572V62.25C239.592 62.45 239.602 62.64 239.602 62.82C239.622 62.98 239.642 63.09 239.662 63.15C239.622 63.35 239.352 63.57 238.852 63.81C238.352 64.03 237.842 64.14 237.322 64.14C237.162 64.14 237.032 64.08 236.932 63.96C236.832 63.84 236.782 63.7 236.782 63.54C236.862 62.7 236.922 61.64 236.962 60.36V58.44C236.962 56.12 236.842 54.18 236.602 52.62L239.722 53.94H244.582L245.182 53.1ZM239.572 54.81V60.84H244.882V54.81H239.572Z" fill="#2F3829"/>
<path d="M303.289 42.63C301.889 44.91 299.869 47.2 297.229 49.5C294.589 51.78 291.899 53.58 289.159 54.9L288.979 54.51C290.579 53.47 292.219 52.14 293.899 50.52C295.599 48.88 297.089 47.18 298.369 45.42C299.669 43.64 300.559 42.04 301.039 40.62L304.999 41.64C304.979 41.82 304.869 41.96 304.669 42.06C304.469 42.14 304.179 42.2 303.799 42.24C304.999 44.06 306.699 45.73 308.899 47.25C311.099 48.77 313.529 50.08 316.189 51.18L316.159 51.63C315.639 51.75 315.189 52.01 314.809 52.41C314.449 52.81 314.209 53.26 314.089 53.76C311.689 52.42 309.519 50.78 307.579 48.84C305.659 46.9 304.229 44.83 303.289 42.63ZM308.869 58.2C308.949 58.1 309.049 57.97 309.169 57.81C309.309 57.63 309.419 57.5 309.499 57.42C309.599 57.32 309.689 57.27 309.769 57.27C309.889 57.27 310.169 57.43 310.609 57.75C311.069 58.07 311.489 58.41 311.869 58.77C312.269 59.13 312.469 59.38 312.469 59.52C312.409 59.84 312.149 60 311.689 60H303.529V66.45H310.849L311.569 65.43C311.669 65.29 311.779 65.13 311.899 64.95C312.039 64.75 312.149 64.61 312.229 64.53C312.329 64.43 312.419 64.38 312.499 64.38C312.619 64.38 312.909 64.56 313.369 64.92C313.849 65.28 314.289 65.66 314.689 66.06C315.109 66.46 315.319 66.73 315.319 66.87C315.259 67.19 315.009 67.35 314.569 67.35H294.949C293.529 67.37 292.029 67.51 290.449 67.77L289.639 66.21C290.739 66.33 292.069 66.41 293.629 66.45H301.159V60H298.519C297.099 60.02 295.599 60.16 294.019 60.42L293.239 58.89C294.339 59.01 295.669 59.09 297.229 59.13H301.159V53.46H298.819C297.459 53.48 296.039 53.62 294.559 53.88L293.809 52.35C294.909 52.47 296.239 52.55 297.799 52.59H307.129L307.789 51.69C307.869 51.59 307.969 51.46 308.089 51.3C308.229 51.12 308.339 50.99 308.419 50.91C308.499 50.83 308.579 50.79 308.659 50.79C308.779 50.79 309.049 50.95 309.469 51.27C309.909 51.57 310.309 51.9 310.669 52.26C311.049 52.6 311.239 52.84 311.239 52.98C311.159 53.3 310.899 53.46 310.459 53.46H303.529V59.13H308.209L308.869 58.2ZM322.414 66C322.294 66 322.204 65.955 322.144 65.865C322.114 65.745 322.099 65.58 322.099 65.37C322.099 65.16 322.114 65.01 322.144 64.92C322.204 64.8 322.294 64.74 322.414 64.74H323.089C326.509 64.74 328.219 63.72 328.219 61.68V40.755C328.219 39.765 328.114 39.075 327.904 38.685C327.724 38.295 327.319 38.055 326.689 37.965C326.089 37.845 325.009 37.785 323.449 37.785H322.459C322.249 37.785 322.144 37.575 322.144 37.155C322.144 36.735 322.249 36.525 322.459 36.525C324.469 36.465 326.284 36.12 327.904 35.49C329.554 34.86 331.084 33.945 332.494 32.745V61.68C332.494 63.72 334.219 64.74 337.669 64.74H338.299C338.419 64.74 338.494 64.8 338.524 64.92C338.584 65.01 338.614 65.16 338.614 65.37C338.614 65.79 338.509 66 338.299 66H322.414ZM355.248 66.63C353.478 66.63 351.798 66 350.208 64.74C348.648 63.48 347.373 61.575 346.383 59.025C345.423 56.475 344.943 53.37 344.943 49.71C344.943 46.08 345.423 42.99 346.383 40.44C347.373 37.86 348.663 35.94 350.253 34.68C351.843 33.39 353.538 32.745 355.338 32.745C357.108 32.745 358.788 33.39 360.378 34.68C361.968 35.94 363.243 37.86 364.203 40.44C365.193 42.99 365.688 46.08 365.688 49.71C365.688 53.37 365.193 56.475 364.203 59.025C363.213 61.545 361.923 63.45 360.333 64.74C358.743 66 357.048 66.63 355.248 66.63ZM355.338 65.055C357.138 65.055 358.548 63.78 359.568 61.23C360.588 58.68 361.098 54.84 361.098 49.71C361.098 44.58 360.588 40.74 359.568 38.19C358.548 35.61 357.138 34.32 355.338 34.32C353.508 34.32 352.068 35.61 351.018 38.19C349.998 40.74 349.488 44.58 349.488 49.71C349.488 54.84 349.998 58.68 351.018 61.23C352.068 63.78 353.508 65.055 355.338 65.055ZM383.54 45.345C385.34 45.345 386.9 45.78 388.22 46.65C389.54 47.52 390.545 48.675 391.235 50.115C391.955 51.555 392.315 53.115 392.315 54.795C392.315 56.925 391.895 58.89 391.055 60.69C390.215 62.49 389.015 63.93 387.455 65.01C385.895 66.09 384.095 66.63 382.055 66.63C379.925 66.63 378.02 66.03 376.34 64.83C374.69 63.63 373.4 61.965 372.47 59.835C371.57 57.705 371.12 55.26 371.12 52.5C371.12 48.3 371.75 44.715 373.01 41.745C374.27 38.745 375.86 36.495 377.78 34.995C379.7 33.495 381.635 32.745 383.585 32.745C385.145 32.745 386.45 32.985 387.5 33.465C388.58 33.915 389.375 34.5 389.885 35.22C390.395 35.91 390.65 36.585 390.65 37.245C390.65 37.965 390.41 38.565 389.93 39.045C389.45 39.495 388.88 39.72 388.22 39.72C387.5 39.72 386.87 39.435 386.33 38.865C385.79 38.265 385.49 37.485 385.43 36.525C385.37 35.775 385.175 35.22 384.845 34.86C384.545 34.5 384.05 34.32 383.36 34.32C381.08 34.32 379.325 35.88 378.095 39C376.895 42.09 376.145 45.63 375.845 49.62C376.805 48.21 377.96 47.145 379.31 46.425C380.69 45.705 382.1 45.345 383.54 45.345ZM382.055 64.875C383.225 64.875 384.23 64.44 385.07 63.57C385.94 62.7 386.6 61.545 387.05 60.105C387.53 58.635 387.77 57.045 387.77 55.335C387.77 52.215 387.17 50.13 385.97 49.08C384.77 48.03 383.465 47.505 382.055 47.505C380.855 47.505 379.67 47.91 378.5 48.72C377.33 49.53 376.415 50.775 375.755 52.455C375.755 55.845 376.19 58.77 377.06 61.23C377.93 63.66 379.595 64.875 382.055 64.875ZM401.881 60.15L407.611 58.95L407.701 59.37C405.161 60.61 402.321 61.9 399.181 63.24C399.041 63.62 398.811 63.86 398.491 63.96L397.141 61.05C397.921 60.93 398.781 60.78 399.721 60.6V48.54C399.721 46.02 399.591 43.97 399.331 42.39L402.541 43.98C404.061 43.5 405.551 42.97 407.011 42.39C408.491 41.81 409.661 41.28 410.521 40.8C412.021 42.16 412.771 42.97 412.771 43.23C412.771 43.35 412.621 43.39 412.321 43.35L411.541 43.26C410.441 43.52 409.431 43.74 408.511 43.92C408.471 44.96 408.451 45.76 408.451 46.32C408.451 48.02 408.521 49.6 408.661 51.06H410.281L410.881 50.16C410.941 50.06 411.031 49.93 411.151 49.77C411.291 49.59 411.401 49.46 411.481 49.38C411.561 49.28 411.641 49.23 411.721 49.23C411.841 49.23 412.091 49.39 412.471 49.71C412.851 50.01 413.201 50.34 413.521 50.7C413.861 51.06 414.031 51.31 414.031 51.45C413.951 51.77 413.701 51.93 413.281 51.93H408.751C409.171 55.81 410.001 58.58 411.241 60.24C411.361 60.42 411.471 60.51 411.571 60.51C411.691 60.51 411.791 60.39 411.871 60.15C412.171 59.49 412.491 58.56 412.831 57.36L413.191 57.45L412.801 61.44C413.141 62.18 413.311 62.71 413.311 63.03C413.311 63.27 413.231 63.47 413.071 63.63C412.851 63.85 412.561 63.96 412.201 63.96C411.801 63.96 411.391 63.82 410.971 63.54C410.551 63.26 410.191 62.91 409.891 62.49C408.991 61.21 408.281 59.69 407.761 57.93C407.261 56.15 406.891 54.15 406.651 51.93H401.881V60.15ZM416.491 60.42C416.531 62.9 416.611 65.25 416.731 67.47C416.571 67.69 416.311 67.9 415.951 68.1C415.591 68.3 415.161 68.4 414.661 68.4C414.501 68.4 414.351 68.34 414.211 68.22C414.071 68.1 414.001 67.96 414.001 67.8C414.081 66.62 414.151 65.48 414.211 64.38C414.271 63.26 414.311 61.8 414.331 60V47.79C414.331 45.27 414.201 43.22 413.941 41.64L416.821 43.11H420.571L421.171 42.39C421.231 42.33 421.321 42.23 421.441 42.09C421.561 41.95 421.661 41.85 421.741 41.79C421.841 41.71 421.931 41.67 422.011 41.67C422.131 41.67 422.391 41.86 422.791 42.24C423.211 42.6 423.601 42.99 423.961 43.41C424.321 43.83 424.501 44.11 424.501 44.25C424.281 44.47 423.851 44.58 423.211 44.58C422.631 45.86 421.971 47.24 421.231 48.72C420.511 50.18 419.871 51.36 419.311 52.26C420.811 53.42 421.901 54.68 422.581 56.04C423.281 57.38 423.631 58.74 423.631 60.12C423.631 61.64 423.321 62.76 422.701 63.48C422.101 64.18 421.071 64.56 419.611 64.62C419.611 63.66 419.491 63.03 419.251 62.73C418.951 62.47 418.451 62.29 417.751 62.19V61.71H419.971C420.271 61.71 420.491 61.65 420.631 61.53C421.131 61.23 421.381 60.53 421.381 59.43C421.381 56.87 420.451 54.51 418.591 52.35C418.931 51.23 419.301 49.85 419.701 48.21C420.121 46.57 420.451 45.15 420.691 43.95H416.491V60.42ZM406.321 44.34C404.701 44.62 403.221 44.81 401.881 44.91V51.06H406.591C406.411 48.86 406.321 46.62 406.321 44.34ZM403.021 66.72C401.841 66.74 400.621 66.88 399.361 67.14L398.581 65.61C399.681 65.73 401.011 65.81 402.571 65.85H407.671L408.331 64.89C408.411 64.79 408.511 64.65 408.631 64.47C408.771 64.27 408.881 64.13 408.961 64.05C409.061 63.95 409.151 63.9 409.231 63.9C409.351 63.9 409.621 64.07 410.041 64.41C410.461 64.73 410.851 65.08 411.211 65.46C411.571 65.84 411.751 66.1 411.751 66.24C411.671 66.56 411.421 66.72 411.001 66.72H403.021Z" fill="#2F3829"/>
<path d="M168.148 6.64C168.18 6.58667 168.228 6.51733 168.292 6.432C168.367 6.336 168.425 6.26667 168.468 6.224C168.511 6.17067 168.553 6.144 168.596 6.144C168.66 6.144 168.799 6.22933 169.012 6.4C169.236 6.57067 169.444 6.75733 169.636 6.96C169.828 7.152 169.924 7.28533 169.924 7.36C169.881 7.53067 169.748 7.616 169.524 7.616H158.58V10.016C158.58 11.168 158.521 12.256 158.404 13.28C158.297 14.2933 158.052 15.3333 157.668 16.4C157.284 17.456 156.719 18.4053 155.972 19.248L155.78 19.072C156.495 17.8133 156.975 16.4427 157.22 14.96C157.465 13.4667 157.588 11.8187 157.588 10.016V8.304C157.588 7.57867 157.551 6.98667 157.476 6.528L158.772 7.136H162.772C162.772 6.05867 162.719 5.17867 162.612 4.496C163.209 4.66667 163.62 4.80533 163.844 4.912C164.079 5.008 164.196 5.09333 164.196 5.168C164.196 5.22133 164.148 5.27467 164.052 5.328L163.78 5.504V7.136H167.812L168.148 6.64ZM161.236 17.024C162.484 16.9173 164.553 16.7147 167.444 16.416C167.124 15.8507 166.751 15.2907 166.324 14.736C165.908 14.1813 165.497 13.6853 165.092 13.248L165.3 13.104C166.271 13.712 167.065 14.3413 167.684 14.992C168.303 15.632 168.745 16.2293 169.012 16.784C169.279 17.3387 169.412 17.824 169.412 18.24C169.412 18.496 169.364 18.6933 169.268 18.832C169.172 18.9813 169.044 19.056 168.884 19.056C168.756 19.056 168.601 18.992 168.42 18.864C168.292 18.224 168.025 17.52 167.62 16.752C165.476 17.2213 162.671 17.76 159.204 18.368C159.097 18.5493 158.959 18.6613 158.788 18.704L158.212 17.264C158.884 17.232 159.759 17.168 160.836 17.072C161.316 15.632 161.796 13.8773 162.276 11.808C162.404 11.2747 162.505 10.7253 162.58 10.16C162.665 9.59467 162.713 9.09867 162.724 8.672C163.908 8.90667 164.5 9.09333 164.5 9.232C164.5 9.264 164.452 9.30667 164.356 9.36L164.084 9.504C163.785 10.6453 163.38 11.8987 162.868 13.264C162.356 14.6293 161.812 15.8827 161.236 17.024ZM185.572 8.768C185.615 8.71467 185.673 8.63467 185.748 8.528C185.833 8.42133 185.897 8.34133 185.94 8.288C185.993 8.23467 186.041 8.208 186.084 8.208C186.148 8.208 186.297 8.304 186.532 8.496C186.777 8.67733 187.007 8.87467 187.22 9.088C187.433 9.30133 187.54 9.44533 187.54 9.52C187.508 9.69067 187.375 9.776 187.14 9.776H181.012C181.321 11.504 181.993 13.0933 183.028 14.544C184.073 15.984 185.647 17.2053 187.748 18.208L187.716 18.384C187.428 18.416 187.199 18.496 187.028 18.624C186.857 18.7627 186.735 18.976 186.66 19.264C184.729 18.1547 183.321 16.7893 182.436 15.168C181.561 13.536 180.985 11.744 180.708 9.792C180.559 11.1573 180.255 12.3947 179.796 13.504C179.337 14.6133 178.607 15.6587 177.604 16.64C176.612 17.6107 175.279 18.48 173.604 19.248L173.428 18.96C174.868 18.16 176.02 17.2853 176.884 16.336C177.748 15.376 178.383 14.368 178.788 13.312C179.204 12.2453 179.487 11.0667 179.636 9.776H176.292C175.535 9.78667 174.735 9.86133 173.892 10L173.46 9.184C174.047 9.248 174.756 9.29067 175.588 9.312H179.684C179.716 8.992 179.743 8.512 179.764 7.872C179.775 7.712 179.78 7.46667 179.78 7.136C179.78 6.13333 179.721 5.26933 179.604 4.544C180.244 4.608 180.687 4.672 180.932 4.736C181.188 4.78933 181.316 4.848 181.316 4.912C181.316 4.96533 181.273 5.01867 181.188 5.072L180.932 5.264C180.932 5.488 180.927 5.65333 180.916 5.76C180.895 7.232 180.841 8.416 180.756 9.312H185.188L185.572 8.768ZM198.036 7.328C197.385 7.776 196.713 8.13333 196.02 8.4C195.625 9.47733 195.188 10.6453 194.708 11.904C194.239 13.152 193.855 14.1493 193.556 14.896C193.503 15.024 193.412 15.1307 193.284 15.216C193.167 15.3013 193.049 15.344 192.932 15.344C192.793 15.344 192.692 15.2693 192.628 15.12C192.564 14.9707 192.532 14.784 192.532 14.56C192.532 14.4427 192.537 14.3627 192.548 14.32C192.569 14.2773 192.607 14.2133 192.66 14.128C192.777 13.9147 192.879 13.7227 192.964 13.552C193.156 13.136 193.391 12.6773 193.668 12.176C194.041 11.4507 194.351 10.8213 194.596 10.288C194.852 9.744 195.071 9.19467 195.252 8.64C195.007 8.69333 194.804 8.72 194.644 8.72C194.196 8.72 193.833 8.61867 193.556 8.416C193.279 8.21333 193.071 7.984 192.932 7.728C192.857 7.61067 192.82 7.504 192.82 7.408C192.82 7.344 192.847 7.312 192.9 7.312C192.943 7.312 193.017 7.36533 193.124 7.472C193.359 7.696 193.743 7.808 194.276 7.808C194.596 7.808 195.012 7.728 195.524 7.568C195.567 7.38667 195.588 7.17867 195.588 6.944C195.588 6.60267 195.519 6.33067 195.38 6.128C195.295 6 195.172 5.89867 195.012 5.824C194.863 5.73867 194.788 5.68 194.788 5.648C194.788 5.60533 194.82 5.568 194.884 5.536C194.959 5.504 195.044 5.488 195.14 5.488C195.289 5.488 195.439 5.51467 195.588 5.568C195.908 5.67467 196.137 5.808 196.276 5.968C196.415 6.128 196.484 6.33067 196.484 6.576C196.484 6.78933 196.447 7.01333 196.372 7.248L196.66 7.104C196.745 7.05067 196.82 7.00267 196.884 6.96C196.948 6.90667 196.98 6.85867 196.98 6.816C196.98 6.77333 196.932 6.71467 196.836 6.64C196.793 6.608 196.729 6.57067 196.644 6.528C196.569 6.48533 196.532 6.448 196.532 6.416C196.532 6.37333 196.58 6.352 196.676 6.352L197.252 6.368C197.327 6.368 197.417 6.352 197.524 6.32C197.641 6.288 197.748 6.272 197.844 6.272C197.993 6.272 198.111 6.32 198.196 6.416C198.292 6.50133 198.34 6.61333 198.34 6.752C198.34 6.85867 198.313 6.96533 198.26 7.072C198.207 7.17867 198.132 7.264 198.036 7.328ZM201.316 9.664C200.836 9.664 200.441 9.82933 200.132 10.16C199.833 10.4907 199.684 10.9867 199.684 11.648C199.684 12.256 199.759 13.1253 199.908 14.256C199.972 14.704 200.015 15.04 200.036 15.264C200.559 15.4027 201.044 15.5733 201.492 15.776C201.951 15.968 202.287 16.1653 202.5 16.368C202.735 16.6027 202.852 16.816 202.852 17.008C202.852 17.1253 202.809 17.2267 202.724 17.312C202.649 17.3973 202.553 17.44 202.436 17.44C202.34 17.44 202.228 17.408 202.1 17.344C201.983 17.28 201.817 17.1787 201.604 17.04C201.113 16.72 200.612 16.4747 200.1 16.304C200.111 16.3893 200.116 16.5227 200.116 16.704C200.116 17.2693 199.892 17.712 199.444 18.032C199.007 18.3627 198.489 18.528 197.892 18.528C197.529 18.528 197.167 18.4533 196.804 18.304C196.452 18.1653 196.159 17.9627 195.924 17.696C195.7 17.4293 195.588 17.1147 195.588 16.752C195.588 16.208 195.86 15.7867 196.404 15.488C196.948 15.1787 197.615 15.024 198.404 15.024C198.66 15.024 198.916 15.0453 199.172 15.088C199.097 13.9147 199.06 13.1307 199.06 12.736C199.06 12 199.113 11.4187 199.22 10.992C199.337 10.5653 199.572 10.2027 199.924 9.904C200.276 9.59467 200.815 9.328 201.54 9.104C201.743 9.05067 201.844 8.94933 201.844 8.8C201.844 8.672 201.764 8.51733 201.604 8.336C201.455 8.15467 201.3 8.00533 201.14 7.888C201.076 7.83467 201.044 7.79733 201.044 7.776C201.044 7.75467 201.081 7.744 201.156 7.744C201.241 7.744 201.364 7.76533 201.524 7.808C201.684 7.84 201.823 7.88267 201.94 7.936C202.303 8.096 202.655 8.34133 202.996 8.672C203.337 8.992 203.508 9.296 203.508 9.584C203.508 9.776 203.433 9.94133 203.284 10.08C203.135 10.2187 202.964 10.288 202.772 10.288C202.655 10.288 202.548 10.2667 202.452 10.224C202.356 10.1707 202.239 10.0907 202.1 9.984C201.951 9.87733 201.817 9.79733 201.7 9.744C201.593 9.69067 201.465 9.664 201.316 9.664ZM197.668 17.696C198.287 17.696 198.692 17.552 198.884 17.264C199.076 16.9653 199.177 16.5547 199.188 16.032C198.74 15.936 198.313 15.888 197.908 15.888C197.428 15.888 197.023 15.9627 196.692 16.112C196.361 16.2613 196.196 16.48 196.196 16.768C196.196 17.0667 196.34 17.296 196.628 17.456C196.927 17.616 197.273 17.696 197.668 17.696ZM221.252 7.616C221.284 7.57333 221.332 7.50933 221.396 7.424C221.46 7.328 221.513 7.25867 221.556 7.216C221.609 7.16267 221.657 7.136 221.7 7.136C221.764 7.136 221.897 7.22133 222.1 7.392C222.313 7.552 222.511 7.728 222.692 7.92C222.873 8.10133 222.964 8.22933 222.964 8.304C222.932 8.47467 222.804 8.56 222.58 8.56H221.588C221.428 9.85067 221.193 11.0187 220.884 12.064C220.585 13.1093 220.185 14.064 219.684 14.928C220.537 16.368 221.647 17.488 223.012 18.288L222.964 18.432C222.473 18.5067 222.159 18.768 222.02 19.216C220.847 18.3413 219.897 17.1733 219.172 15.712C218.159 17.152 216.777 18.3253 215.028 19.232L214.868 19.024C216.532 17.8933 217.823 16.4747 218.74 14.768C218.207 13.4027 217.817 11.8453 217.572 10.096C217.135 10.992 216.66 11.7547 216.148 12.384L215.908 12.256C216.495 11.1253 216.996 9.71733 217.412 8.032C217.54 7.49867 217.641 6.89067 217.716 6.208C217.801 5.52533 217.839 4.96533 217.828 4.528C218.969 4.77333 219.54 4.96533 219.54 5.104C219.54 5.136 219.492 5.17867 219.396 5.232L219.108 5.376C218.948 6.16533 218.708 7.06667 218.388 8.08H220.932L221.252 7.616ZM214.932 7.664C214.964 7.62133 215.012 7.55733 215.076 7.472C215.14 7.376 215.204 7.328 215.268 7.328C215.375 7.328 215.577 7.46133 215.876 7.728C216.175 7.99467 216.324 8.18667 216.324 8.304C216.292 8.35733 216.223 8.416 216.116 8.48C216.009 8.53333 215.892 8.57067 215.764 8.592V9.744C215.785 10.6827 215.817 11.4187 215.86 11.952C215.807 12.0373 215.684 12.128 215.492 12.224C215.3 12.32 215.135 12.368 214.996 12.368H214.852V11.84H210.42V12.224C210.42 12.2773 210.335 12.3413 210.164 12.416C209.993 12.4907 209.823 12.528 209.652 12.528C209.588 12.528 209.535 12.496 209.492 12.432C209.449 12.368 209.428 12.2933 209.428 12.208C209.46 11.8987 209.481 11.5947 209.492 11.296L209.508 10.864V10.016C209.508 8.97067 209.455 8.112 209.348 7.44L210.5 8H212.1V6.944H210.98C210.319 6.95467 209.636 7.02933 208.932 7.168L208.532 6.352C209.119 6.416 209.828 6.45867 210.66 6.48H212.1C212.1 5.70133 212.063 5.056 211.988 4.544C212.937 4.832 213.412 5.05067 213.412 5.2C213.412 5.25333 213.369 5.30667 213.284 5.36L213.044 5.52V6.48H215.012L215.3 6.128C215.215 6.18133 215.129 6.208 215.044 6.208C214.98 6.208 214.884 6.18133 214.756 6.128C214.681 5.92533 214.537 5.72267 214.324 5.52C214.111 5.30667 213.892 5.14133 213.668 5.024L213.812 4.864C214.377 4.87467 214.799 4.97067 215.076 5.152C215.353 5.33333 215.492 5.536 215.492 5.76C215.492 5.824 215.476 5.888 215.444 5.952L215.668 5.68C216.169 6.07467 216.575 6.416 216.884 6.704C216.873 6.77867 216.831 6.83733 216.756 6.88C216.681 6.92267 216.596 6.944 216.5 6.944H213.044V8H214.724L214.932 7.664ZM212.1 9.632V8.448H210.42V9.632H212.1ZM214.852 9.632V8.448H213.044V9.632H214.852ZM218.212 8.56C218.041 9.008 217.908 9.344 217.812 9.568C218.143 11.2533 218.591 12.7093 219.156 13.936C219.817 12.4107 220.249 10.6187 220.452 8.56H218.212ZM212.1 10.112H210.42V11.36H212.1V10.112ZM213.044 10.112V11.36H214.852V10.112H213.044ZM214.996 13.024C215.039 12.9707 215.097 12.8907 215.172 12.784C215.257 12.6773 215.332 12.624 215.396 12.624C215.46 12.624 215.588 12.6933 215.78 12.832C215.983 12.96 216.169 13.104 216.34 13.264C216.511 13.424 216.596 13.5413 216.596 13.616C216.553 13.7867 216.42 13.872 216.196 13.872H212.404C212.351 14.3093 212.281 14.704 212.196 15.056H214.42L214.66 14.768C214.692 14.736 214.745 14.6827 214.82 14.608C214.895 14.5227 214.964 14.48 215.028 14.48C215.135 14.48 215.332 14.608 215.62 14.864C215.919 15.12 216.068 15.3067 216.068 15.424C215.961 15.5307 215.764 15.6 215.476 15.632C215.327 17.328 214.98 18.3787 214.436 18.784C214.095 19.0293 213.641 19.152 213.076 19.152C213.076 18.8107 212.991 18.5867 212.82 18.48C212.671 18.352 212.292 18.2347 211.684 18.128V17.856C212.132 17.888 212.404 17.9093 212.5 17.92C213.012 17.9627 213.311 17.984 213.396 17.984C213.631 17.984 213.796 17.9413 213.892 17.856C214.02 17.7493 214.137 17.4987 214.244 17.104C214.361 16.6987 214.457 16.176 214.532 15.536H212.052C211.583 17.0827 210.489 18.32 208.772 19.248L208.58 18.992C209.604 18.2667 210.308 17.4827 210.692 16.64C211.087 15.7867 211.316 14.864 211.38 13.872H210.484C209.972 13.8827 209.449 13.9573 208.916 14.096L208.516 13.28C209.103 13.344 209.812 13.3867 210.644 13.408H212.084C212.084 12.8107 212.052 12.2987 211.988 11.872C212.596 12.0747 212.969 12.2293 213.108 12.336C213.247 12.432 213.273 12.5173 213.188 12.592L213.044 12.688V13.408H214.708L214.996 13.024ZM238.596 7.632C238.617 7.6 238.649 7.552 238.692 7.488C238.745 7.41333 238.788 7.36 238.82 7.328C238.863 7.28533 238.905 7.264 238.948 7.264C239.044 7.264 239.247 7.41333 239.556 7.712C239.876 8 240.036 8.20267 240.036 8.32C239.94 8.448 239.743 8.53333 239.444 8.576C239.423 10.688 239.359 12.2027 239.252 13.12C239.145 14.0373 238.969 14.6293 238.724 14.896C238.425 15.2373 237.999 15.408 237.444 15.408C237.444 15.2267 237.433 15.0773 237.412 14.96C237.391 14.8427 237.343 14.7467 237.268 14.672C237.119 14.544 236.852 14.4427 236.468 14.368V14.08C237.055 14.1333 237.439 14.16 237.62 14.16C237.727 14.16 237.807 14.1493 237.86 14.128C237.924 14.1067 237.977 14.0693 238.02 14.016C238.159 13.8453 238.265 13.3333 238.34 12.48C238.415 11.6267 238.463 10.2773 238.484 8.432L236.132 9.36V12.192C236.153 13.5147 236.196 14.768 236.26 15.952C236.196 16.0693 236.073 16.1813 235.892 16.288C235.711 16.384 235.529 16.432 235.348 16.432C235.263 16.432 235.183 16.4 235.108 16.336C235.044 16.272 235.012 16.1973 235.012 16.112C235.055 15.4933 235.087 14.88 235.108 14.272C235.14 13.664 235.161 12.896 235.172 11.968V9.728L233.108 10.544V17.056C233.108 17.312 233.177 17.488 233.316 17.584C233.465 17.6693 233.775 17.712 234.244 17.712H236.532C237.652 17.712 238.377 17.696 238.708 17.664C238.825 17.6533 238.911 17.632 238.964 17.6C239.028 17.5573 239.087 17.4987 239.14 17.424C239.279 17.1253 239.471 16.3147 239.716 14.992H239.924L239.956 17.488C240.159 17.5627 240.292 17.6373 240.356 17.712C240.431 17.776 240.468 17.8667 240.468 17.984C240.468 18.1867 240.361 18.336 240.148 18.432C239.945 18.528 239.567 18.5973 239.012 18.64C238.468 18.6827 237.631 18.704 236.5 18.704H234.164C233.641 18.704 233.231 18.6613 232.932 18.576C232.644 18.4907 232.436 18.3467 232.308 18.144C232.191 17.9413 232.132 17.648 232.132 17.264V10.912L230.228 11.664L229.94 11.28L232.132 10.416V8.112C232.132 7.17333 232.084 6.384 231.988 5.744C232.564 5.92533 232.959 6.06933 233.172 6.176C233.396 6.272 233.508 6.36267 233.508 6.448C233.508 6.50133 233.465 6.55467 233.38 6.608L233.108 6.784V10.032L235.172 9.232V6.912C235.172 5.97333 235.124 5.17867 235.028 4.528C235.583 4.70933 235.967 4.85333 236.18 4.96C236.404 5.056 236.516 5.14133 236.516 5.216C236.516 5.28 236.473 5.33867 236.388 5.392L236.132 5.568V8.848L238.212 8.032L238.356 7.984L238.596 7.632ZM229.972 8.96C230.015 8.90667 230.063 8.83733 230.116 8.752C230.169 8.66667 230.212 8.60267 230.244 8.56C230.287 8.51733 230.329 8.496 230.372 8.496C230.468 8.496 230.681 8.66133 231.012 8.992C231.343 9.312 231.508 9.53067 231.508 9.648C231.465 9.81867 231.337 9.904 231.124 9.904H229.156V14.976L231.476 13.904L231.572 14.128L230.42 14.912C229.204 15.744 228.073 16.4907 227.028 17.152C226.975 17.3653 226.879 17.5093 226.74 17.584L226.132 16.224C226.633 16.0533 227.316 15.7813 228.18 15.408V9.904H227.556C227.225 9.91467 226.884 9.98933 226.532 10.128L226.132 9.296C226.516 9.36 226.985 9.40267 227.54 9.424H228.18V8.128C228.18 6.784 228.111 5.69067 227.972 4.848C228.569 5.01867 228.985 5.15733 229.22 5.264C229.455 5.36 229.572 5.44533 229.572 5.52C229.572 5.57333 229.524 5.62667 229.428 5.68L229.156 5.84V9.424H229.684L229.972 8.96ZM255.076 8.88C255.428 8.88 255.737 8.992 256.004 9.216C256.281 9.44 256.42 9.73867 256.42 10.112C256.42 10.592 256.212 11.0027 255.796 11.344C255.38 11.6747 254.815 11.9947 254.1 12.304L252.916 12.784C252.127 13.0933 251.599 13.3067 251.332 13.424C251.3 13.648 251.284 14 251.284 14.48C251.284 15.2373 251.279 15.664 251.268 15.76C251.257 15.92 251.188 16.0587 251.06 16.176C250.943 16.2827 250.815 16.336 250.676 16.336C250.548 16.336 250.436 16.2773 250.34 16.16C250.244 16.0427 250.196 15.9093 250.196 15.76C250.196 15.6427 250.212 15.4347 250.244 15.136L250.34 13.904C249.721 14.2453 249.236 14.6027 248.884 14.976C248.543 15.3493 248.372 15.7653 248.372 16.224C248.372 17.0347 249.183 17.44 250.804 17.44C251.049 17.44 251.3 17.4187 251.556 17.376C251.812 17.3333 252.052 17.2853 252.276 17.232C252.703 17.136 253.033 17.088 253.268 17.088C253.684 17.088 253.892 17.232 253.892 17.52C253.892 17.84 253.593 18.064 252.996 18.192C252.399 18.32 251.775 18.384 251.124 18.384C249.791 18.384 248.9 18.1867 248.452 17.792C248.004 17.3867 247.78 16.896 247.78 16.32C247.78 15.7227 248.004 15.2 248.452 14.752C248.911 14.2933 249.551 13.8507 250.372 13.424C250.383 13.3067 250.388 13.1413 250.388 12.928C250.388 11.808 250.057 11.248 249.396 11.248C249.012 11.248 248.607 11.4773 248.18 11.936C247.764 12.3947 247.359 12.896 246.964 13.44C246.932 13.4827 246.857 13.5947 246.74 13.776C246.623 13.9467 246.511 14.0853 246.404 14.192C246.297 14.2987 246.207 14.352 246.132 14.352C245.951 14.352 245.812 14.2827 245.716 14.144C245.62 14.0053 245.572 13.84 245.572 13.648C245.572 13.392 245.631 13.2 245.748 13.072L246.036 12.816C246.377 12.496 246.671 12.208 246.916 11.952C247.161 11.696 247.38 11.4027 247.572 11.072C248.116 10.144 248.553 9.152 248.884 8.096C248.468 8.21333 248.057 8.272 247.652 8.272C247.3 8.272 247.001 8.21333 246.756 8.096C246.511 7.97867 246.217 7.78667 245.876 7.52C245.833 7.488 245.812 7.456 245.812 7.424C245.812 7.38133 245.839 7.36 245.892 7.36C245.935 7.36 246.009 7.376 246.116 7.408C246.457 7.536 246.82 7.6 247.204 7.6C247.396 7.6 247.663 7.57867 248.004 7.536C248.345 7.48267 248.719 7.38133 249.124 7.232C249.199 6.93333 249.236 6.672 249.236 6.448C249.236 6.02133 249.071 5.67467 248.74 5.408C248.687 5.36533 248.66 5.32267 248.66 5.28C248.671 5.12 248.756 5.04 248.916 5.04C249.012 5.04 249.193 5.072 249.46 5.136C249.727 5.2 249.892 5.27467 249.956 5.36C250.009 5.424 250.036 5.54133 250.036 5.712C250.036 5.776 250.025 5.88267 250.004 6.032C250.175 6.14933 250.404 6.208 250.692 6.208C250.841 6.208 250.953 6.192 251.028 6.16C251.135 6.13867 251.241 6.128 251.348 6.128C251.593 6.128 251.716 6.21867 251.716 6.4C251.716 6.53867 251.631 6.69333 251.46 6.864C251.3 7.03467 251.097 7.184 250.852 7.312C250.511 7.504 250.068 7.70133 249.524 7.904C249.14 9.14133 248.761 10.1707 248.388 10.992C248.697 10.8107 249.001 10.72 249.3 10.72C249.823 10.72 250.228 10.864 250.516 11.152C250.815 11.44 251.012 11.8293 251.108 12.32C251.3 11.872 251.508 11.4827 251.732 11.152C251.956 10.8107 252.228 10.4693 252.548 10.128C252.868 9.78667 253.263 9.49333 253.732 9.248C254.201 9.00267 254.649 8.88 255.076 8.88ZM249.956 6.336C249.956 6.368 249.908 6.56533 249.812 6.928C249.887 6.896 249.951 6.864 250.004 6.832C250.057 6.78933 250.105 6.75733 250.148 6.736C250.223 6.69333 250.26 6.65067 250.26 6.608C250.26 6.56533 250.217 6.512 250.132 6.448L249.956 6.336ZM253.716 11.728C254.239 11.4187 254.66 11.0827 254.98 10.72C255.311 10.3467 255.476 10.0427 255.476 9.808C255.476 9.49867 255.273 9.344 254.868 9.344C254.58 9.344 254.249 9.44533 253.876 9.648C253.503 9.85067 253.156 10.112 252.836 10.432C252.548 10.72 252.271 11.1093 252.004 11.6C251.737 12.08 251.545 12.5067 251.428 12.88V12.896L251.636 12.8L251.972 12.64C252.836 12.2133 253.417 11.9093 253.716 11.728ZM273.972 6.512C274.004 6.46933 274.047 6.40533 274.1 6.32C274.164 6.224 274.217 6.15467 274.26 6.112C274.303 6.06933 274.345 6.048 274.388 6.048C274.452 6.048 274.585 6.128 274.788 6.288C274.991 6.448 275.177 6.61867 275.348 6.8C275.529 6.98133 275.62 7.10933 275.62 7.184C275.588 7.35467 275.46 7.44 275.236 7.44H272.372C272.745 8.06933 273.257 8.64533 273.908 9.168C274.569 9.68 275.268 10.08 276.004 10.368L275.988 10.528C275.572 10.6133 275.3 10.9173 275.172 11.44C274.447 10.9813 273.807 10.4107 273.252 9.728C272.708 9.04533 272.292 8.28267 272.004 7.44H270.292C269.332 9.24267 268.063 10.6133 266.484 11.552L266.292 11.344C267.476 10.3627 268.463 9.06133 269.252 7.44H268.468C268.02 7.45067 267.561 7.52533 267.092 7.664L266.676 6.832C267.199 6.896 267.828 6.93867 268.564 6.96H269.476C269.647 6.58667 269.796 6.17067 269.924 5.712C270.052 5.24267 270.127 4.832 270.148 4.48C271.129 4.768 271.62 4.98133 271.62 5.12C271.62 5.16267 271.572 5.20533 271.476 5.248L271.188 5.36C270.996 5.91467 270.777 6.448 270.532 6.96H273.668L273.972 6.512ZM264.836 5.248C264.868 5.20533 264.911 5.14667 264.964 5.072C265.028 4.98667 265.081 4.92267 265.124 4.88C265.167 4.83733 265.209 4.816 265.252 4.816C265.316 4.816 265.444 4.89067 265.636 5.04C265.828 5.18933 266.004 5.34933 266.164 5.52C266.324 5.69067 266.404 5.81333 266.404 5.888C266.372 6.05867 266.239 6.144 266.004 6.144H264.692C263.935 6.15467 263.135 6.22933 262.292 6.368L261.876 5.536C262.367 5.6 262.964 5.64267 263.668 5.664H264.532L264.836 5.248ZM263.252 8.144C262.74 8.15467 262.207 8.22933 261.652 8.368L261.252 7.552C261.839 7.616 262.548 7.65867 263.38 7.68H265.364L265.652 7.248C265.695 7.19467 265.737 7.136 265.78 7.072C265.823 7.008 265.865 6.94933 265.908 6.896C265.961 6.84267 266.009 6.816 266.052 6.816C266.116 6.816 266.244 6.89067 266.436 7.04C266.628 7.18933 266.804 7.35467 266.964 7.536C267.135 7.70667 267.22 7.82933 267.22 7.904C267.188 8.064 267.06 8.144 266.836 8.144H263.252ZM265.06 9.328C265.092 9.28533 265.135 9.22667 265.188 9.152C265.241 9.07733 265.284 9.024 265.316 8.992C265.359 8.94933 265.401 8.928 265.444 8.928C265.551 8.928 265.753 9.06667 266.052 9.344C266.351 9.61067 266.5 9.80267 266.5 9.92C266.468 10.0907 266.335 10.176 266.1 10.176H264.724C263.967 10.1867 263.167 10.2613 262.324 10.4L261.924 9.584C262.457 9.648 263.108 9.69067 263.876 9.712H264.804L265.06 9.328ZM270.196 10.496C269.812 10.5067 269.417 10.5813 269.012 10.72L268.596 9.888C269.14 9.952 269.801 9.99467 270.58 10.016H271.54L271.812 9.616C271.833 9.584 271.871 9.52533 271.924 9.44C271.977 9.35467 272.025 9.296 272.068 9.264C272.111 9.22133 272.153 9.2 272.196 9.2C272.303 9.2 272.511 9.344 272.82 9.632C273.14 9.92 273.3 10.1227 273.3 10.24C273.268 10.4107 273.14 10.496 272.916 10.496H270.196ZM265.06 11.376C265.092 11.3333 265.135 11.2747 265.188 11.2C265.241 11.1253 265.284 11.072 265.316 11.04C265.359 10.9973 265.401 10.976 265.444 10.976C265.551 10.976 265.753 11.1147 266.052 11.392C266.351 11.6693 266.5 11.8667 266.5 11.984C266.468 12.144 266.335 12.224 266.1 12.224H264.724C263.967 12.2347 263.167 12.3093 262.324 12.448L261.924 11.632C262.457 11.696 263.108 11.7387 263.876 11.76H264.804L265.06 11.376ZM273.012 13.792C273.044 13.7493 273.081 13.696 273.124 13.632C273.177 13.568 273.22 13.52 273.252 13.488C273.295 13.456 273.337 13.44 273.38 13.44C273.476 13.44 273.679 13.5893 273.988 13.888C274.297 14.1867 274.452 14.3947 274.452 14.512C274.345 14.6187 274.148 14.688 273.86 14.72C273.753 15.7653 273.583 16.6453 273.348 17.36C273.113 18.064 272.836 18.5387 272.516 18.784C272.121 19.0827 271.609 19.232 270.98 19.232C270.98 18.88 270.884 18.64 270.692 18.512C270.543 18.3733 270.111 18.24 269.396 18.112L269.412 17.84L269.732 17.872C270.649 17.9467 271.199 17.984 271.38 17.984C271.519 17.984 271.62 17.9733 271.684 17.952C271.759 17.9307 271.839 17.8933 271.924 17.84C272.116 17.6907 272.297 17.328 272.468 16.752C272.639 16.176 272.777 15.4667 272.884 14.624H269.364L269.22 15.024C269.145 15.216 269.081 15.4027 269.028 15.584C268.921 15.648 268.777 15.68 268.596 15.68C268.404 15.68 268.191 15.6373 267.956 15.552C268.116 15.2427 268.303 14.7947 268.516 14.208C268.729 13.6213 268.905 13.072 269.044 12.56H268.452C268.153 12.5707 267.833 12.6453 267.492 12.784L267.076 11.952C267.663 12.016 268.372 12.0587 269.204 12.08H272.9L273.188 11.648C273.22 11.6053 273.263 11.5413 273.316 11.456C273.38 11.3707 273.433 11.3067 273.476 11.264C273.519 11.2213 273.561 11.2 273.604 11.2C273.668 11.2 273.801 11.28 274.004 11.44C274.207 11.5893 274.393 11.7547 274.564 11.936C274.735 12.1067 274.82 12.2293 274.82 12.304C274.777 12.4747 274.644 12.56 274.42 12.56H270.036C269.812 13.296 269.641 13.824 269.524 14.144H272.756L273.012 13.792ZM263.012 18.16C263.044 18.5547 263.065 18.7733 263.076 18.816C263.044 18.912 262.943 19.0027 262.772 19.088C262.601 19.1733 262.42 19.216 262.228 19.216C262.164 19.216 262.105 19.184 262.052 19.12C262.009 19.056 261.988 18.9813 261.988 18.896C262.031 18.4587 262.063 17.9147 262.084 17.264V16.272C262.084 15.0667 262.02 14.0587 261.892 13.248L263.092 13.824H265.14L265.364 13.52C265.396 13.488 265.444 13.4293 265.508 13.344C265.572 13.2587 265.636 13.216 265.7 13.216C265.764 13.216 265.892 13.28 266.084 13.408C266.276 13.536 266.452 13.6747 266.612 13.824C266.772 13.9733 266.852 14.0853 266.852 14.16C266.735 14.3093 266.527 14.416 266.228 14.48V15.76C266.249 16.8053 266.281 17.632 266.324 18.24C266.271 18.3253 266.143 18.4107 265.94 18.496C265.748 18.592 265.572 18.64 265.412 18.64C265.348 18.64 265.3 18.608 265.268 18.544C265.236 18.48 265.22 18.4053 265.22 18.32C265.22 18.32 265.241 18.2347 265.284 18.064V17.776H263.012V18.16ZM263.012 14.288V17.296H265.284V14.288H263.012ZM286.724 11.424C287.311 11.424 287.871 11.536 288.404 11.76C288.937 11.984 289.375 12.3307 289.716 12.8C290.057 13.2693 290.228 13.8453 290.228 14.528C290.228 15.1893 290.031 15.776 289.636 16.288C289.241 16.8 288.729 17.2 288.1 17.488C287.481 17.7653 286.836 17.904 286.164 17.904C285.599 17.904 285.092 17.7813 284.644 17.536C284.196 17.28 283.972 16.9333 283.972 16.496C283.972 16.1333 284.116 15.8453 284.404 15.632C284.692 15.408 285.023 15.296 285.396 15.296C285.823 15.296 286.217 15.4347 286.58 15.712C286.943 15.9893 287.209 16.3893 287.38 16.912C287.913 16.656 288.356 16.2987 288.708 15.84C289.06 15.3813 289.236 14.8747 289.236 14.32C289.236 13.488 288.959 12.88 288.404 12.496C287.849 12.1013 287.204 11.904 286.468 11.904C285.785 11.904 285.156 12.1173 284.58 12.544C284.004 12.96 283.417 13.6747 282.82 14.688C282.767 14.7733 282.687 14.912 282.58 15.104C282.473 15.2853 282.372 15.4187 282.276 15.504C282.18 15.5893 282.073 15.632 281.956 15.632C281.764 15.632 281.62 15.5733 281.524 15.456C281.439 15.3387 281.396 15.2 281.396 15.04C281.396 14.7413 281.519 14.416 281.764 14.064C282.02 13.7013 282.404 13.2267 282.916 12.64C283.439 12.0427 284.063 11.2907 284.788 10.384C285.513 9.47733 285.956 8.92267 286.116 8.72L286.612 8.096C286.665 8.032 286.729 7.952 286.804 7.856C286.889 7.76 286.948 7.68 286.98 7.616C287.023 7.54133 287.044 7.472 287.044 7.408C287.044 7.30133 287.001 7.2 286.916 7.104C286.841 7.008 286.761 6.96 286.676 6.96C286.548 6.96 286.409 7.05067 286.26 7.232C285.951 7.616 285.604 7.936 285.22 8.192C284.836 8.43733 284.473 8.56 284.132 8.56C283.556 8.56 283.225 8.16533 283.14 7.376L283.124 7.072C283.124 6.98667 283.145 6.944 283.188 6.944C283.22 6.944 283.311 7.02933 283.46 7.2C283.599 7.34933 283.743 7.424 283.892 7.424C284.041 7.424 284.319 7.344 284.724 7.184C285.129 7.01333 285.551 6.8 285.988 6.544C286.233 6.39467 286.452 6.32 286.644 6.32C286.825 6.32 287.049 6.37867 287.316 6.496C287.593 6.61333 287.833 6.768 288.036 6.96C288.239 7.152 288.34 7.35467 288.34 7.568C288.34 7.83467 288.212 8.064 287.956 8.256C286.473 9.45067 285.161 10.8053 284.02 12.32C284.916 11.7227 285.817 11.424 286.724 11.424ZM286.084 17.216C286.18 17.216 286.303 17.2053 286.452 17.184C286.377 16.8533 286.239 16.5707 286.036 16.336C285.844 16.1013 285.572 15.984 285.22 15.984C285.028 15.984 284.884 16.032 284.788 16.128C284.692 16.2133 284.644 16.32 284.644 16.448C284.644 16.6507 284.793 16.832 285.092 16.992C285.401 17.1413 285.732 17.216 286.084 17.216Z" fill="#72796C"/>
<path d="M278 38.5L262 69.5" stroke="#2F3829"/>
</svg>
